<svg width="21" height="24" viewBox="0 0 21 24" fill="none" xmlns="http://www.w3.org/2000/svg">
<path d="M19.485 9.81325L12.2699 2.60461C11.7615 2.09403 11.1567 1.68931 10.4907 1.41387C9.82458 1.13844 9.11042 0.997779 8.38955 1.00003H2.83547C2.34932 1.00003 1.88308 1.19298 1.53932 1.53643C1.19556 1.87988 1.00244 2.3457 1.00244 2.83142V22.5541C1.00244 22.6509 1.04092 22.7437 1.1094 22.8121C1.17789 22.8805 1.27078 22.919 1.36764 22.919H12.1332C12.5931 22.919 13.0445 22.7952 13.44 22.5607C13.8354 22.3262 14.1604 21.9896 14.3807 21.5863C15.3719 19.7689 16.8665 18.2756 18.6855 17.2853C19.0892 17.0652 19.4261 16.7405 19.6608 16.3454C19.8955 15.9503 20.0194 15.4993 20.0194 15.0398V11.0952C20.0185 10.614 19.8263 10.1529 19.485 9.81325ZM19.289 15.044C19.2887 15.3723 19.2 15.6944 19.0323 15.9767C18.8646 16.2589 18.6241 16.491 18.3359 16.6486C16.3939 17.7054 14.7984 19.2995 13.7406 21.2397C13.5829 21.5277 13.3506 21.768 13.0681 21.9356C12.7855 22.1031 12.4631 22.1917 12.1346 22.1921H1.73424V2.83142C1.7335 2.68666 1.76146 2.54318 1.81652 2.40928C1.87158 2.27538 1.95265 2.1537 2.05504 2.05127C2.15743 1.94884 2.27911 1.86769 2.41306 1.81251C2.54701 1.75733 2.69058 1.72921 2.83547 1.72977H8.39378C9.01837 1.7282 9.63706 1.85041 10.2141 2.08932C10.7911 2.32824 11.3149 2.6791 11.7553 3.12163L18.9704 10.3303C19.1755 10.5362 19.291 10.8146 19.2919 11.1051L19.289 15.044Z" fill="#977CDE" stroke="#977CDE" stroke-width="0.2"/>
<path d="M17.7194 10.2494L11.1093 3.64508C10.7366 3.2709 10.2933 2.97427 9.80516 2.77235C9.31699 2.57044 8.79359 2.46725 8.26524 2.46877H3.56282C3.27188 2.46877 2.99285 2.58424 2.78712 2.78978C2.58139 2.99533 2.46582 3.2741 2.46582 3.56478V10.5072C2.46582 10.6039 2.5043 10.6967 2.57278 10.7652C2.64127 10.8336 2.73416 10.872 2.83102 10.872H17.46C17.5325 10.8722 17.6034 10.8509 17.6636 10.8107C17.7239 10.7706 17.7709 10.7134 17.7986 10.6465C17.8262 10.5796 17.8333 10.5059 17.819 10.435C17.8047 10.364 17.7695 10.2989 17.718 10.248L17.7194 10.2494ZM11.975 10.1423H3.19762V3.56478C3.19762 3.51687 3.20706 3.46943 3.22542 3.42516C3.24377 3.38089 3.27067 3.34067 3.30458 3.30678C3.33849 3.2729 3.37876 3.24603 3.42307 3.22769C3.46737 3.20935 3.51486 3.19992 3.56282 3.19992H8.26524C8.69778 3.19872 9.12625 3.28326 9.52585 3.44867C9.92545 3.61407 10.2882 3.85704 10.5932 4.16351L11.975 5.5441V10.1423ZM12.7068 10.1423V6.27243L16.5787 10.1409L12.7068 10.1423Z" fill="#977CDE" stroke="#977CDE" stroke-width="0.2"/>
<path d="M16.7285 11.9609H14.5345C14.2436 11.9609 13.9645 12.0764 13.7588 12.282C13.5531 12.4875 13.4375 12.7663 13.4375 13.057C13.4375 13.3476 13.5531 13.6264 13.7588 13.832C13.9645 14.0375 14.2436 14.153 14.5345 14.153H16.7285C17.0195 14.153 17.2985 14.0375 17.5042 13.832C17.7099 13.6264 17.8255 13.3476 17.8255 13.057C17.8255 12.7663 17.7099 12.4875 17.5042 12.282C17.2985 12.0764 17.0195 11.9609 16.7285 11.9609ZM16.7285 13.4218H14.5345C14.4375 13.4218 14.3444 13.3833 14.2758 13.3148C14.2072 13.2462 14.1686 13.1532 14.1686 13.0562C14.1686 12.9593 14.2072 12.8663 14.2758 12.7978C14.3444 12.7292 14.4375 12.6907 14.5345 12.6907H16.7285C16.8256 12.6907 16.9186 12.7292 16.9872 12.7978C17.0558 12.8663 17.0944 12.9593 17.0944 13.0562C17.0944 13.1532 17.0558 13.2462 16.9872 13.3148C16.9186 13.3833 16.8256 13.4218 16.7285 13.4218Z" fill="#977CDE" stroke="#977CDE" stroke-width="0.2"/>
<path d="M2.83984 3.67969L5.57452 4.40195L4.70702 6.42636L6.3291 5.85474L5.93528 7.26351L8.26237 6.43118L9.06653 8.19213" fill="#977CDE"/>
<path d="M2.83984 3.67969L5.57452 4.40195L4.70702 6.42636L6.3291 5.85474L5.93528 7.26351L8.26237 6.43118L9.06653 8.19213" stroke="#977CDE" stroke-width="0.8" stroke-linecap="round"/>
</svg>
