<svg width="25" height="16" viewBox="0 0 25 16" fill="none" xmlns="http://www.w3.org/2000/svg">
<mask id="path-1-inside-1" fill="white">
<path d="M22.0213 8.00572H20.6118L18.0098 4.75581C17.8232 4.52191 17.5864 4.33299 17.3167 4.20311C17.0471 4.07323 16.7517 4.00571 16.4523 4.00558H9.5796C9.20788 4.00496 8.84338 4.10812 8.52722 4.30345C8.47605 4.23454 8.42598 4.16452 8.37036 4.09783C8.22463 3.92555 8.06777 3.76439 7.92538 3.61768L7.78299 3.47652C7.39558 3.14563 7.07598 2.74291 6.84185 2.2906C6.72469 2.02574 6.69259 1.73111 6.74997 1.44726C6.80735 1.16342 6.95138 0.90433 7.16224 0.705658C7.22821 0.649922 7.27437 0.574365 7.29383 0.490265C7.3133 0.406165 7.30502 0.318032 7.27023 0.239019C7.23545 0.160006 7.17602 0.0943513 7.10082 0.0518538C7.02562 0.00935626 6.93868 -0.00770532 6.85298 0.00321602C6.44495 0.0465224 6.05002 0.172318 5.69219 0.372947C5.33437 0.573577 5.02115 0.844846 4.77158 1.17025C4.36026 1.71237 4.14921 2.37991 4.17419 3.05973C4.19402 3.31757 4.23118 3.57378 4.28544 3.82663C4.44563 4.72025 4.45675 5.11593 3.90053 5.38712C3.68743 5.47909 3.45042 5.50032 3.22435 5.44771C2.99827 5.39509 2.79505 5.2714 2.64457 5.09481C2.41429 4.81917 2.41318 4.41015 2.63678 3.72771C2.66262 3.6472 2.66227 3.56058 2.63577 3.48028C2.60928 3.39998 2.558 3.33012 2.4893 3.28075C2.42061 3.23137 2.33802 3.205 2.25339 3.20543C2.16877 3.20586 2.08645 3.23306 2.01826 3.28313C1.11388 3.91015 0.434025 4.80984 0.0781437 5.8506C-0.00392777 6.15697 -0.021587 6.47701 0.0262789 6.79054C0.0741448 7.10407 0.186498 7.40429 0.356257 7.67228C0.514822 7.91519 0.704009 8.13671 0.919157 8.33138C0.639603 8.51267 0.40976 8.7608 0.250468 9.05329C0.0911753 9.34578 0.00747194 9.67336 0.00694687 10.0063V13.2062C0.00694687 13.3124 0.0491405 13.4141 0.124246 13.4892C0.199351 13.5642 0.301215 13.6064 0.407429 13.6064H1.7446C1.90979 14.0738 2.216 14.4785 2.62105 14.7648C3.02611 15.0511 3.51005 15.2049 4.00621 15.2049C4.50237 15.2049 4.98632 15.0511 5.39137 14.7648C5.79642 14.4785 6.10264 14.0738 6.26783 13.6064H16.9563C17.1215 14.0738 17.4277 14.4785 17.8327 14.7648C18.2378 15.0511 18.7217 15.2049 19.2179 15.2049C19.714 15.2049 20.198 15.0511 20.603 14.7648C21.0081 14.4785 21.3143 14.0738 21.4795 13.6064H23.621C23.7272 13.6064 23.829 13.5642 23.9042 13.4892C23.9793 13.4141 24.0214 13.3124 24.0214 13.2062V10.0063C24.0214 9.47575 23.8105 8.96688 23.435 8.59169C23.0594 8.2165 22.5501 8.00572 22.019 8.00572H22.0213ZM13.214 4.80583H16.4479C16.6276 4.80485 16.8052 4.84431 16.9675 4.92127C17.1299 4.99824 17.2728 5.11073 17.3857 5.25041L19.5861 8.00572H13.214V4.80583ZM0.855748 6.04511C1.01456 5.52508 1.29569 5.05059 1.67562 4.66134C1.68598 5.00754 1.81164 5.3404 2.03272 5.60719C2.29887 5.92071 2.6601 6.13896 3.06162 6.22882C3.46314 6.31868 3.88304 6.27525 4.25763 6.10512C5.41235 5.53383 5.21433 4.46239 5.07083 3.67881C5.02545 3.46099 4.99423 3.24046 4.97738 3.0186C4.96429 2.63906 5.05224 2.26284 5.23224 1.92835C5.41224 1.59387 5.67784 1.31309 6.00195 1.11467C5.86833 1.60396 5.902 2.12381 6.09762 2.5918C6.36746 3.14325 6.74582 3.63467 7.21007 4.0367L7.34913 4.17563C7.49375 4.32012 7.62947 4.46017 7.75295 4.60465C7.81747 4.68135 7.87755 4.76137 7.93428 4.84473L5.41569 8.00572H1.97265C1.66561 8.00572 1.27737 7.61893 1.02595 7.23437C0.9172 7.05913 0.845848 6.86335 0.816368 6.65927C0.786888 6.4552 0.799916 6.24725 0.854635 6.04844L0.855748 6.04511ZM4.01177 14.4022C3.69516 14.4022 3.38566 14.3084 3.12241 14.1326C2.85915 13.9569 2.65397 13.7071 2.53281 13.4148C2.41165 13.1226 2.37995 12.801 2.44172 12.4908C2.50348 12.1805 2.65595 11.8955 2.87982 11.6718C3.1037 11.4482 3.38894 11.2958 3.69947 11.2341C4.01 11.1724 4.33187 11.2041 4.62438 11.3251C4.91689 11.4462 5.16691 11.6512 5.34281 11.9142C5.51871 12.1772 5.61259 12.4864 5.61259 12.8028C5.61259 13.0128 5.57119 13.2208 5.49074 13.4148C5.41029 13.6089 5.29237 13.7852 5.14372 13.9337C4.99507 14.0822 4.8186 14.2 4.62438 14.2804C4.43016 14.3608 4.222 14.4022 4.01177 14.4022ZM12.4186 12.8028H6.41133C6.41133 12.1664 6.15829 11.556 5.70787 11.106C5.25744 10.656 4.64654 10.4031 4.00955 10.4031C3.37256 10.4031 2.76165 10.656 2.31123 11.106C1.86081 11.556 1.60777 12.1664 1.60777 12.8028H0.8068V10.0063C0.809129 9.6887 0.936458 9.38473 1.16127 9.16012C1.38608 8.93551 1.69032 8.8083 2.00825 8.80597H12.4163L12.4186 12.8028ZM12.4186 8.0035H6.44026L8.6418 5.25375C8.75414 5.11305 8.89681 4.9995 9.05919 4.92156C9.22156 4.84362 9.39945 4.8033 9.5796 4.80361H12.413L12.4186 8.0035ZM19.2246 14.4033C18.9079 14.4033 18.5984 14.3095 18.3352 14.1337C18.0719 13.958 17.8668 13.7082 17.7456 13.4159C17.6244 13.1237 17.5927 12.8021 17.6545 12.4919C17.7163 12.1816 17.8687 11.8966 18.0926 11.6729C18.3165 11.4493 18.6017 11.2969 18.9123 11.2352C19.2228 11.1735 19.5447 11.2052 19.8372 11.3262C20.1297 11.4473 20.3797 11.6523 20.5556 11.9153C20.7315 12.1783 20.8254 12.4876 20.8254 12.8039C20.8252 13.0143 20.7835 13.2226 20.7027 13.4169C20.6218 13.6112 20.5034 13.7876 20.3541 13.9361C20.2049 14.0845 20.0278 14.2021 19.833 14.2821C19.6383 14.3621 19.4296 14.4029 19.219 14.4022L19.2246 14.4033ZM23.2294 12.8039H21.6208C21.6208 12.4888 21.5587 12.1767 21.438 11.8856C21.3173 11.5944 21.1403 11.3299 20.9173 11.1071C20.6943 10.8843 20.4295 10.7075 20.1381 10.5869C19.8467 10.4663 19.5344 10.4042 19.219 10.4042C18.9036 10.4042 18.5913 10.4663 18.2999 10.5869C18.0085 10.7075 17.7437 10.8843 17.5207 11.1071C17.2976 11.3299 17.1207 11.5944 17 11.8856C16.8793 12.1767 16.8172 12.4888 16.8172 12.8039H13.214V8.80264H22.0213C22.1792 8.80278 22.3356 8.83405 22.4815 8.89464C22.6273 8.95524 22.7598 9.04399 22.8713 9.15579C22.9828 9.26759 23.0711 9.40027 23.1312 9.54621C23.1913 9.69216 23.222 9.84852 23.2216 10.0063L23.2294 12.8039Z"/>
</mask>
<path d="M22.0213 8.00572H20.6118L18.0098 4.75581C17.8232 4.52191 17.5864 4.33299 17.3167 4.20311C17.0471 4.07323 16.7517 4.00571 16.4523 4.00558H9.5796C9.20788 4.00496 8.84338 4.10812 8.52722 4.30345C8.47605 4.23454 8.42598 4.16452 8.37036 4.09783C8.22463 3.92555 8.06777 3.76439 7.92538 3.61768L7.78299 3.47652C7.39558 3.14563 7.07598 2.74291 6.84185 2.2906C6.72469 2.02574 6.69259 1.73111 6.74997 1.44726C6.80735 1.16342 6.95138 0.90433 7.16224 0.705658C7.22821 0.649922 7.27437 0.574365 7.29383 0.490265C7.3133 0.406165 7.30502 0.318032 7.27023 0.239019C7.23545 0.160006 7.17602 0.0943513 7.10082 0.0518538C7.02562 0.00935626 6.93868 -0.00770532 6.85298 0.00321602C6.44495 0.0465224 6.05002 0.172318 5.69219 0.372947C5.33437 0.573577 5.02115 0.844846 4.77158 1.17025C4.36026 1.71237 4.14921 2.37991 4.17419 3.05973C4.19402 3.31757 4.23118 3.57378 4.28544 3.82663C4.44563 4.72025 4.45675 5.11593 3.90053 5.38712C3.68743 5.47909 3.45042 5.50032 3.22435 5.44771C2.99827 5.39509 2.79505 5.2714 2.64457 5.09481C2.41429 4.81917 2.41318 4.41015 2.63678 3.72771C2.66262 3.6472 2.66227 3.56058 2.63577 3.48028C2.60928 3.39998 2.558 3.33012 2.4893 3.28075C2.42061 3.23137 2.33802 3.205 2.25339 3.20543C2.16877 3.20586 2.08645 3.23306 2.01826 3.28313C1.11388 3.91015 0.434025 4.80984 0.0781437 5.8506C-0.00392777 6.15697 -0.021587 6.47701 0.0262789 6.79054C0.0741448 7.10407 0.186498 7.40429 0.356257 7.67228C0.514822 7.91519 0.704009 8.13671 0.919157 8.33138C0.639603 8.51267 0.40976 8.7608 0.250468 9.05329C0.0911753 9.34578 0.00747194 9.67336 0.00694687 10.0063V13.2062C0.00694687 13.3124 0.0491405 13.4141 0.124246 13.4892C0.199351 13.5642 0.301215 13.6064 0.407429 13.6064H1.7446C1.90979 14.0738 2.216 14.4785 2.62105 14.7648C3.02611 15.0511 3.51005 15.2049 4.00621 15.2049C4.50237 15.2049 4.98632 15.0511 5.39137 14.7648C5.79642 14.4785 6.10264 14.0738 6.26783 13.6064H16.9563C17.1215 14.0738 17.4277 14.4785 17.8327 14.7648C18.2378 15.0511 18.7217 15.2049 19.2179 15.2049C19.714 15.2049 20.198 15.0511 20.603 14.7648C21.0081 14.4785 21.3143 14.0738 21.4795 13.6064H23.621C23.7272 13.6064 23.829 13.5642 23.9042 13.4892C23.9793 13.4141 24.0214 13.3124 24.0214 13.2062V10.0063C24.0214 9.47575 23.8105 8.96688 23.435 8.59169C23.0594 8.2165 22.5501 8.00572 22.019 8.00572H22.0213ZM13.214 4.80583H16.4479C16.6276 4.80485 16.8052 4.84431 16.9675 4.92127C17.1299 4.99824 17.2728 5.11073 17.3857 5.25041L19.5861 8.00572H13.214V4.80583ZM0.855748 6.04511C1.01456 5.52508 1.29569 5.05059 1.67562 4.66134C1.68598 5.00754 1.81164 5.3404 2.03272 5.60719C2.29887 5.92071 2.6601 6.13896 3.06162 6.22882C3.46314 6.31868 3.88304 6.27525 4.25763 6.10512C5.41235 5.53383 5.21433 4.46239 5.07083 3.67881C5.02545 3.46099 4.99423 3.24046 4.97738 3.0186C4.96429 2.63906 5.05224 2.26284 5.23224 1.92835C5.41224 1.59387 5.67784 1.31309 6.00195 1.11467C5.86833 1.60396 5.902 2.12381 6.09762 2.5918C6.36746 3.14325 6.74582 3.63467 7.21007 4.0367L7.34913 4.17563C7.49375 4.32012 7.62947 4.46017 7.75295 4.60465C7.81747 4.68135 7.87755 4.76137 7.93428 4.84473L5.41569 8.00572H1.97265C1.66561 8.00572 1.27737 7.61893 1.02595 7.23437C0.9172 7.05913 0.845848 6.86335 0.816368 6.65927C0.786888 6.4552 0.799916 6.24725 0.854635 6.04844L0.855748 6.04511ZM4.01177 14.4022C3.69516 14.4022 3.38566 14.3084 3.12241 14.1326C2.85915 13.9569 2.65397 13.7071 2.53281 13.4148C2.41165 13.1226 2.37995 12.801 2.44172 12.4908C2.50348 12.1805 2.65595 11.8955 2.87982 11.6718C3.1037 11.4482 3.38894 11.2958 3.69947 11.2341C4.01 11.1724 4.33187 11.2041 4.62438 11.3251C4.91689 11.4462 5.16691 11.6512 5.34281 11.9142C5.51871 12.1772 5.61259 12.4864 5.61259 12.8028C5.61259 13.0128 5.57119 13.2208 5.49074 13.4148C5.41029 13.6089 5.29237 13.7852 5.14372 13.9337C4.99507 14.0822 4.8186 14.2 4.62438 14.2804C4.43016 14.3608 4.222 14.4022 4.01177 14.4022ZM12.4186 12.8028H6.41133C6.41133 12.1664 6.15829 11.556 5.70787 11.106C5.25744 10.656 4.64654 10.4031 4.00955 10.4031C3.37256 10.4031 2.76165 10.656 2.31123 11.106C1.86081 11.556 1.60777 12.1664 1.60777 12.8028H0.8068V10.0063C0.809129 9.6887 0.936458 9.38473 1.16127 9.16012C1.38608 8.93551 1.69032 8.8083 2.00825 8.80597H12.4163L12.4186 12.8028ZM12.4186 8.0035H6.44026L8.6418 5.25375C8.75414 5.11305 8.89681 4.9995 9.05919 4.92156C9.22156 4.84362 9.39945 4.8033 9.5796 4.80361H12.413L12.4186 8.0035ZM19.2246 14.4033C18.9079 14.4033 18.5984 14.3095 18.3352 14.1337C18.0719 13.958 17.8668 13.7082 17.7456 13.4159C17.6244 13.1237 17.5927 12.8021 17.6545 12.4919C17.7163 12.1816 17.8687 11.8966 18.0926 11.6729C18.3165 11.4493 18.6017 11.2969 18.9123 11.2352C19.2228 11.1735 19.5447 11.2052 19.8372 11.3262C20.1297 11.4473 20.3797 11.6523 20.5556 11.9153C20.7315 12.1783 20.8254 12.4876 20.8254 12.8039C20.8252 13.0143 20.7835 13.2226 20.7027 13.4169C20.6218 13.6112 20.5034 13.7876 20.3541 13.9361C20.2049 14.0845 20.0278 14.2021 19.833 14.2821C19.6383 14.3621 19.4296 14.4029 19.219 14.4022L19.2246 14.4033ZM23.2294 12.8039H21.6208C21.6208 12.4888 21.5587 12.1767 21.438 11.8856C21.3173 11.5944 21.1403 11.3299 20.9173 11.1071C20.6943 10.8843 20.4295 10.7075 20.1381 10.5869C19.8467 10.4663 19.5344 10.4042 19.219 10.4042C18.9036 10.4042 18.5913 10.4663 18.2999 10.5869C18.0085 10.7075 17.7437 10.8843 17.5207 11.1071C17.2976 11.3299 17.1207 11.5944 17 11.8856C16.8793 12.1767 16.8172 12.4888 16.8172 12.8039H13.214V8.80264H22.0213C22.1792 8.80278 22.3356 8.83405 22.4815 8.89464C22.6273 8.95524 22.7598 9.04399 22.8713 9.15579C22.9828 9.26759 23.0711 9.40027 23.1312 9.54621C23.1913 9.69216 23.222 9.84852 23.2216 10.0063L23.2294 12.8039Z" fill="#D5CBF2" stroke="#D5CBF2" stroke-width="2" mask="url(#path-1-inside-1)"/>
</svg>
