<svg width="16" height="22" viewBox="0 0 16 22" fill="none" xmlns="http://www.w3.org/2000/svg">
<path d="M14.9345 8.08484L15.4169 7.95311L15.4169 7.95304L15.4168 7.9529L15.4167 7.95256L15.4165 7.95171L15.4158 7.94927L15.4137 7.94154L15.4061 7.91529C15.3997 7.89325 15.3904 7.86231 15.3785 7.82443C15.3554 7.75122 15.3219 7.65066 15.279 7.53741C15.1975 7.29376 15.0748 7.06585 14.9162 6.86357L14.8926 6.83337L14.8646 6.80714C14.5116 6.47651 14.0461 6.29246 13.5625 6.29222H13.5622H13.5103V6.29217L13.5027 6.29228C13.2628 6.29592 13.0261 6.34672 12.8059 6.4418C12.5857 6.53688 12.3863 6.67438 12.2193 6.84647C12.0522 7.01856 11.9207 7.22187 11.8322 7.44481C11.7447 7.66556 11.701 7.90125 11.7038 8.13866M14.9345 8.08484L4.76443 6.83047L4.76422 6.83068M14.9345 8.08484L15.4169 7.95317L15.4201 7.96498L15.4228 7.97694C15.4231 7.97841 15.424 7.97981 15.4254 7.98079C15.4268 7.98178 15.4286 7.98224 15.4305 7.98199C15.4323 7.98174 15.4339 7.98082 15.4349 7.97956C15.4359 7.97832 15.4364 7.97681 15.4363 7.97533L15.4356 7.96181L15.4356 7.94826C15.4355 7.6091 15.4122 7.27233 15.3667 6.94005L14.4277 6.47887C14.1586 6.34667 13.8626 6.27799 13.5626 6.27814C13.0664 6.27915 12.5897 6.47112 12.2316 6.81406L12.2287 6.81679C12.2257 6.82003 12.2224 6.82333 12.2191 6.82667L14.9345 8.08484ZM11.7038 8.13866C11.7038 8.13844 11.7038 8.13823 11.7038 8.13801H12.2038L11.7053 8.14569L11.7039 8.14571C11.7039 8.14523 11.7039 8.14475 11.7039 8.14427C11.7038 8.1424 11.7038 8.14053 11.7038 8.13866ZM11.7038 8.13866C11.7036 8.14 11.703 8.14132 11.702 8.14238C11.7007 8.14363 11.6989 8.14442 11.697 8.14442C11.695 8.14442 11.6932 8.14363 11.6919 8.14238C11.6907 8.14115 11.6901 8.13957 11.6901 8.13801H11.6902L11.69 8.12958C11.6818 7.64289 11.4913 7.17703 11.1561 6.82398L11.1459 6.81329L11.1352 6.80322C10.7822 6.47281 10.3169 6.28884 9.83339 6.28843H9.83297H9.77721V6.2883L9.7659 6.28855C9.28141 6.29952 8.82094 6.50191 8.4854 6.85152C8.15104 7.19989 7.9679 7.66615 7.97584 8.14879M7.97584 8.14879V10.4537M7.97584 8.14879C7.97587 8.15053 7.9759 8.15226 7.97594 8.15399L8.47584 8.14434H7.97584V8.14879ZM7.97584 10.4537C7.97356 10.4537 7.97127 10.4536 7.96898 10.4536C7.96456 10.4536 7.96016 10.4537 7.95578 10.4537M7.97584 10.4537V10.7182C7.97584 10.7255 7.97387 10.6582 8.03191 10.5786C8.0944 10.4928 8.17368 10.4642 8.20135 10.457C8.20775 10.4553 8.21162 10.4547 8.21161 10.4546C8.21159 10.4545 8.19864 10.4561 8.16452 10.4562C8.1412 10.4563 8.11544 10.4558 8.08124 10.4551L8.07912 10.4551C8.04911 10.4545 8.01332 10.4537 7.97584 10.4537ZM7.95578 10.4537V8.14307H7.95585L7.95571 8.13464C7.94751 7.64795 7.75695 7.18209 7.42178 6.82904L7.41327 6.82008L7.40432 6.81154C7.05224 6.47562 6.58324 6.2899 6.09667 6.29349M7.95578 10.4537C7.92073 10.4538 7.88729 10.4545 7.85892 10.4551L7.8565 10.4551C7.82217 10.4558 7.79611 10.4563 7.77243 10.4562C7.7365 10.4561 7.72303 10.4544 7.723 10.4545C7.72299 10.4546 7.72614 10.4551 7.73143 10.4565C7.75621 10.4628 7.83449 10.4897 7.89746 10.5742C7.95705 10.6541 7.95578 10.723 7.95578 10.7182V10.4537ZM6.09667 6.29349H6.04797V6.29339L6.03805 6.29359C5.55388 6.3032 5.09314 6.50403 4.75666 6.85227C4.4218 7.19885 4.23717 7.66336 4.24276 8.14503M6.09667 6.29349C6.09589 6.2935 6.09512 6.2935 6.09435 6.29351L6.09866 6.79349M6.09667 6.29349H6.09866V6.79349M4.24276 8.14503C4.2427 8.14558 4.24256 8.14612 4.24234 8.14665C4.24203 8.1474 4.24156 8.1481 4.24095 8.14871C4.24033 8.14933 4.23958 8.14984 4.23872 8.1502L4.42991 8.6122M4.24276 8.14503C4.24277 8.14563 4.24278 8.14623 4.24279 8.14683C4.24281 8.14809 4.24282 8.14935 4.24284 8.15061C4.24285 8.15109 4.24285 8.15157 4.24286 8.15206L4.24427 8.15203L4.25494 8.15187L4.7428 8.14434M4.24276 8.14503C4.24279 8.1448 4.2428 8.14457 4.2428 8.14434H4.7428M4.42991 8.6122L4.23871 8.1502C4.23785 8.15056 4.23691 8.15075 4.23594 8.15075C4.23498 8.15075 4.23405 8.15056 4.23317 8.1502L4.23317 8.1502C4.23278 8.15004 4.23242 8.14985 4.23208 8.14963C4.23166 8.14936 4.23128 8.14906 4.23094 8.14872L3.87754 8.50243M4.42991 8.6122C4.36841 8.63765 4.3025 8.65075 4.23594 8.65075C4.16938 8.65075 4.10347 8.63765 4.04198 8.6122M4.42991 8.6122C4.49141 8.58675 4.54728 8.54945 4.59435 8.50243C4.64141 8.4554 4.67875 8.39957 4.70422 8.33813C4.72969 8.27669 4.7428 8.21084 4.7428 8.14434M3.87754 8.50243L4.23094 8.14871C4.23065 8.14843 4.23041 8.14814 4.2302 8.14784C4.22992 8.14745 4.2297 8.14705 4.22954 8.14665C4.22923 8.1459 4.22907 8.14511 4.22908 8.14434L4.22907 8.1418C4.22659 7.65268 4.03696 7.1831 3.69917 6.82929L3.69131 6.82106L3.68309 6.81319C3.33146 6.47696 2.86262 6.29105 2.37619 6.29475C1.89028 6.29269 1.42202 6.47737 1.06843 6.81079L1.0282 6.84872L0.997234 6.89452C0.777366 7.21974 0.61583 7.58073 0.519869 7.96133L0.519721 7.96129L0.516997 7.97335C0.516674 7.97478 0.515798 7.97617 0.514387 7.97716C0.512973 7.97815 0.511176 7.97861 0.50936 7.97838L0.509357 7.97838C0.507542 7.97815 0.505977 7.97727 0.504918 7.97603L0.12658 8.29991L0.504916 7.97603C0.503878 7.97482 0.503377 7.97333 0.503421 7.97185L0.503645 7.96433L0.503642 7.95681C0.503535 7.61981 0.526299 7.28394 0.571487 6.95146L1.51668 6.47692C1.7831 6.34317 2.07755 6.27459 2.37575 6.27688L2.38039 6.27687C2.86571 6.27606 3.33245 6.46002 3.68614 6.79023M3.87754 8.50243C3.92461 8.54945 3.98048 8.58675 4.04198 8.6122M3.87754 8.50243C3.83047 8.4554 3.79313 8.39957 3.76766 8.33813C3.74219 8.27669 3.72907 8.21084 3.72907 8.14434C3.72724 7.783 3.58716 7.43604 3.33753 7.17456L4.04198 8.6122M3.68614 6.79023C3.69473 6.80065 3.70221 6.80896 3.70736 6.81453L3.70956 6.81687M3.68614 6.79023C3.68441 6.78814 3.68264 6.78596 3.68083 6.7837C3.6716 6.77216 3.65268 6.74775 3.63364 6.71444C3.6334 6.71401 3.63312 6.71353 3.6328 6.71297C3.62184 6.69395 3.56615 6.59729 3.56615 6.46179H3.94574L4.03076 6.52252C3.72279 6.8306 3.72275 6.83056 3.7227 6.83052L3.72262 6.83043L3.72244 6.83026L3.72208 6.8299L3.72134 6.82915L3.71977 6.82756L3.71621 6.8239L3.70956 6.81687M3.68614 6.79023C3.6946 6.79813 3.70299 6.80611 3.71132 6.81417L3.70903 6.81629C3.7092 6.81648 3.70938 6.81667 3.70956 6.81687M3.70956 6.81687C3.76081 6.87237 3.80664 6.92661 3.84737 6.97951L4.25863 7.51367L4.65043 6.96508C4.68461 6.91723 4.72266 6.87228 4.76422 6.83068M4.76422 6.83068L4.44962 6.51583L4.76422 6.83068ZM4.04198 8.6122L4.7428 8.14434M6.09866 6.79349H6.04797H6.09866ZM4.78151 6.81341C5.13845 6.46935 5.61563 6.27763 6.11189 6.27912C6.60864 6.28062 7.08511 6.47561 7.44008 6.82246L7.44099 6.82337C7.48981 6.87659 7.53364 6.92866 7.5728 6.97951L7.98406 7.51367L8.37586 6.96508C8.41003 6.91725 8.44809 6.87229 8.48967 6.83068L4.78151 6.81341ZM8.48987 6.83047L8.50738 6.81298C8.86411 6.4674 9.34187 6.27444 9.83902 6.27537C10.3365 6.27631 10.8138 6.47133 11.1693 6.81869L11.1702 6.81957C11.219 6.87279 11.2629 6.92486 11.302 6.97571L11.7133 7.50988L12.1051 6.96128C12.1393 6.91346 12.1773 6.86851 12.2189 6.82691C12.2189 6.82687 12.219 6.82683 12.219 6.82679L8.48987 6.83047ZM15.2621 6.35265L15.1284 5.89104C14.6796 4.34067 13.7388 2.97806 12.4477 2.00837C11.1567 1.03868 9.58531 0.514387 7.97025 0.514387C6.35518 0.514387 4.7838 1.03868 3.49276 2.00837C2.2017 2.97806 1.26087 4.34067 0.812057 5.89104L0.67637 6.35976C0.770408 5.93075 0.902433 5.50986 1.07144 5.10217C1.44661 4.19713 1.99667 3.37481 2.69018 2.68225C3.38369 1.98969 4.20704 1.44048 5.11319 1.06602C6.01934 0.691565 6.9905 0.499223 7.97112 0.500003H7.97152H7.97155H7.97158H7.97161H7.97164H7.97167H7.9717H7.97173H7.97176H7.97178H7.97181H7.97184H7.97187H7.9719H7.97193H7.97195H7.97198H7.97201H7.97204H7.97207H7.97209H7.97212H7.97215H7.97218H7.9722H7.97223H7.97226H7.97228H7.97231H7.97234H7.97236H7.97239H7.97242H7.97244H7.97247H7.97249H7.97252H7.97255H7.97257H7.9726H7.97262H7.97265H7.97267H7.9727H7.97273H7.97275H7.97278H7.9728H7.97283H7.97285H7.97288H7.9729H7.97292H7.97295H7.97297H7.973H7.97302H7.97305H7.97307H7.97309H7.97312H7.97314H7.97317H7.97319H7.97321H7.97324H7.97326H7.97328H7.97331H7.97333H7.97335H7.97338H7.9734H7.97342H7.97345H7.97347H7.97349H7.97352H7.97354H7.97356H7.97358H7.97361H7.97363H7.97365H7.97367H7.9737H7.97372H7.97374H7.97376H7.97378H7.97381H7.97383H7.97385H7.97387H7.97389H7.97392H7.97394H7.97396H7.97398H7.974H7.97402H7.97405H7.97407H7.97409H7.97411H7.97413H7.97415H7.97417H7.97419H7.97422H7.97424H7.97426H7.97428H7.9743H7.97432H7.97434H7.97436H7.97438H7.9744H7.97442H7.97444H7.97447H7.97449H7.97451H7.97453H7.97455H7.97457H7.97459H7.97461H7.97463H7.97465H7.97467H7.97469H7.97471H7.97473H7.97475H7.97477H7.97479H7.97481H7.97483H7.97485H7.97487H7.97489H7.97491H7.97493H7.97495H7.97497H7.97499H7.97501H7.97503H7.97505H7.97507H7.97509H7.97511H7.97513H7.97515H7.97517H7.97519H7.97521H7.97523H7.97525H7.97527H7.97529H7.97531H7.97533H7.97535H7.97537H7.97539H7.97541H7.97543H7.97545H7.97547H7.97549H7.97551H7.97553H7.97555H7.97557H7.97559H7.97561H7.97563H7.97565H7.97567H7.97569H7.97571H7.97573H7.97575H7.97577H7.97579H7.9758H7.97582H7.97584H7.97586H7.97588H7.9759H7.97592H7.97594H7.97596H7.97598H7.976H7.97602H7.97604H7.97606H7.97608H7.9761H7.97612H7.97615H7.97617H7.97619H7.97621H7.97623H7.97625H7.97627H7.97629H7.97631H7.97633H7.97635H7.97637H7.97639H7.97641H7.97643H7.97645H7.97647H7.97649H7.97651H7.97653H7.97655H7.97657H7.9766H7.97662H7.97664H7.97666H7.97668H7.9767H7.97672H7.97674H7.97676H7.97679H7.97681H7.97683H7.97685H7.97687H7.97689H7.97691H7.97693H7.97696H7.97698H7.977H7.97702H7.97704H7.97707H7.97709H7.97711H7.97713H7.97715H7.97718H7.9772H7.97722H7.97724H7.97726H7.97729H7.97731H7.97733H7.97735H7.97738H7.9774H7.97742H7.97745H7.97747H7.97749H7.97751H7.97754H7.97756H7.97758H7.97761H7.97763H7.97765H7.97768H7.9777H7.97772H7.97775H7.97777H7.9778H7.97782H7.97784H7.97787H7.97789H7.97792H7.97794H7.97796H7.97799H7.97801H7.97804H7.97806H7.97809H7.97811H7.97814H7.97816H7.97819H7.97821H7.97824H7.97826H7.97829H7.97832H7.97834H7.97837H7.97839H7.97842H7.97844H7.97847H7.9785H7.97852H7.97855H7.97858H7.9786H7.97863H7.97866H7.97868H7.97871H7.97874H7.97876H7.97879H7.97882H7.97885H7.97887H7.9789H7.97893H7.97896H7.97899H7.97901H7.97904H7.97907H7.9791H7.97913H7.97916H7.97919H7.97921H7.97924H7.97927H7.9793H7.97933H7.97936H7.97939H7.97942H7.97945H7.97948H7.97951H7.97954H7.97957H7.9796H7.97963H7.97966H7.97969H7.97972H7.97975H7.97979H7.97982H7.97985H7.97988H7.97991H7.97994H7.97997H7.98001H7.98004H7.98007H7.9801H7.98014H7.98017H7.9802H7.98023H7.98027H7.9803H7.98033H7.98037H7.9804H7.98044H7.98047H7.9805H7.98054H7.98057H7.98061H7.98064H7.98068H7.98071H7.98075H7.98078H7.98082H7.98085H7.98089H7.98092H7.98096H7.98099H7.98103H7.98107H7.9811H7.98114H7.98118H7.98121H7.98125H7.98129H7.98133H7.98136H7.9814H7.98144H7.98148H7.98152H7.98155H7.98159H7.98163H7.98167H7.98171H7.98175H7.98179H7.98183H7.98187H7.98191H7.98195H7.98199H7.98203H7.98207H7.98211H7.98215H7.98219H7.98223H7.98227H7.98231H7.98236H7.9824H7.98244H7.98248H7.98252H7.98257H7.98261H7.98265H7.9827H7.98274H7.98278H7.98283H7.98287H7.98291H7.98296H7.983H7.98305H7.98309H7.98314H7.98318H7.98323H7.98327H7.98332H7.98336H7.98341H7.98346H7.9835H7.98355H7.9836H7.98364H7.98369H7.98374H7.98378H7.98383H7.98388H7.98393H7.98398H7.98403H7.98407H7.98412H7.98417H7.98422H7.98427H7.98432H7.98437H7.98442H7.98447H7.98452H7.98457H7.98462H7.98467H7.98473H7.98478H7.98483H7.98488H7.98493H7.98499H7.98504H7.98509H7.98514H7.9852H7.98525H7.9853H7.98536H7.98541H7.98547H7.98552H7.98558H7.98563H7.98569H7.98574H7.9858H7.98585H7.98591H7.98597H7.98602H7.98608H7.98614H7.98619H7.98625H7.98631H7.98637H7.98642C9.96254 0.502273 11.8569 1.28799 13.2535 2.6845C14.2676 3.69846 14.9591 4.97422 15.2621 6.35265ZM13.5103 6.79222H13.5622H13.5103Z" fill="white" stroke="white"/>
<mask id="path-2-inside-1" fill="white">
<path d="M15.418 14.7788L14.6805 13.9002C14.6805 13.885 14.6805 13.8698 14.6703 13.8546L13.5679 10.4629C13.5354 10.361 13.4709 10.2723 13.3839 10.2101C13.2969 10.1478 13.1921 10.1152 13.0851 10.1173H3.04924C2.94198 10.1172 2.83745 10.1511 2.75069 10.2141C2.66394 10.2771 2.59943 10.366 2.56645 10.468L1.48937 13.8495L0.549142 14.7433C0.500129 14.7907 0.461352 14.8476 0.4352 14.9105C0.409047 14.9735 0.396071 15.0411 0.39708 15.1092V21.5014C0.395735 21.5654 0.407026 21.629 0.430308 21.6887C0.45359 21.7483 0.488412 21.8028 0.532775 21.849C0.577138 21.8952 0.630173 21.9323 0.688859 21.958C0.747545 21.9837 0.810726 21.9976 0.874797 21.9989H3.80573C3.9356 22.0003 4.06076 21.9504 4.15401 21.8601C4.24726 21.7697 4.30106 21.6463 4.30372 21.5166V19.9682H11.6215V21.5014C11.6209 21.5661 11.633 21.6302 11.6571 21.6902C11.6813 21.7502 11.717 21.8049 11.7623 21.8511C11.8076 21.8973 11.8616 21.9341 11.9211 21.9595C11.9807 21.9849 12.0447 21.9983 12.1094 21.9989H15.0416C15.1054 22.0001 15.1688 21.9887 15.2281 21.9653C15.2874 21.9419 15.3416 21.907 15.3874 21.8627C15.4332 21.8183 15.4698 21.7654 15.495 21.7068C15.5203 21.6483 15.5337 21.5854 15.5345 21.5216V15.1092C15.5356 14.9888 15.4943 14.8719 15.418 14.7788ZM3.41925 11.1326H12.7138L13.4868 13.5191H2.66276L3.41925 11.1326ZM3.29254 20.9836H1.41081V19.9708H3.29127L3.29254 20.9836ZM14.5233 20.9836H12.6429V19.9708H14.5233V20.9836ZM14.5233 18.9579H1.41081V15.332L2.25474 14.5395H13.8771L14.5271 15.2991L14.5233 18.9579Z"/>
</mask>
<path d="M15.418 14.7788L14.6805 13.9002C14.6805 13.885 14.6805 13.8698 14.6703 13.8546L13.5679 10.4629C13.5354 10.361 13.4709 10.2723 13.3839 10.2101C13.2969 10.1478 13.1921 10.1152 13.0851 10.1173H3.04924C2.94198 10.1172 2.83745 10.1511 2.75069 10.2141C2.66394 10.2771 2.59943 10.366 2.56645 10.468L1.48937 13.8495L0.549142 14.7433C0.500129 14.7907 0.461352 14.8476 0.4352 14.9105C0.409047 14.9735 0.396071 15.0411 0.39708 15.1092V21.5014C0.395735 21.5654 0.407026 21.629 0.430308 21.6887C0.45359 21.7483 0.488412 21.8028 0.532775 21.849C0.577138 21.8952 0.630173 21.9323 0.688859 21.958C0.747545 21.9837 0.810726 21.9976 0.874797 21.9989H3.80573C3.9356 22.0003 4.06076 21.9504 4.15401 21.8601C4.24726 21.7697 4.30106 21.6463 4.30372 21.5166V19.9682H11.6215V21.5014C11.6209 21.5661 11.633 21.6302 11.6571 21.6902C11.6813 21.7502 11.717 21.8049 11.7623 21.8511C11.8076 21.8973 11.8616 21.9341 11.9211 21.9595C11.9807 21.9849 12.0447 21.9983 12.1094 21.9989H15.0416C15.1054 22.0001 15.1688 21.9887 15.2281 21.9653C15.2874 21.9419 15.3416 21.907 15.3874 21.8627C15.4332 21.8183 15.4698 21.7654 15.495 21.7068C15.5203 21.6483 15.5337 21.5854 15.5345 21.5216V15.1092C15.5356 14.9888 15.4943 14.8719 15.418 14.7788ZM3.41925 11.1326H12.7138L13.4868 13.5191H2.66276L3.41925 11.1326ZM3.29254 20.9836H1.41081V19.9708H3.29127L3.29254 20.9836ZM14.5233 20.9836H12.6429V19.9708H14.5233V20.9836ZM14.5233 18.9579H1.41081V15.332L2.25474 14.5395H13.8771L14.5271 15.2991L14.5233 18.9579Z" fill="white"/>
<path d="M14.6805 13.9002H13.6805V14.2642L13.9145 14.5431L14.6805 13.9002ZM14.6703 13.8546L13.7193 14.1637L13.7619 14.2949L13.8385 14.4096L14.6703 13.8546ZM13.5679 10.4629L12.6151 10.7666L12.6169 10.772L13.5679 10.4629ZM13.0851 10.1173V11.1173H13.0946L13.1042 11.1171L13.0851 10.1173ZM3.04924 10.1173L3.04829 11.1173H3.04924V10.1173ZM2.56645 10.468L1.61497 10.1602L1.61362 10.1645L2.56645 10.468ZM1.48937 13.8495L2.17836 14.5743L2.36433 14.3975L2.4422 14.153L1.48937 13.8495ZM0.549142 14.7433L-0.139878 14.0186L-0.145859 14.0243L0.549142 14.7433ZM0.39708 15.1092H1.39708V15.1018L1.39697 15.0944L0.39708 15.1092ZM0.39708 21.5014L1.39686 21.5224L1.39708 21.5119V21.5014H0.39708ZM0.874797 21.9989L0.854256 22.9987L0.864525 22.9989H0.874797V21.9989ZM3.80573 21.9989L3.81622 20.9989H3.80573V21.9989ZM4.30372 21.5166L5.30351 21.5371L5.30372 21.5268V21.5166H4.30372ZM4.30372 19.9682V18.9682H3.30372V19.9682H4.30372ZM11.6215 19.9682H12.6215V18.9682H11.6215V19.9682ZM11.6215 21.5014L12.6215 21.5117V21.5014H11.6215ZM12.1094 21.9989L12.0992 22.9989H12.1094V21.9989ZM15.0416 21.9989L15.06 20.9991L15.0508 20.9989H15.0416V21.9989ZM15.5345 21.5216L16.5345 21.5346V21.5216H15.5345ZM15.5345 15.1092L14.5345 15.1003V15.1092H15.5345ZM3.41925 11.1326V10.1326H2.6872L2.466 10.8305L3.41925 11.1326ZM12.7138 11.1326L13.6652 10.8245L13.4411 10.1326H12.7138V11.1326ZM13.4868 13.5191V14.5191H14.8618L14.4381 13.2109L13.4868 13.5191ZM2.66276 13.5191L1.70951 13.2169L1.29672 14.5191H2.66276V13.5191ZM3.29254 20.9836V21.9836H4.29379L4.29254 20.9823L3.29254 20.9836ZM1.41081 20.9836H0.410809V21.9836H1.41081V20.9836ZM1.41081 19.9708V18.9708H0.410809V19.9708H1.41081ZM3.29127 19.9708L4.29127 19.9695L4.29002 18.9708H3.29127V19.9708ZM14.5233 20.9836V21.9836H15.5233V20.9836H14.5233ZM12.6429 20.9836H11.6429V21.9836H12.6429V20.9836ZM12.6429 19.9708V18.9708H11.6429V19.9708H12.6429ZM14.5233 19.9708H15.5233V18.9708H14.5233V19.9708ZM14.5233 18.9579V19.9579H15.5223L15.5233 18.959L14.5233 18.9579ZM1.41081 18.9579H0.410809V19.9579H1.41081V18.9579ZM1.41081 15.332L0.726243 14.6031L0.410809 14.8993V15.332H1.41081ZM2.25474 14.5395V13.5395H1.85879L1.57017 13.8105L2.25474 14.5395ZM13.8771 14.5395L14.6369 13.8893L14.3375 13.5395H13.8771V14.5395ZM14.5271 15.2991L15.5271 15.3002L15.5275 14.9301L15.2869 14.6489L14.5271 15.2991ZM16.1839 14.1359L15.4464 13.2573L13.9145 14.5431L14.652 15.4217L16.1839 14.1359ZM15.6805 13.9002C15.6805 13.8998 15.6806 13.8751 15.6794 13.847C15.6782 13.8163 15.675 13.7692 15.6656 13.7128C15.6452 13.5905 15.5987 13.4443 15.5021 13.2995L13.8385 14.4096C13.6608 14.1433 13.6805 13.8654 13.6805 13.9002H15.6805ZM15.6213 13.5455L14.5189 10.1538L12.6169 10.772L13.7193 14.1637L15.6213 13.5455ZM14.5207 10.1593C14.4228 9.85194 14.2281 9.5846 13.966 9.39695L12.8018 11.0232C12.7137 10.9601 12.6481 10.8701 12.6151 10.7666L14.5207 10.1593ZM13.966 9.39695C13.7039 9.20932 13.3883 9.11132 13.0661 9.11746L13.1042 11.1171C12.9959 11.1192 12.8899 11.0862 12.8018 11.0232L13.966 9.39695ZM13.0851 9.11728H3.04924V11.1173H13.0851V9.11728ZM3.05019 9.11728C2.73148 9.11698 2.42085 9.21772 2.16299 9.40502L3.3384 11.0232C3.25404 11.0844 3.15248 11.1174 3.04829 11.1173L3.05019 9.11728ZM2.16299 9.40502C1.90507 9.59237 1.71314 9.85675 1.61498 10.1602L3.51792 10.7757C3.48572 10.8753 3.42281 10.9619 3.3384 11.0232L2.16299 9.40502ZM1.61362 10.1645L0.536535 13.546L2.4422 14.153L3.51928 10.7715L1.61362 10.1645ZM0.800371 13.1248L-0.139854 14.0186L1.23814 15.4681L2.17836 14.5743L0.800371 13.1248ZM-0.145859 14.0243C-0.293038 14.1666 -0.409594 14.3376 -0.488228 14.5268L1.35863 15.2943C1.3323 15.3577 1.2933 15.4148 1.24414 15.4623L-0.145859 14.0243ZM-0.488228 14.5268C-0.56683 14.7159 -0.605846 14.9192 -0.60281 15.124L1.39697 15.0944C1.39799 15.163 1.38492 15.231 1.35863 15.2943L-0.488228 14.5268ZM-0.60292 15.1092V21.5014H1.39708V15.1092H-0.60292ZM-0.602699 21.4804C-0.606807 21.6758 -0.572324 21.8702 -0.501252 22.0523L1.36187 21.3251C1.38638 21.3879 1.39828 21.4549 1.39686 21.5224L-0.602699 21.4804ZM-0.501252 22.0523C-0.430158 22.2344 -0.323868 22.4007 -0.18856 22.5416L1.25411 21.1564C1.30069 21.205 1.33734 21.2622 1.36187 21.3251L-0.501252 22.0523ZM-0.18856 22.5416C-0.0533032 22.6825 0.10843 22.7954 0.287464 22.8739L1.09025 21.0421C1.15192 21.0691 1.20758 21.108 1.25411 21.1564L-0.18856 22.5416ZM0.287464 22.8739C0.466348 22.9523 0.658939 22.9947 0.854256 22.9987L0.895337 20.9991C0.962514 21.0005 1.02874 21.0151 1.09025 21.0421L0.287464 22.8739ZM0.874797 22.9989H3.80573V20.9989H0.874797V22.9989ZM3.79525 22.9989C4.18838 23.003 4.56732 22.8519 4.84975 22.5783L3.45827 21.1418C3.5542 21.0488 3.68282 20.9976 3.81622 20.999L3.79525 22.9989ZM4.84975 22.5783C5.13227 22.3047 5.29543 21.9305 5.30351 21.5371L3.30393 21.496C3.30668 21.3621 3.36224 21.2348 3.45827 21.1418L4.84975 22.5783ZM5.30372 21.5166V19.9682H3.30372V21.5166H5.30372ZM4.30372 20.9682H11.6215V18.9682H4.30372V20.9682ZM10.6215 19.9682V21.5014H12.6215V19.9682H10.6215ZM10.6216 21.491C10.6196 21.6872 10.6562 21.8818 10.7295 22.0637L12.5848 21.3168C12.6097 21.3787 12.6222 21.4449 12.6215 21.5117L10.6216 21.491ZM10.7295 22.0637C10.8027 22.2455 10.911 22.4112 11.0483 22.5512L12.4764 21.151C12.5231 21.1986 12.5599 21.255 12.5848 21.3168L10.7295 22.0637ZM11.0483 22.5512C11.1856 22.6912 11.349 22.8028 11.5293 22.8795L12.313 21.0395C12.3741 21.0655 12.4297 21.1034 12.4764 21.151L11.0483 22.5512ZM11.5293 22.8795C11.7095 22.9563 11.9032 22.9969 12.0992 22.9989L12.1196 20.999C12.1862 20.9997 12.2519 21.0134 12.313 21.0395L11.5293 22.8795ZM12.1094 22.9989H15.0416V20.9989H12.1094V22.9989ZM15.0232 22.9988C15.2187 23.0024 15.4129 22.9673 15.5947 22.8957L14.8615 21.0349C14.9246 21.01 14.9921 20.9979 15.06 20.9991L15.0232 22.9988ZM15.5947 22.8957C15.7766 22.824 15.9426 22.7171 16.083 22.5811L14.6918 21.1443C14.7406 21.097 14.7983 21.0598 14.8615 21.0349L15.5947 22.8957ZM16.083 22.5811C16.2235 22.4451 16.3357 22.2826 16.4132 22.103L14.5768 21.3107C14.6038 21.2481 14.6429 21.1915 14.6918 21.1443L16.083 22.5811ZM16.4132 22.103C16.4907 21.9233 16.5319 21.7301 16.5344 21.5346L14.5346 21.5087C14.5355 21.4406 14.5498 21.3733 14.5768 21.3107L16.4132 22.103ZM16.5345 21.5216V15.1092H14.5345V21.5216H16.5345ZM16.5345 15.1181C16.5376 14.7633 16.4161 14.4187 16.191 14.1445L14.6449 15.4131C14.5726 15.3251 14.5335 15.2144 14.5346 15.1003L16.5345 15.1181ZM3.41925 12.1326H12.7138V10.1326H3.41925V12.1326ZM11.7625 11.4408L12.5355 13.8272L14.4381 13.2109L13.6652 10.8245L11.7625 11.4408ZM13.4868 12.5191H2.66276V14.5191H13.4868V12.5191ZM3.61601 13.8213L4.3725 11.4348L2.466 10.8305L1.70951 13.2169L3.61601 13.8213ZM3.29254 19.9836H1.41081V21.9836H3.29254V19.9836ZM2.41081 20.9836V19.9708H0.410809V20.9836H2.41081ZM1.41081 20.9708H3.29127V18.9708H1.41081V20.9708ZM2.29127 19.972L2.29254 20.9848L4.29254 20.9823L4.29127 19.9695L2.29127 19.972ZM14.5233 19.9836H12.6429V21.9836H14.5233V19.9836ZM13.6429 20.9836V19.9708H11.6429V20.9836H13.6429ZM12.6429 20.9708H14.5233V18.9708H12.6429V20.9708ZM13.5233 19.9708V20.9836H15.5233V19.9708H13.5233ZM14.5233 17.9579H1.41081V19.9579H14.5233V17.9579ZM2.41081 18.9579V15.332H0.410809V18.9579H2.41081ZM2.09537 16.061L2.9393 15.2684L1.57017 13.8105L0.726243 14.6031L2.09537 16.061ZM2.25474 15.5395H13.8771V13.5395H2.25474V15.5395ZM13.1173 15.1897L13.7674 15.9493L15.2869 14.6489L14.6369 13.8893L13.1173 15.1897ZM13.5271 15.2981L13.5233 18.9569L15.5233 18.959L15.5271 15.3002L13.5271 15.2981Z" fill="white" mask="url(#path-2-inside-1)"/>
<path d="M4.87331 16.315V16.315V17.8342C4.87331 17.8358 4.8727 17.8374 4.87145 17.8386C4.8702 17.8399 4.86841 17.8406 4.86644 17.8406H2.62991C2.62794 17.8406 2.62615 17.8399 2.6249 17.8386C2.62366 17.8374 2.62305 17.8358 2.62305 17.8342V16.315C2.62305 16.3134 2.62368 16.3118 2.6249 16.3106C2.62615 16.3094 2.62794 16.3086 2.62991 16.3086H4.86674C4.86852 16.3087 4.87023 16.3094 4.87147 16.3107C4.8727 16.3119 4.87331 16.3135 4.87331 16.315ZM4.36211 17.781H4.86765L4.86208 17.2755L4.85701 16.8159L4.85156 16.3214H4.35704H3.13678H2.63678V16.8214V17.281V17.781H3.13678H4.36211Z" fill="white" stroke="white"/>
<path d="M13.3089 16.315V16.315V17.8342C13.3089 17.8358 13.3082 17.8374 13.307 17.8386C13.3057 17.8399 13.304 17.8406 13.302 17.8406H11.0654C11.0635 17.8406 11.0617 17.8399 11.0604 17.8386C11.0592 17.8374 11.0586 17.8358 11.0586 17.8342V16.315C11.0586 16.3134 11.0592 16.3118 11.0604 16.3106C11.0617 16.3094 11.0635 16.3086 11.0654 16.3086H13.3023C13.3041 16.3087 13.3058 16.3094 13.307 16.3107C13.3083 16.3119 13.3089 16.3135 13.3089 16.315ZM12.7977 17.781H13.3032L13.2976 17.2755L13.2926 16.8159L13.2871 16.3214H12.7926H11.5723H11.0723V16.8214V17.281V17.781H11.5723H12.7977Z" fill="white" stroke="white"/>
</svg>
