<svg width="23" height="18" viewBox="0 0 23 18" fill="none" xmlns="http://www.w3.org/2000/svg">
<mask id="path-1-inside-1" fill="white">
<path d="M16.1484 10.9961H14.6802V11.7328H16.1484V10.9961Z"/>
</mask>
<path d="M16.1484 10.9961H14.6802V11.7328H16.1484V10.9961Z" fill="#D5CBF2"/>
<path d="M14.6802 10.9961V9.99609H13.6802V10.9961H14.6802ZM16.1484 10.9961H17.1484V9.99609H16.1484V10.9961ZM16.1484 11.7328V12.7328H17.1484V11.7328H16.1484ZM14.6802 11.7328H13.6802V12.7328H14.6802V11.7328ZM14.6802 11.9961H16.1484V9.99609H14.6802V11.9961ZM15.1484 10.9961V11.7328H17.1484V10.9961H15.1484ZM16.1484 10.7328H14.6802V12.7328H16.1484V10.7328ZM15.6802 11.7328V10.9961H13.6802V11.7328H15.6802Z" fill="#D5CBF2" mask="url(#path-1-inside-1)"/>
<mask id="path-3-inside-2" fill="white">
<path d="M21.7654 9.36775L19.9816 6.04967C19.8872 5.87415 19.7472 5.72758 19.5765 5.62549C19.4058 5.5234 19.2108 5.4696 19.0122 5.46979H13.9893L2.37841 0.034485C2.29013 -0.00680489 2.18914 -0.0111956 2.09763 0.0222784C2.00613 0.0557523 1.93161 0.124351 1.89045 0.212993L1.27107 1.55126C1.25055 1.59522 1.23886 1.64281 1.23669 1.69132C1.23452 1.73982 1.2419 1.78827 1.25841 1.8339C1.27493 1.87953 1.30024 1.92144 1.33292 1.95723C1.36559 1.99301 1.40497 2.02197 1.44881 2.04243L1.46819 2.05V3.99736C1.46819 4.09521 1.50689 4.18904 1.57578 4.25823C1.64466 4.32741 1.73809 4.36628 1.83551 4.36628C1.90816 4.36628 1.97918 4.38792 2.03958 4.42845C2.09999 4.46899 2.14707 4.52661 2.17487 4.59402C2.20267 4.66143 2.20994 4.73561 2.19577 4.80717C2.1816 4.87873 2.14661 4.94447 2.09524 4.99606C2.04387 5.04766 1.97842 5.08279 1.90717 5.09703C1.83592 5.11126 1.76206 5.10396 1.69495 5.07603C1.62783 5.04811 1.57046 5.00082 1.5301 4.94016C1.48974 4.87949 1.46819 4.80816 1.46819 4.7352H0.733559C0.733671 4.93786 0.789241 5.13659 0.894196 5.30968C0.999151 5.48277 1.14945 5.62356 1.32868 5.71667C1.50791 5.80977 1.70917 5.85161 1.91048 5.83761C2.11178 5.82361 2.30538 5.75432 2.47012 5.63729C2.63486 5.52027 2.76441 5.36002 2.84462 5.17405C2.92482 4.98809 2.95259 4.78356 2.92489 4.58281C2.89719 4.38207 2.81509 4.19283 2.68756 4.03578C2.56003 3.87873 2.39197 3.7599 2.20175 3.69228V2.39404L11.7412 6.8589V12.1027H0.367319C0.318992 12.1027 0.271139 12.1123 0.226503 12.1309C0.181868 12.1495 0.141328 12.1768 0.107205 12.2111C0.0730821 12.2455 0.0460482 12.2863 0.0276523 12.3312C0.00925629 12.3761 -0.000140144 12.4242 1.57957e-06 12.4727V15.4219C1.57957e-06 15.6173 0.0772869 15.8047 0.214856 15.9428C0.352424 16.081 0.539008 16.1586 0.733559 16.1586H1.50051C1.58706 16.6735 1.85239 17.1409 2.24942 17.478C2.64646 17.8151 3.14953 18 3.66941 18C4.18928 18 4.69236 17.8151 5.08939 17.478C5.48642 17.1409 5.75175 16.6735 5.8383 16.1586H15.0805C15.167 16.6735 15.4324 17.1409 15.8294 17.478C16.2264 17.8151 16.7295 18 17.2494 18C17.7693 18 18.2723 17.8151 18.6694 17.478C19.0664 17.1409 19.3317 16.6735 19.4183 16.1586H20.9188C21.2108 16.1586 21.4908 16.0421 21.6972 15.8348C21.9037 15.6274 22.0197 15.3462 22.0197 15.053V10.3014C22.02 9.9729 21.9322 9.65038 21.7654 9.36775ZM19.3353 6.40019L21.0157 9.52354H15.4144V6.20978H19.0122C19.0784 6.20979 19.1434 6.2278 19.2003 6.26189C19.2572 6.29598 19.3039 6.34489 19.3353 6.40344V6.40019ZM2.40103 0.858868L13.2105 5.91876V6.73449L2.09188 1.52854L2.40103 0.858868ZM12.4769 7.20402L13.2105 7.54805V12.1049H12.4769V7.20402ZM3.66887 17.2654C3.37853 17.2652 3.09478 17.1785 2.85348 17.0163C2.61218 16.8542 2.42416 16.6238 2.3132 16.3543C2.20224 16.0849 2.17332 15.7884 2.23009 15.5025C2.28687 15.2165 2.42678 14.9538 2.63216 14.7477C2.83753 14.5416 3.09914 14.4013 3.38391 14.3445C3.66868 14.2877 3.96383 14.3169 4.23205 14.4286C4.50026 14.5402 4.7295 14.7292 4.89078 14.9717C5.05206 15.2141 5.13814 15.4992 5.13814 15.7908C5.13785 16.1817 4.98304 16.5565 4.70773 16.8328C4.43243 17.1091 4.05915 17.2643 3.66995 17.2643L3.66887 17.2654ZM3.66887 13.5795C3.14963 13.5804 2.64739 13.7654 2.25069 14.1018C1.85399 14.4383 1.58832 14.9047 1.50051 15.4186H0.733559V12.8416H13.2116V15.4219H5.8383C5.75141 14.9071 5.48612 14.4397 5.08934 14.1024C4.69255 13.7651 4.1898 13.5795 3.66995 13.5784L3.66887 13.5795ZM17.2478 17.2654C16.9574 17.2654 16.6735 17.1789 16.4321 17.0169C16.1906 16.8548 16.0025 16.6245 15.8913 16.3551C15.7802 16.0857 15.7511 15.7892 15.8078 15.5031C15.8644 15.2171 16.0043 14.9543 16.2096 14.7481C16.4149 14.5419 16.6765 14.4014 16.9613 14.3445C17.2461 14.2877 17.5413 14.3169 17.8096 14.4285C18.0779 14.5401 18.3072 14.7291 18.4685 14.9716C18.6299 15.2141 18.716 15.4992 18.716 15.7908C18.7157 16.1817 18.5609 16.5565 18.2856 16.8328C18.0102 17.1091 17.637 17.2643 17.2478 17.2643V17.2654ZM20.9177 15.4262H19.4172C19.3306 14.9114 19.0653 14.4439 18.6683 14.1069C18.2713 13.7698 17.7682 13.5848 17.2483 13.5848C16.7284 13.5848 16.2254 13.7698 15.8283 14.1069C15.4313 14.4439 15.166 14.9114 15.0794 15.4262H13.9451V6.20978H14.6787V9.88813C14.6787 9.93658 14.6882 9.98455 14.7067 10.0293C14.7251 10.0741 14.7522 10.1147 14.7863 10.149C14.8204 10.1833 14.8609 10.2104 14.9054 10.229C14.95 10.2475 14.9978 10.257 15.046 10.257H21.2796C21.2796 10.27 21.285 10.283 21.285 10.2971V10.9949H19.8201C19.6255 10.9949 19.4389 11.0725 19.3014 11.2107C19.1638 11.3488 19.0865 11.5362 19.0865 11.7316V12.4684C19.0865 12.6638 19.1638 12.8512 19.3014 12.9893C19.4389 13.1275 19.6255 13.2051 19.8201 13.2051H21.285V13.9419H20.1842V14.6786H21.285V15.0476C21.2857 15.0965 21.2768 15.145 21.2586 15.1904C21.2405 15.2358 21.2135 15.2771 21.1794 15.3119C21.1452 15.3468 21.1045 15.3744 21.0595 15.3933C21.0146 15.4122 20.9664 15.4219 20.9177 15.4219V15.4262ZM21.285 11.7403V12.477H19.8201V11.7403H21.285Z"/>
</mask>
<path d="M21.7654 9.36775L19.9816 6.04967C19.8872 5.87415 19.7472 5.72758 19.5765 5.62549C19.4058 5.5234 19.2108 5.4696 19.0122 5.46979H13.9893L2.37841 0.034485C2.29013 -0.00680489 2.18914 -0.0111956 2.09763 0.0222784C2.00613 0.0557523 1.93161 0.124351 1.89045 0.212993L1.27107 1.55126C1.25055 1.59522 1.23886 1.64281 1.23669 1.69132C1.23452 1.73982 1.2419 1.78827 1.25841 1.8339C1.27493 1.87953 1.30024 1.92144 1.33292 1.95723C1.36559 1.99301 1.40497 2.02197 1.44881 2.04243L1.46819 2.05V3.99736C1.46819 4.09521 1.50689 4.18904 1.57578 4.25823C1.64466 4.32741 1.73809 4.36628 1.83551 4.36628C1.90816 4.36628 1.97918 4.38792 2.03958 4.42845C2.09999 4.46899 2.14707 4.52661 2.17487 4.59402C2.20267 4.66143 2.20994 4.73561 2.19577 4.80717C2.1816 4.87873 2.14661 4.94447 2.09524 4.99606C2.04387 5.04766 1.97842 5.08279 1.90717 5.09703C1.83592 5.11126 1.76206 5.10396 1.69495 5.07603C1.62783 5.04811 1.57046 5.00082 1.5301 4.94016C1.48974 4.87949 1.46819 4.80816 1.46819 4.7352H0.733559C0.733671 4.93786 0.789241 5.13659 0.894196 5.30968C0.999151 5.48277 1.14945 5.62356 1.32868 5.71667C1.50791 5.80977 1.70917 5.85161 1.91048 5.83761C2.11178 5.82361 2.30538 5.75432 2.47012 5.63729C2.63486 5.52027 2.76441 5.36002 2.84462 5.17405C2.92482 4.98809 2.95259 4.78356 2.92489 4.58281C2.89719 4.38207 2.81509 4.19283 2.68756 4.03578C2.56003 3.87873 2.39197 3.7599 2.20175 3.69228V2.39404L11.7412 6.8589V12.1027H0.367319C0.318992 12.1027 0.271139 12.1123 0.226503 12.1309C0.181868 12.1495 0.141328 12.1768 0.107205 12.2111C0.0730821 12.2455 0.0460482 12.2863 0.0276523 12.3312C0.00925629 12.3761 -0.000140144 12.4242 1.57957e-06 12.4727V15.4219C1.57957e-06 15.6173 0.0772869 15.8047 0.214856 15.9428C0.352424 16.081 0.539008 16.1586 0.733559 16.1586H1.50051C1.58706 16.6735 1.85239 17.1409 2.24942 17.478C2.64646 17.8151 3.14953 18 3.66941 18C4.18928 18 4.69236 17.8151 5.08939 17.478C5.48642 17.1409 5.75175 16.6735 5.8383 16.1586H15.0805C15.167 16.6735 15.4324 17.1409 15.8294 17.478C16.2264 17.8151 16.7295 18 17.2494 18C17.7693 18 18.2723 17.8151 18.6694 17.478C19.0664 17.1409 19.3317 16.6735 19.4183 16.1586H20.9188C21.2108 16.1586 21.4908 16.0421 21.6972 15.8348C21.9037 15.6274 22.0197 15.3462 22.0197 15.053V10.3014C22.02 9.9729 21.9322 9.65038 21.7654 9.36775ZM19.3353 6.40019L21.0157 9.52354H15.4144V6.20978H19.0122C19.0784 6.20979 19.1434 6.2278 19.2003 6.26189C19.2572 6.29598 19.3039 6.34489 19.3353 6.40344V6.40019ZM2.40103 0.858868L13.2105 5.91876V6.73449L2.09188 1.52854L2.40103 0.858868ZM12.4769 7.20402L13.2105 7.54805V12.1049H12.4769V7.20402ZM3.66887 17.2654C3.37853 17.2652 3.09478 17.1785 2.85348 17.0163C2.61218 16.8542 2.42416 16.6238 2.3132 16.3543C2.20224 16.0849 2.17332 15.7884 2.23009 15.5025C2.28687 15.2165 2.42678 14.9538 2.63216 14.7477C2.83753 14.5416 3.09914 14.4013 3.38391 14.3445C3.66868 14.2877 3.96383 14.3169 4.23205 14.4286C4.50026 14.5402 4.7295 14.7292 4.89078 14.9717C5.05206 15.2141 5.13814 15.4992 5.13814 15.7908C5.13785 16.1817 4.98304 16.5565 4.70773 16.8328C4.43243 17.1091 4.05915 17.2643 3.66995 17.2643L3.66887 17.2654ZM3.66887 13.5795C3.14963 13.5804 2.64739 13.7654 2.25069 14.1018C1.85399 14.4383 1.58832 14.9047 1.50051 15.4186H0.733559V12.8416H13.2116V15.4219H5.8383C5.75141 14.9071 5.48612 14.4397 5.08934 14.1024C4.69255 13.7651 4.1898 13.5795 3.66995 13.5784L3.66887 13.5795ZM17.2478 17.2654C16.9574 17.2654 16.6735 17.1789 16.4321 17.0169C16.1906 16.8548 16.0025 16.6245 15.8913 16.3551C15.7802 16.0857 15.7511 15.7892 15.8078 15.5031C15.8644 15.2171 16.0043 14.9543 16.2096 14.7481C16.4149 14.5419 16.6765 14.4014 16.9613 14.3445C17.2461 14.2877 17.5413 14.3169 17.8096 14.4285C18.0779 14.5401 18.3072 14.7291 18.4685 14.9716C18.6299 15.2141 18.716 15.4992 18.716 15.7908C18.7157 16.1817 18.5609 16.5565 18.2856 16.8328C18.0102 17.1091 17.637 17.2643 17.2478 17.2643V17.2654ZM20.9177 15.4262H19.4172C19.3306 14.9114 19.0653 14.4439 18.6683 14.1069C18.2713 13.7698 17.7682 13.5848 17.2483 13.5848C16.7284 13.5848 16.2254 13.7698 15.8283 14.1069C15.4313 14.4439 15.166 14.9114 15.0794 15.4262H13.9451V6.20978H14.6787V9.88813C14.6787 9.93658 14.6882 9.98455 14.7067 10.0293C14.7251 10.0741 14.7522 10.1147 14.7863 10.149C14.8204 10.1833 14.8609 10.2104 14.9054 10.229C14.95 10.2475 14.9978 10.257 15.046 10.257H21.2796C21.2796 10.27 21.285 10.283 21.285 10.2971V10.9949H19.8201C19.6255 10.9949 19.4389 11.0725 19.3014 11.2107C19.1638 11.3488 19.0865 11.5362 19.0865 11.7316V12.4684C19.0865 12.6638 19.1638 12.8512 19.3014 12.9893C19.4389 13.1275 19.6255 13.2051 19.8201 13.2051H21.285V13.9419H20.1842V14.6786H21.285V15.0476C21.2857 15.0965 21.2768 15.145 21.2586 15.1904C21.2405 15.2358 21.2135 15.2771 21.1794 15.3119C21.1452 15.3468 21.1045 15.3744 21.0595 15.3933C21.0146 15.4122 20.9664 15.4219 20.9177 15.4219V15.4262ZM21.285 11.7403V12.477H19.8201V11.7403H21.285Z" fill="#D5CBF2" stroke="#D5CBF2" stroke-width="2" mask="url(#path-3-inside-2)"/>
<mask id="path-4-inside-3" fill="white">
<path d="M3.23153 11.3675H7.77399C7.8487 11.5831 7.98835 11.7699 8.17355 11.9021C8.35875 12.0343 8.58033 12.1053 8.80754 12.1053C9.03475 12.1053 9.25633 12.0343 9.44153 11.9021C9.62673 11.7699 9.76638 11.5831 9.84109 11.3675H10.6425C10.7399 11.3675 10.8334 11.3287 10.9022 11.2595C10.9711 11.1903 11.0098 11.0965 11.0098 10.9986V9.52404C11.0098 9.42623 10.971 9.33244 10.9021 9.26331L10.1718 8.52656C10.1376 8.49217 10.0969 8.4649 10.0522 8.44634C10.0075 8.42777 9.95952 8.41827 9.91111 8.41838H9.31005L6.84439 6.29575C6.77778 6.23846 6.69295 6.20699 6.60525 6.20704H3.38988C3.18529 6.20631 2.98459 6.2632 2.81057 6.37125C2.63654 6.47929 2.49615 6.63417 2.40534 6.81829L1.60823 8.41838H0.733559C0.637136 8.41838 0.541659 8.43747 0.452589 8.47456C0.36352 8.51165 0.282605 8.56602 0.214474 8.63455C0.146343 8.70308 0.0923313 8.78442 0.05553 8.87393C0.0187286 8.96345 -0.000140799 9.05937 7.90956e-07 9.15621V10.9954C7.90956e-07 11.0932 0.0387003 11.1871 0.107586 11.2562C0.176471 11.3254 0.2699 11.3643 0.367318 11.3643H1.16874C1.24402 11.5784 1.38349 11.7639 1.56797 11.8952C1.75245 12.0265 1.97289 12.0971 2.19899 12.0975C2.4251 12.0979 2.64576 12.0279 2.83065 11.8972C3.01554 11.7665 3.15559 11.5814 3.23153 11.3675ZM8.80377 11.3675C8.73112 11.3675 8.66011 11.3459 8.5997 11.3054C8.5393 11.2648 8.49222 11.2072 8.46441 11.1398C8.43661 11.0724 8.42934 10.9982 8.44351 10.9267C8.45769 10.8551 8.49267 10.7894 8.54404 10.7378C8.59541 10.6862 8.66086 10.651 8.73211 10.6368C8.80336 10.6226 8.87722 10.6299 8.94434 10.6578C9.01146 10.6857 9.06882 10.733 9.10919 10.7937C9.14955 10.8543 9.17109 10.9257 9.17109 10.9986C9.1711 11.0957 9.13299 11.1889 9.06503 11.258C8.99708 11.327 8.90475 11.3664 8.80808 11.3675H8.80377ZM8.18655 8.41838H5.50438V6.94379H6.47384L8.18655 8.41838ZM3.06134 7.14826C3.09131 7.08775 3.13735 7.03672 3.19438 7.00083C3.25141 6.96494 3.3172 6.94557 3.38449 6.94487H4.77082V8.41946H2.42904L3.06134 7.14826ZM0.733559 9.15621H9.75923L10.2752 9.67659V10.6297H9.84433C9.76961 10.4142 9.62997 10.2274 9.44476 10.0952C9.25956 9.963 9.03798 9.89197 8.81077 9.89197C8.58356 9.89197 8.36199 9.963 8.17678 10.0952C7.99158 10.2274 7.85194 10.4142 7.77722 10.6297H3.23153C3.15682 10.4142 3.01717 10.2274 2.83197 10.0952C2.64677 9.963 2.42519 9.89197 2.19798 9.89197C1.97077 9.89197 1.74919 9.963 1.56399 10.0952C1.37879 10.2274 1.23914 10.4142 1.16443 10.6297H0.733559V9.15621ZM2.20175 11.3675C2.1291 11.3675 2.05809 11.3459 1.99768 11.3054C1.93728 11.2648 1.8902 11.2072 1.86239 11.1398C1.83459 11.0724 1.82732 10.9982 1.84149 10.9267C1.85566 10.8551 1.89065 10.7894 1.94202 10.7378C1.99339 10.6862 2.05884 10.651 2.13009 10.6368C2.20134 10.6226 2.2752 10.6299 2.34232 10.6578C2.40944 10.6857 2.4668 10.733 2.50716 10.7937C2.54753 10.8543 2.56907 10.9257 2.56907 10.9986C2.56907 11.0965 2.53037 11.1903 2.46148 11.2595C2.3926 11.3287 2.29917 11.3675 2.20175 11.3675Z"/>
</mask>
<path d="M3.23153 11.3675H7.77399C7.8487 11.5831 7.98835 11.7699 8.17355 11.9021C8.35875 12.0343 8.58033 12.1053 8.80754 12.1053C9.03475 12.1053 9.25633 12.0343 9.44153 11.9021C9.62673 11.7699 9.76638 11.5831 9.84109 11.3675H10.6425C10.7399 11.3675 10.8334 11.3287 10.9022 11.2595C10.9711 11.1903 11.0098 11.0965 11.0098 10.9986V9.52404C11.0098 9.42623 10.971 9.33244 10.9021 9.26331L10.1718 8.52656C10.1376 8.49217 10.0969 8.4649 10.0522 8.44634C10.0075 8.42777 9.95952 8.41827 9.91111 8.41838H9.31005L6.84439 6.29575C6.77778 6.23846 6.69295 6.20699 6.60525 6.20704H3.38988C3.18529 6.20631 2.98459 6.2632 2.81057 6.37125C2.63654 6.47929 2.49615 6.63417 2.40534 6.81829L1.60823 8.41838H0.733559C0.637136 8.41838 0.541659 8.43747 0.452589 8.47456C0.36352 8.51165 0.282605 8.56602 0.214474 8.63455C0.146343 8.70308 0.0923313 8.78442 0.05553 8.87393C0.0187286 8.96345 -0.000140799 9.05937 7.90956e-07 9.15621V10.9954C7.90956e-07 11.0932 0.0387003 11.1871 0.107586 11.2562C0.176471 11.3254 0.2699 11.3643 0.367318 11.3643H1.16874C1.24402 11.5784 1.38349 11.7639 1.56797 11.8952C1.75245 12.0265 1.97289 12.0971 2.19899 12.0975C2.4251 12.0979 2.64576 12.0279 2.83065 11.8972C3.01554 11.7665 3.15559 11.5814 3.23153 11.3675ZM8.80377 11.3675C8.73112 11.3675 8.66011 11.3459 8.5997 11.3054C8.5393 11.2648 8.49222 11.2072 8.46441 11.1398C8.43661 11.0724 8.42934 10.9982 8.44351 10.9267C8.45769 10.8551 8.49267 10.7894 8.54404 10.7378C8.59541 10.6862 8.66086 10.651 8.73211 10.6368C8.80336 10.6226 8.87722 10.6299 8.94434 10.6578C9.01146 10.6857 9.06882 10.733 9.10919 10.7937C9.14955 10.8543 9.17109 10.9257 9.17109 10.9986C9.1711 11.0957 9.13299 11.1889 9.06503 11.258C8.99708 11.327 8.90475 11.3664 8.80808 11.3675H8.80377ZM8.18655 8.41838H5.50438V6.94379H6.47384L8.18655 8.41838ZM3.06134 7.14826C3.09131 7.08775 3.13735 7.03672 3.19438 7.00083C3.25141 6.96494 3.3172 6.94557 3.38449 6.94487H4.77082V8.41946H2.42904L3.06134 7.14826ZM0.733559 9.15621H9.75923L10.2752 9.67659V10.6297H9.84433C9.76961 10.4142 9.62997 10.2274 9.44476 10.0952C9.25956 9.963 9.03798 9.89197 8.81077 9.89197C8.58356 9.89197 8.36199 9.963 8.17678 10.0952C7.99158 10.2274 7.85194 10.4142 7.77722 10.6297H3.23153C3.15682 10.4142 3.01717 10.2274 2.83197 10.0952C2.64677 9.963 2.42519 9.89197 2.19798 9.89197C1.97077 9.89197 1.74919 9.963 1.56399 10.0952C1.37879 10.2274 1.23914 10.4142 1.16443 10.6297H0.733559V9.15621ZM2.20175 11.3675C2.1291 11.3675 2.05809 11.3459 1.99768 11.3054C1.93728 11.2648 1.8902 11.2072 1.86239 11.1398C1.83459 11.0724 1.82732 10.9982 1.84149 10.9267C1.85566 10.8551 1.89065 10.7894 1.94202 10.7378C1.99339 10.6862 2.05884 10.651 2.13009 10.6368C2.20134 10.6226 2.2752 10.6299 2.34232 10.6578C2.40944 10.6857 2.4668 10.733 2.50716 10.7937C2.54753 10.8543 2.56907 10.9257 2.56907 10.9986C2.56907 11.0965 2.53037 11.1903 2.46148 11.2595C2.3926 11.3287 2.29917 11.3675 2.20175 11.3675Z" fill="#D5CBF2"/>
<path d="M7.77399 11.3675L8.71882 11.04L8.4857 10.3675H7.77399V11.3675ZM8.80754 12.1053V11.1053V12.1053ZM9.84109 11.3675V10.3675H9.12939L8.89626 11.04L9.84109 11.3675ZM10.6425 11.3675V10.3675V11.3675ZM11.0098 9.52404H12.0098L12.0098 9.52332L11.0098 9.52404ZM10.9021 9.26331L10.1919 9.96732L10.1938 9.96925L10.9021 9.26331ZM10.1718 8.52656L10.882 7.82256L10.8808 7.82136L10.1718 8.52656ZM9.91111 8.41838V9.41838L9.91333 9.41837L9.91111 8.41838ZM9.31005 8.41838L8.65762 9.17623L8.9389 9.41838H9.31005V8.41838ZM6.84439 6.29575L7.49681 5.53789L7.49649 5.53762L6.84439 6.29575ZM6.60525 6.20704V7.20704L6.60581 7.20704L6.60525 6.20704ZM3.38988 6.20704L3.38634 7.20704H3.38988V6.20704ZM2.40534 6.81829L3.30043 7.2642L3.30218 7.26064L2.40534 6.81829ZM1.60823 8.41838V9.41838H2.22727L2.50331 8.86428L1.60823 8.41838ZM0.733559 8.41838L0.733558 9.41838H0.733559V8.41838ZM7.90956e-07 9.15621H1L1 9.15475L7.90956e-07 9.15621ZM0.367318 11.3643V10.3643V11.3643ZM1.16874 11.3643L2.11214 11.0326L1.87717 10.3643H1.16874V11.3643ZM8.80377 11.3675V10.3675V11.3675ZM9.17109 10.9986H8.17109V10.9987L9.17109 10.9986ZM8.80808 11.3675V12.3676L8.81986 12.3675L8.80808 11.3675ZM8.18655 8.41838V9.41838H10.8807L8.83901 7.66055L8.18655 8.41838ZM5.50438 8.41838H4.50438V9.41838H5.50438V8.41838ZM5.50438 6.94379V5.94379H4.50438V6.94379H5.50438ZM6.47384 6.94379L7.1263 6.18597L6.84501 5.94379H6.47384V6.94379ZM3.06134 7.14826L3.95669 7.59362L3.95745 7.59209L3.06134 7.14826ZM3.38449 6.94487V5.94482L3.37406 5.94493L3.38449 6.94487ZM4.77082 6.94487H5.77082V5.94487H4.77082V6.94487ZM4.77082 8.41946V9.41946H5.77082V8.41946H4.77082ZM2.42904 8.41946L1.53368 7.9741L0.814749 9.41946H2.42904V8.41946ZM0.733559 9.15621V8.15621H-0.266441V9.15621H0.733559ZM9.75923 9.15621L10.4693 8.45212L10.1759 8.15621H9.75923V9.15621ZM10.2752 9.67659H11.2752V9.26486L10.9853 8.9725L10.2752 9.67659ZM10.2752 10.6297V11.6297H11.2752V10.6297H10.2752ZM9.84433 10.6297L8.89949 10.9573L9.13262 11.6297H9.84433V10.6297ZM8.81077 9.89197V10.892V9.89197ZM7.77722 10.6297V11.6297H8.48893L8.72205 10.9573L7.77722 10.6297ZM3.23153 10.6297L2.2867 10.9573L2.51983 11.6297H3.23153V10.6297ZM2.19798 9.89197V10.892V9.89197ZM1.16443 10.6297V11.6297H1.87614L2.10926 10.9573L1.16443 10.6297ZM0.733559 10.6297H-0.266441V11.6297H0.733559V10.6297ZM2.20175 11.3675V10.3675V11.3675ZM3.23153 12.3675H7.77399V10.3675H3.23153V12.3675ZM6.82916 11.6951C6.97162 12.106 7.23816 12.463 7.59258 12.716L8.75452 11.0881C8.73854 11.0767 8.72579 11.0601 8.71882 11.04L6.82916 11.6951ZM7.59258 12.716C7.94707 12.969 8.3717 13.1053 8.80754 13.1053V11.1053C8.78897 11.1053 8.77044 11.0995 8.75452 11.0881L7.59258 12.716ZM8.80754 13.1053C9.24339 13.1053 9.66802 12.969 10.0225 12.716L8.86056 11.0881C8.84464 11.0995 8.82612 11.1053 8.80754 11.1053V13.1053ZM10.0225 12.716C10.3769 12.463 10.6435 12.106 10.7859 11.6951L8.89626 11.04C8.8893 11.0601 8.87654 11.0767 8.86056 11.0881L10.0225 12.716ZM9.84109 12.3675H10.6425V10.3675H9.84109V12.3675ZM10.6425 12.3675C11.0066 12.3675 11.3548 12.2223 11.6109 11.9651L10.1936 10.5539C10.3119 10.4351 10.4733 10.3675 10.6425 10.3675V12.3675ZM11.6109 11.9651C11.8668 11.708 12.0098 11.3603 12.0098 10.9986H10.0098C10.0098 10.8327 10.0754 10.6726 10.1936 10.5539L11.6109 11.9651ZM12.0098 10.9986V9.52404H10.0098V10.9986H12.0098ZM12.0098 9.52332C12.0096 9.16176 11.8664 8.81423 11.6104 8.55738L10.1938 9.96925C10.0756 9.85065 10.01 9.69069 10.0098 9.52476L12.0098 9.52332ZM11.6123 8.55931L10.882 7.82256L9.46159 9.23056L10.1919 9.96732L11.6123 8.55931ZM10.8808 7.82136C10.7536 7.69352 10.6024 7.59196 10.4355 7.52272L9.66888 9.36995C9.59151 9.33784 9.52151 9.29081 9.46278 9.23176L10.8808 7.82136ZM10.4355 7.52272C10.2687 7.45347 10.0897 7.41798 9.90889 7.41838L9.91333 9.41837C9.82936 9.41856 9.74628 9.40207 9.66888 9.36995L10.4355 7.52272ZM9.91111 7.41838H9.31005V9.41838H9.91111V7.41838ZM9.96247 7.66052L7.49681 5.53789L6.19197 7.05361L8.65762 9.17623L9.96247 7.66052ZM7.49649 5.53762C7.24868 5.32447 6.93238 5.20686 6.6047 5.20704L6.60581 7.20704C6.45352 7.20712 6.30687 7.15244 6.19229 7.05388L7.49649 5.53762ZM6.60525 5.20704H3.38988V7.20704H6.60525V5.20704ZM3.39342 5.20704C3.00099 5.20565 2.61632 5.31479 2.2831 5.52167L3.33803 7.22082C3.35287 7.21161 3.36959 7.20697 3.38634 7.20703L3.39342 5.20704ZM2.2831 5.52167C1.94993 5.72852 1.68177 6.02464 1.50849 6.37595L3.30218 7.26064C3.31054 7.24369 3.32315 7.23006 3.33803 7.22082L2.2831 5.52167ZM1.51026 6.37239L0.713145 7.97247L2.50331 8.86428L3.30042 7.2642L1.51026 6.37239ZM1.60823 7.41838H0.733559V9.41838H1.60823V7.41838ZM0.73356 7.41838C0.505088 7.41838 0.278959 7.46362 0.0681459 7.55141L0.837033 9.39771C0.804359 9.41132 0.769184 9.41838 0.733558 9.41838L0.73356 7.41838ZM0.0681459 7.55141C-0.142659 7.6392 -0.333877 7.76775 -0.494685 7.9295L0.923632 9.3396C0.899087 9.36428 0.869698 9.38411 0.837033 9.39771L0.0681459 7.55141ZM-0.494685 7.9295C-0.655484 8.09123 -0.78273 8.28299 -0.869353 8.49368L0.980413 9.25418C0.967392 9.28586 0.948169 9.31492 0.923632 9.3396L-0.494685 7.9295ZM-0.869353 8.49368C-0.955973 8.70437 -1.00033 8.92998 -0.999998 9.15767L1 9.15475C1.00005 9.18875 0.99343 9.22252 0.980413 9.25418L-0.869353 8.49368ZM-0.999999 9.15621V10.9954H1V9.15621H-0.999999ZM-0.999999 10.9954C-0.999999 11.357 -0.856993 11.7048 -0.601055 11.9618L0.816227 10.5507C0.934393 10.6694 1 10.8294 1 10.9954H-0.999999ZM-0.601055 11.9618C-0.34497 12.219 0.00327935 12.3643 0.367318 12.3643V10.3643C0.53652 10.3643 0.697912 10.4318 0.816227 10.5507L-0.601055 11.9618ZM0.367318 12.3643H1.16874V10.3643H0.367318V12.3643ZM0.225341 11.696C0.368886 12.1043 0.635091 12.4587 0.988139 12.7099L2.1478 11.0804C2.13188 11.0691 2.11915 11.0526 2.11214 11.0326L0.225341 11.696ZM0.988139 12.7099C1.34125 12.9612 1.7637 13.0968 2.19742 13.0975L2.20057 11.0975C2.18208 11.0975 2.16365 11.0917 2.1478 11.0804L0.988139 12.7099ZM2.19742 13.0975C2.63114 13.0982 3.05402 12.9639 3.40792 12.7137L2.25338 11.0806C2.2375 11.0918 2.21905 11.0975 2.20057 11.0975L2.19742 13.0975ZM3.40792 12.7137C3.76176 12.4636 4.02907 12.11 4.17389 11.7022L2.28918 11.0329C2.2821 11.0529 2.26933 11.0693 2.25338 11.0806L3.40792 12.7137ZM8.80377 10.3675C8.92987 10.3675 9.05278 10.4051 9.15694 10.475L8.04246 12.1357C8.26743 12.2867 8.53238 12.3675 8.80377 12.3675V10.3675ZM9.15694 10.475C9.26104 10.5449 9.34152 10.6437 9.38888 10.7585L7.53995 11.5211C7.64291 11.7707 7.81755 11.9848 8.04246 12.1357L9.15694 10.475ZM9.38888 10.7585C9.43622 10.8733 9.44853 10.9994 9.42446 11.1209L7.46257 10.7324C7.41015 10.9971 7.43701 11.2715 7.53995 11.5211L9.38888 10.7585ZM9.42446 11.1209C9.40038 11.2425 9.34084 11.3548 9.25268 11.4433L7.8354 10.0322C7.6445 10.2239 7.51499 10.4677 7.46257 10.7324L9.42446 11.1209ZM9.25268 11.4433C9.16447 11.5319 9.05157 11.5927 8.92802 11.6174L8.5362 9.65618C8.27015 9.70933 8.02635 9.84041 7.8354 10.0322L9.25268 11.4433ZM8.92802 11.6174C8.80445 11.6421 8.67639 11.6294 8.56023 11.5811L9.32844 9.7345C9.07805 9.63033 8.80228 9.60302 8.5362 9.65618L8.92802 11.6174ZM8.56023 11.5811C8.44414 11.5328 8.34561 11.4513 8.2766 11.3476L9.94177 10.2398C9.79204 10.0147 9.57878 9.83865 9.32844 9.7345L8.56023 11.5811ZM8.2766 11.3476C8.20763 11.2439 8.17109 11.1225 8.17109 10.9986H10.1711C10.1711 10.7289 10.0915 10.4648 9.94177 10.2398L8.2766 11.3476ZM8.17109 10.9987C8.17108 10.834 8.23568 10.6751 8.35224 10.5566L9.77782 11.9593C10.0303 11.7028 10.1711 11.3575 10.1711 10.9986L8.17109 10.9987ZM8.35224 10.5566C8.46894 10.438 8.6284 10.3696 8.7963 10.3676L8.81986 12.3675C9.1811 12.3632 9.52521 12.2161 9.77782 11.9593L8.35224 10.5566ZM8.80808 10.3675H8.80377V12.3675H8.80808V10.3675ZM8.18655 7.41838H5.50438V9.41838H8.18655V7.41838ZM6.50438 8.41838V6.94379H4.50438V8.41838H6.50438ZM5.50438 7.94379H6.47384V5.94379H5.50438V7.94379ZM5.82138 7.70161L7.53409 9.1762L8.83901 7.66055L7.1263 6.18597L5.82138 7.70161ZM3.95745 7.59209C3.90586 7.69626 3.82631 7.78468 3.72705 7.84716L2.66171 6.15451C2.4484 6.28877 2.27676 6.47924 2.16523 6.70444L3.95745 7.59209ZM3.72705 7.84716C3.62777 7.90964 3.51283 7.94359 3.39493 7.94482L3.37406 5.94493C3.12157 5.94756 2.87504 6.02024 2.66171 6.15451L3.72705 7.84716ZM3.38449 7.94487H4.77082V5.94487H3.38449V7.94487ZM3.77082 6.94487V8.41946H5.77082V6.94487H3.77082ZM4.77082 7.41946H2.42904V9.41946H4.77082V7.41946ZM3.32439 8.86481L3.95669 7.59362L2.16599 6.70291L1.53368 7.9741L3.32439 8.86481ZM0.733559 10.1562H9.75923V8.15621H0.733559V10.1562ZM9.04912 9.8603L9.56509 10.3807L10.9853 8.9725L10.4693 8.45212L9.04912 9.8603ZM9.2752 9.67659V10.6297H11.2752V9.67659H9.2752ZM10.2752 9.62971H9.84433V11.6297H10.2752V9.62971ZM10.7892 10.3022C10.6467 9.89123 10.3802 9.53425 10.0257 9.28127L8.86379 10.9091C8.87978 10.9205 8.89253 10.9372 8.89949 10.9573L10.7892 10.3022ZM10.0257 9.28127C9.67125 9.02824 9.24662 8.89197 8.81077 8.89197V10.892C8.82935 10.892 8.84788 10.8978 8.86379 10.9091L10.0257 9.28127ZM8.81077 8.89197C8.37493 8.89197 7.9503 9.02824 7.59581 9.28127L8.75775 10.9091C8.77367 10.8978 8.7922 10.892 8.81077 10.892V8.89197ZM7.59581 9.28127C7.24139 9.53425 6.97485 9.89123 6.83239 10.3022L8.72205 10.9573C8.72902 10.9372 8.74177 10.9205 8.75775 10.9091L7.59581 9.28127ZM7.77722 9.62971H3.23153V11.6297H7.77722V9.62971ZM4.17636 10.3022C4.0339 9.89123 3.76736 9.53425 3.41294 9.28127L2.251 10.9091C2.26698 10.9205 2.27974 10.9372 2.2867 10.9573L4.17636 10.3022ZM3.41294 9.28127C3.05845 9.02824 2.63383 8.89197 2.19798 8.89197V10.892C2.21656 10.892 2.23508 10.8978 2.251 10.9091L3.41294 9.28127ZM2.19798 8.89197C1.76214 8.89197 1.33751 9.02824 0.983021 9.28127L2.14496 10.9091C2.16088 10.8978 2.17941 10.892 2.19798 10.892V8.89197ZM0.983021 9.28127C0.628598 9.53425 0.362059 9.89123 0.219598 10.3022L2.10926 10.9573C2.11623 10.9372 2.12898 10.9205 2.14496 10.9091L0.983021 9.28127ZM1.16443 9.62971H0.733559V11.6297H1.16443V9.62971ZM1.73356 10.6297V9.15621H-0.266441V10.6297H1.73356ZM2.20175 10.3675C2.32785 10.3675 2.45076 10.4051 2.55492 10.475L1.44044 12.1357C1.66541 12.2867 1.93036 12.3675 2.20175 12.3675V10.3675ZM2.55492 10.475C2.65902 10.5449 2.73951 10.6437 2.78686 10.7585L0.937929 11.5211C1.04089 11.7707 1.21553 11.9848 1.44044 12.1357L2.55492 10.475ZM2.78686 10.7585C2.8342 10.8733 2.84651 10.9994 2.82244 11.1209L0.860545 10.7324C0.808123 10.9971 0.834989 11.2715 0.937929 11.5211L2.78686 10.7585ZM2.82244 11.1209C2.79836 11.2425 2.73882 11.3548 2.65066 11.4433L1.23338 10.0322C1.04248 10.2239 0.91297 10.4677 0.860545 10.7324L2.82244 11.1209ZM2.65066 11.4433C2.56245 11.5319 2.44954 11.5927 2.326 11.6174L1.93418 9.65618C1.66813 9.70933 1.42433 9.84041 1.23338 10.0322L2.65066 11.4433ZM2.326 11.6174C2.20243 11.6421 2.07437 11.6294 1.95821 11.5811L2.72642 9.7345C2.47603 9.63033 2.20026 9.60302 1.93418 9.65618L2.326 11.6174ZM1.95821 11.5811C1.84212 11.5328 1.74358 11.4513 1.67458 11.3476L3.33975 10.2398C3.19002 10.0147 2.97676 9.83865 2.72642 9.7345L1.95821 11.5811ZM1.67458 11.3476C1.60561 11.2439 1.56907 11.1225 1.56907 10.9986H3.56907C3.56907 10.7289 3.48944 10.4648 3.33975 10.2398L1.67458 11.3476ZM1.56907 10.9986C1.56907 10.8327 1.63468 10.6726 1.75284 10.5539L3.17013 11.9651C3.42606 11.708 3.56907 11.3603 3.56907 10.9986H1.56907ZM1.75284 10.5539C1.87116 10.4351 2.03255 10.3675 2.20175 10.3675V12.3675C2.56579 12.3675 2.91404 12.2223 3.17013 11.9651L1.75284 10.5539Z" fill="#D5CBF2" mask="url(#path-4-inside-3)"/>
</svg>
