<svg width="24" height="17" viewBox="0 0 24 17" fill="none" xmlns="http://www.w3.org/2000/svg">
<mask id="path-1-inside-1" fill="white">
<path d="M23.473 7.45881L23.9164 6.81381C23.5997 6.59329 23.2121 6.49879 22.8294 6.54881L17.4075 7.25681C17.1656 7.28579 16.9338 7.37074 16.7305 7.50494C16.5272 7.63913 16.3581 7.81885 16.2365 8.02981L14.7912 10.5498L13.481 9.64981C13.2026 9.45899 12.8644 9.37551 12.529 9.41486C12.1937 9.45421 11.884 9.61372 11.6574 9.86381L12.2389 10.3878C12.3381 10.2774 12.4741 10.207 12.6215 10.1897C12.7689 10.1724 12.9176 10.2094 13.0396 10.2938L14.0335 10.9778L13.9264 11.0918L13.5431 10.9418C13.4603 10.9093 13.3689 10.9059 13.2839 10.9323C13.1989 10.9587 13.1255 11.0132 13.0757 11.0868L12.9876 11.2188C12.9102 11.1505 12.8147 11.106 12.7126 11.0907C12.6104 11.0754 12.5061 11.0901 12.4121 11.1328C12.2186 11.2324 12.0481 11.3714 11.9116 11.5408C11.7177 11.3374 11.4663 11.1979 11.191 11.1408L10.9388 10.8028C10.9042 10.7568 10.8599 10.7189 10.8091 10.692C10.7582 10.665 10.702 10.6496 10.6445 10.6468C10.5869 10.6433 10.5293 10.6528 10.476 10.6746C10.4226 10.6964 10.3748 10.73 10.3362 10.7728L10.1551 10.9728L9.94488 10.6728C9.91443 10.6286 9.87519 10.5911 9.8296 10.5627C9.78402 10.5343 9.73306 10.5156 9.67992 10.5077C9.62677 10.4998 9.57257 10.5029 9.52069 10.5169C9.46882 10.5308 9.42037 10.5553 9.37837 10.5888L9.15017 10.7708L7.57576 8.02081C7.45425 7.81047 7.28583 7.63096 7.08361 7.4962C6.88138 7.36144 6.65078 7.27508 6.40972 7.24381L0.978874 6.54381C0.639416 6.50027 0.295097 6.57062 0 6.74381L0.400357 7.41781C0.545582 7.33186 0.715324 7.29667 0.882788 7.31781L3.0257 7.59581L2.73845 9.93181L0.250223 9.61881L0.150134 10.3948L2.64136 10.7098L2.30706 13.4278L0.248222 13.1668L0.148132 13.9408L5.68207 14.6408C5.68979 15.2074 5.90287 15.7521 6.28182 16.1737C6.66077 16.5953 7.17988 16.8654 7.74291 16.9338C7.83922 16.9456 7.93615 16.9516 8.03317 16.9518C8.5474 16.9511 9.04711 16.7814 9.45533 16.469C9.86354 16.1565 10.1576 15.7187 10.2922 15.2228L11.5063 15.3758C11.5226 15.3769 11.539 15.3769 11.5553 15.3758C11.6262 15.3766 11.6959 15.3581 11.7571 15.3223C11.8183 15.2866 11.8686 15.2349 11.9026 15.1728C11.9349 15.2373 11.9845 15.2916 12.0458 15.3298C12.1071 15.3679 12.1777 15.3883 12.2499 15.3888C12.2663 15.3899 12.2827 15.3899 12.299 15.3888L13.5911 15.2258C13.7136 15.6759 13.9675 16.0794 14.3205 16.3846C14.6735 16.6899 15.1095 16.8832 15.5729 16.9398C15.6692 16.9516 15.7661 16.9576 15.8632 16.9578C16.4358 16.9567 16.9884 16.7466 17.4169 16.3671C17.8454 15.9876 18.1205 15.4647 18.1902 14.8968C18.2015 14.8146 18.2085 14.7318 18.2113 14.6488L23.7422 13.9488L23.6421 13.1728L21.5022 13.4438L21.1679 10.7258L23.7422 10.4008L23.6421 9.62481L21.0718 9.94881L20.7856 7.61281L22.9305 7.33281C23.1213 7.3077 23.3145 7.35596 23.471 7.46781L23.473 7.45881ZM3.8024 7.69581L6.31164 8.02181C6.43296 8.0378 6.549 8.08135 6.65085 8.14913C6.7527 8.21691 6.83765 8.30712 6.89916 8.41281L8.16429 10.6188L3.51314 10.0318L3.8024 7.69581ZM9.58556 14.7958C9.56461 15.0031 9.50245 15.2041 9.40272 15.3871C9.30299 15.5701 9.1677 15.7313 9.00477 15.8613C8.84185 15.9914 8.65458 16.0876 8.45395 16.1444C8.25331 16.2012 8.04335 16.2173 7.83637 16.192C7.62939 16.1666 7.42957 16.1002 7.24861 15.9967C7.06766 15.8931 6.90922 15.7545 6.78259 15.589C6.65595 15.4235 6.56368 15.2343 6.51116 15.0327C6.45865 14.8311 6.44696 14.621 6.47678 14.4148C6.52337 14.0362 6.70674 13.6877 6.99241 13.4347C7.27809 13.1817 7.64641 13.0416 8.02817 13.0408C8.09274 13.0409 8.15725 13.0449 8.22134 13.0528C8.63335 13.1033 9.00844 13.3152 9.26423 13.6418C9.52003 13.9684 9.6356 14.3841 9.58556 14.7958ZM11.4682 12.6098L11.22 14.5498L10.3743 14.4428C10.3376 13.8996 10.113 13.386 9.73904 12.99C9.36504 12.5939 8.86486 12.3402 8.32418 12.2721C7.78349 12.204 7.23594 12.3259 6.77529 12.6168C6.31465 12.9077 5.96958 13.3496 5.79918 13.8668L3.08275 13.5238L3.41305 10.8058L8.51761 11.4508V11.4728C8.52061 11.545 8.5436 11.615 8.584 11.675C8.62441 11.7349 8.68066 11.7825 8.74651 11.8124C8.81235 11.8424 8.88521 11.8535 8.957 11.8446C9.02879 11.8356 9.09669 11.807 9.15317 11.7618L9.53351 11.4618L9.78474 11.8248C9.81866 11.8738 9.86336 11.9144 9.9154 11.9436C9.96744 11.9727 10.0255 11.9895 10.085 11.9928C10.1436 11.9962 10.2022 11.9866 10.2567 11.9649C10.3112 11.9431 10.3602 11.9096 10.4003 11.8668L10.5935 11.6558L10.6545 11.7388C10.686 11.7809 10.7255 11.8162 10.7709 11.8427C10.8163 11.8691 10.8666 11.8862 10.9187 11.8928C11.0071 11.8919 11.0945 11.9116 11.1738 11.9504C11.2532 11.9891 11.3225 12.0459 11.376 12.1161C11.4296 12.1863 11.466 12.2681 11.4823 12.3548C11.4987 12.4416 11.4946 12.5309 11.4702 12.6158L11.4682 12.6098ZM16.9151 8.41881C16.9762 8.31333 17.0612 8.22359 17.1632 8.15674C17.2652 8.0899 17.3814 8.0478 17.5026 8.03381L20.0109 7.70681L20.2971 10.0398L15.649 10.6268L16.9151 8.41881ZM17.4156 14.7958C17.3946 15.0031 17.3324 15.2041 17.2327 15.3871C17.133 15.5701 16.9977 15.7313 16.8348 15.8613C16.6718 15.9914 16.4846 16.0876 16.2839 16.1444C16.0833 16.2012 15.8733 16.2173 15.6664 16.192C15.4594 16.1666 15.2596 16.1002 15.0786 15.9967C14.8977 15.8931 14.7392 15.7545 14.6126 15.589C14.4859 15.4235 14.3937 15.2343 14.3412 15.0327C14.2886 14.8311 14.277 14.621 14.3068 14.4148C14.3534 14.0362 14.5367 13.6877 14.8224 13.4347C15.1081 13.1817 15.4764 13.0416 15.8582 13.0408C15.9227 13.0409 15.9872 13.0449 16.0513 13.0528C16.4637 13.1028 16.8393 13.3145 17.0955 13.6411C17.3517 13.9678 17.4676 14.3828 17.4176 14.7948L17.4156 14.7958ZM18.0902 13.8688C17.9219 13.3636 17.5867 12.9305 17.1396 12.6408C16.6925 12.351 16.1601 12.2217 15.6298 12.2742C15.0994 12.3266 14.6027 12.5577 14.2212 12.9294C13.8396 13.3011 13.5959 13.7914 13.5301 14.3198C13.5251 14.3608 13.5241 14.4028 13.5211 14.4438L12.5902 14.5608L12.342 12.6218C12.3257 12.4915 12.3422 12.3592 12.3901 12.237C12.438 12.1147 12.5157 12.0064 12.6163 11.9218C12.6844 11.9906 12.7659 12.0448 12.8557 12.0809C12.9456 12.117 13.0419 12.1343 13.1387 12.1318C13.1954 12.1256 13.25 12.107 13.2988 12.0775C13.3475 12.048 13.3892 12.0081 13.421 11.9608L13.5431 11.7788L13.8804 11.9108C13.9536 11.939 14.0336 11.9445 14.11 11.9266C14.1864 11.9088 14.2556 11.8685 14.3088 11.8108L14.558 11.5458L20.3922 10.8098L20.7265 13.5288L18.0902 13.8688Z"/>
</mask>
<path d="M23.473 7.45881L23.9164 6.81381C23.5997 6.59329 23.2121 6.49879 22.8294 6.54881L17.4075 7.25681C17.1656 7.28579 16.9338 7.37074 16.7305 7.50494C16.5272 7.63913 16.3581 7.81885 16.2365 8.02981L14.7912 10.5498L13.481 9.64981C13.2026 9.45899 12.8644 9.37551 12.529 9.41486C12.1937 9.45421 11.884 9.61372 11.6574 9.86381L12.2389 10.3878C12.3381 10.2774 12.4741 10.207 12.6215 10.1897C12.7689 10.1724 12.9176 10.2094 13.0396 10.2938L14.0335 10.9778L13.9264 11.0918L13.5431 10.9418C13.4603 10.9093 13.3689 10.9059 13.2839 10.9323C13.1989 10.9587 13.1255 11.0132 13.0757 11.0868L12.9876 11.2188C12.9102 11.1505 12.8147 11.106 12.7126 11.0907C12.6104 11.0754 12.5061 11.0901 12.4121 11.1328C12.2186 11.2324 12.0481 11.3714 11.9116 11.5408C11.7177 11.3374 11.4663 11.1979 11.191 11.1408L10.9388 10.8028C10.9042 10.7568 10.8599 10.7189 10.8091 10.692C10.7582 10.665 10.702 10.6496 10.6445 10.6468C10.5869 10.6433 10.5293 10.6528 10.476 10.6746C10.4226 10.6964 10.3748 10.73 10.3362 10.7728L10.1551 10.9728L9.94488 10.6728C9.91443 10.6286 9.87519 10.5911 9.8296 10.5627C9.78402 10.5343 9.73306 10.5156 9.67992 10.5077C9.62677 10.4998 9.57257 10.5029 9.52069 10.5169C9.46882 10.5308 9.42037 10.5553 9.37837 10.5888L9.15017 10.7708L7.57576 8.02081C7.45425 7.81047 7.28583 7.63096 7.08361 7.4962C6.88138 7.36144 6.65078 7.27508 6.40972 7.24381L0.978874 6.54381C0.639416 6.50027 0.295097 6.57062 0 6.74381L0.400357 7.41781C0.545582 7.33186 0.715324 7.29667 0.882788 7.31781L3.0257 7.59581L2.73845 9.93181L0.250223 9.61881L0.150134 10.3948L2.64136 10.7098L2.30706 13.4278L0.248222 13.1668L0.148132 13.9408L5.68207 14.6408C5.68979 15.2074 5.90287 15.7521 6.28182 16.1737C6.66077 16.5953 7.17988 16.8654 7.74291 16.9338C7.83922 16.9456 7.93615 16.9516 8.03317 16.9518C8.5474 16.9511 9.04711 16.7814 9.45533 16.469C9.86354 16.1565 10.1576 15.7187 10.2922 15.2228L11.5063 15.3758C11.5226 15.3769 11.539 15.3769 11.5553 15.3758C11.6262 15.3766 11.6959 15.3581 11.7571 15.3223C11.8183 15.2866 11.8686 15.2349 11.9026 15.1728C11.9349 15.2373 11.9845 15.2916 12.0458 15.3298C12.1071 15.3679 12.1777 15.3883 12.2499 15.3888C12.2663 15.3899 12.2827 15.3899 12.299 15.3888L13.5911 15.2258C13.7136 15.6759 13.9675 16.0794 14.3205 16.3846C14.6735 16.6899 15.1095 16.8832 15.5729 16.9398C15.6692 16.9516 15.7661 16.9576 15.8632 16.9578C16.4358 16.9567 16.9884 16.7466 17.4169 16.3671C17.8454 15.9876 18.1205 15.4647 18.1902 14.8968C18.2015 14.8146 18.2085 14.7318 18.2113 14.6488L23.7422 13.9488L23.6421 13.1728L21.5022 13.4438L21.1679 10.7258L23.7422 10.4008L23.6421 9.62481L21.0718 9.94881L20.7856 7.61281L22.9305 7.33281C23.1213 7.3077 23.3145 7.35596 23.471 7.46781L23.473 7.45881ZM3.8024 7.69581L6.31164 8.02181C6.43296 8.0378 6.549 8.08135 6.65085 8.14913C6.7527 8.21691 6.83765 8.30712 6.89916 8.41281L8.16429 10.6188L3.51314 10.0318L3.8024 7.69581ZM9.58556 14.7958C9.56461 15.0031 9.50245 15.2041 9.40272 15.3871C9.30299 15.5701 9.1677 15.7313 9.00477 15.8613C8.84185 15.9914 8.65458 16.0876 8.45395 16.1444C8.25331 16.2012 8.04335 16.2173 7.83637 16.192C7.62939 16.1666 7.42957 16.1002 7.24861 15.9967C7.06766 15.8931 6.90922 15.7545 6.78259 15.589C6.65595 15.4235 6.56368 15.2343 6.51116 15.0327C6.45865 14.8311 6.44696 14.621 6.47678 14.4148C6.52337 14.0362 6.70674 13.6877 6.99241 13.4347C7.27809 13.1817 7.64641 13.0416 8.02817 13.0408C8.09274 13.0409 8.15725 13.0449 8.22134 13.0528C8.63335 13.1033 9.00844 13.3152 9.26423 13.6418C9.52003 13.9684 9.6356 14.3841 9.58556 14.7958ZM11.4682 12.6098L11.22 14.5498L10.3743 14.4428C10.3376 13.8996 10.113 13.386 9.73904 12.99C9.36504 12.5939 8.86486 12.3402 8.32418 12.2721C7.78349 12.204 7.23594 12.3259 6.77529 12.6168C6.31465 12.9077 5.96958 13.3496 5.79918 13.8668L3.08275 13.5238L3.41305 10.8058L8.51761 11.4508V11.4728C8.52061 11.545 8.5436 11.615 8.584 11.675C8.62441 11.7349 8.68066 11.7825 8.74651 11.8124C8.81235 11.8424 8.88521 11.8535 8.957 11.8446C9.02879 11.8356 9.09669 11.807 9.15317 11.7618L9.53351 11.4618L9.78474 11.8248C9.81866 11.8738 9.86336 11.9144 9.9154 11.9436C9.96744 11.9727 10.0255 11.9895 10.085 11.9928C10.1436 11.9962 10.2022 11.9866 10.2567 11.9649C10.3112 11.9431 10.3602 11.9096 10.4003 11.8668L10.5935 11.6558L10.6545 11.7388C10.686 11.7809 10.7255 11.8162 10.7709 11.8427C10.8163 11.8691 10.8666 11.8862 10.9187 11.8928C11.0071 11.8919 11.0945 11.9116 11.1738 11.9504C11.2532 11.9891 11.3225 12.0459 11.376 12.1161C11.4296 12.1863 11.466 12.2681 11.4823 12.3548C11.4987 12.4416 11.4946 12.5309 11.4702 12.6158L11.4682 12.6098ZM16.9151 8.41881C16.9762 8.31333 17.0612 8.22359 17.1632 8.15674C17.2652 8.0899 17.3814 8.0478 17.5026 8.03381L20.0109 7.70681L20.2971 10.0398L15.649 10.6268L16.9151 8.41881ZM17.4156 14.7958C17.3946 15.0031 17.3324 15.2041 17.2327 15.3871C17.133 15.5701 16.9977 15.7313 16.8348 15.8613C16.6718 15.9914 16.4846 16.0876 16.2839 16.1444C16.0833 16.2012 15.8733 16.2173 15.6664 16.192C15.4594 16.1666 15.2596 16.1002 15.0786 15.9967C14.8977 15.8931 14.7392 15.7545 14.6126 15.589C14.4859 15.4235 14.3937 15.2343 14.3412 15.0327C14.2886 14.8311 14.277 14.621 14.3068 14.4148C14.3534 14.0362 14.5367 13.6877 14.8224 13.4347C15.1081 13.1817 15.4764 13.0416 15.8582 13.0408C15.9227 13.0409 15.9872 13.0449 16.0513 13.0528C16.4637 13.1028 16.8393 13.3145 17.0955 13.6411C17.3517 13.9678 17.4676 14.3828 17.4176 14.7948L17.4156 14.7958ZM18.0902 13.8688C17.9219 13.3636 17.5867 12.9305 17.1396 12.6408C16.6925 12.351 16.1601 12.2217 15.6298 12.2742C15.0994 12.3266 14.6027 12.5577 14.2212 12.9294C13.8396 13.3011 13.5959 13.7914 13.5301 14.3198C13.5251 14.3608 13.5241 14.4028 13.5211 14.4438L12.5902 14.5608L12.342 12.6218C12.3257 12.4915 12.3422 12.3592 12.3901 12.237C12.438 12.1147 12.5157 12.0064 12.6163 11.9218C12.6844 11.9906 12.7659 12.0448 12.8557 12.0809C12.9456 12.117 13.0419 12.1343 13.1387 12.1318C13.1954 12.1256 13.25 12.107 13.2988 12.0775C13.3475 12.048 13.3892 12.0081 13.421 11.9608L13.5431 11.7788L13.8804 11.9108C13.9536 11.939 14.0336 11.9445 14.11 11.9266C14.1864 11.9088 14.2556 11.8685 14.3088 11.8108L14.558 11.5458L20.3922 10.8098L20.7265 13.5288L18.0902 13.8688Z" fill="white" stroke="white" stroke-width="2" mask="url(#path-1-inside-1)"/>
<mask id="path-2-inside-2" fill="white">
<path d="M8.84166 8.63962L9.56931 8.34862L8.52137 5.73162L10.5372 7.24662C10.5876 7.28459 10.6464 7.30982 10.7087 7.32016C10.7709 7.3305 10.8348 7.32564 10.8947 7.30599C10.9547 7.28634 11.009 7.25249 11.0531 7.20733C11.0971 7.16217 11.1296 7.10703 11.1477 7.04662L12.0005 4.20762L13.1535 7.07462C13.1748 7.12782 13.2075 7.17569 13.2494 7.21486C13.2912 7.25402 13.3412 7.28352 13.3957 7.30127C13.4502 7.31901 13.508 7.32457 13.5649 7.31754C13.6218 7.31052 13.6765 7.29109 13.725 7.26062L15.6728 6.04662L14.7259 7.93362L15.4265 8.28362L16.9929 5.15362C17.0322 5.0773 17.0452 4.9902 17.03 4.90575C17.0148 4.8213 16.9722 4.74419 16.9088 4.6863C16.8454 4.62842 16.7647 4.59298 16.6792 4.58545C16.5936 4.57792 16.508 4.59871 16.4354 4.64462L13.702 6.35662L12.3098 2.87862C12.2808 2.80239 12.2281 2.73745 12.1595 2.69335C12.0908 2.64925 12.0099 2.62831 11.9284 2.63362C11.8472 2.6373 11.7692 2.66614 11.7052 2.71614C11.6412 2.76614 11.5943 2.83481 11.5711 2.91262L10.5582 6.28762L7.8748 4.27462C7.80652 4.22208 7.72281 4.19352 7.63663 4.19338C7.55046 4.19324 7.46664 4.22151 7.3982 4.27383C7.32975 4.32614 7.2805 4.39956 7.25809 4.4827C7.23568 4.56584 7.24137 4.65404 7.27426 4.73362L8.84166 8.63962Z"/>
</mask>
<path d="M8.84166 8.63962L9.56931 8.34862L8.52137 5.73162L10.5372 7.24662C10.5876 7.28459 10.6464 7.30982 10.7087 7.32016C10.7709 7.3305 10.8348 7.32564 10.8947 7.30599C10.9547 7.28634 11.009 7.25249 11.0531 7.20733C11.0971 7.16217 11.1296 7.10703 11.1477 7.04662L12.0005 4.20762L13.1535 7.07462C13.1748 7.12782 13.2075 7.17569 13.2494 7.21486C13.2912 7.25402 13.3412 7.28352 13.3957 7.30127C13.4502 7.31901 13.508 7.32457 13.5649 7.31754C13.6218 7.31052 13.6765 7.29109 13.725 7.26062L15.6728 6.04662L14.7259 7.93362L15.4265 8.28362L16.9929 5.15362C17.0322 5.0773 17.0452 4.9902 17.03 4.90575C17.0148 4.8213 16.9722 4.74419 16.9088 4.6863C16.8454 4.62842 16.7647 4.59298 16.6792 4.58545C16.5936 4.57792 16.508 4.59871 16.4354 4.64462L13.702 6.35662L12.3098 2.87862C12.2808 2.80239 12.2281 2.73745 12.1595 2.69335C12.0908 2.64925 12.0099 2.62831 11.9284 2.63362C11.8472 2.6373 11.7692 2.66614 11.7052 2.71614C11.6412 2.76614 11.5943 2.83481 11.5711 2.91262L10.5582 6.28762L7.8748 4.27462C7.80652 4.22208 7.72281 4.19352 7.63663 4.19338C7.55046 4.19324 7.46664 4.22151 7.3982 4.27383C7.32975 4.32614 7.2805 4.39956 7.25809 4.4827C7.23568 4.56584 7.24137 4.65404 7.27426 4.73362L8.84166 8.63962Z" fill="white"/>
<path d="M8.84166 8.63962L7.91359 9.01204L8.28557 9.93901L9.21298 9.56812L8.84166 8.63962ZM9.56931 8.34862L9.94063 9.27712L10.8696 8.90563L10.4976 7.97688L9.56931 8.34862ZM8.52137 5.73162L9.12217 4.93222L6.26386 2.78402L7.59303 6.10336L8.52137 5.73162ZM10.5372 7.24662L11.139 6.44797L11.138 6.44722L10.5372 7.24662ZM11.1477 7.04662L10.19 6.75894L10.1898 6.7595L11.1477 7.04662ZM12.0005 4.20762L12.9283 3.83449L11.8636 1.18721L11.0428 3.91995L12.0005 4.20762ZM13.1535 7.07462L14.082 6.70316L14.0813 6.70149L13.1535 7.07462ZM13.725 7.26062L13.1961 6.41197L13.1936 6.41353L13.725 7.26062ZM15.6728 6.04662L16.5665 6.4951L18.1611 3.31736L15.1438 5.19797L15.6728 6.04662ZM14.7259 7.93362L13.8321 7.48514L13.3828 8.38052L14.279 8.82821L14.7259 7.93362ZM15.4265 8.28362L14.9796 9.17821L15.8736 9.62478L16.3208 8.73115L15.4265 8.28362ZM16.9929 5.15362L16.1036 4.69628L16.0987 4.70609L16.9929 5.15362ZM16.4354 4.64462L16.9662 5.49213L16.9702 5.48964L16.4354 4.64462ZM13.702 6.35662L12.7736 6.72825L13.2184 7.83944L14.2328 7.20412L13.702 6.35662ZM12.3098 2.87862L11.3749 3.23373L11.3781 3.24202L11.3814 3.25025L12.3098 2.87862ZM11.9284 2.63362L11.9737 3.63259L11.9836 3.63215L11.9934 3.6315L11.9284 2.63362ZM11.5711 2.91262L12.5289 3.20008L12.5294 3.19827L11.5711 2.91262ZM10.5582 6.28762L9.9581 7.08756L11.1042 7.94729L11.516 6.57508L10.5582 6.28762ZM7.8748 4.27462L7.26485 5.06716L7.27471 5.07456L7.8748 4.27462ZM7.27426 4.73362L8.20237 4.36119L8.19843 4.35163L7.27426 4.73362ZM9.21298 9.56812L9.94063 9.27712L9.19798 7.42012L8.47033 7.71112L9.21298 9.56812ZM10.4976 7.97688L9.44971 5.35988L7.59303 6.10336L8.64097 8.72036L10.4976 7.97688ZM7.92057 6.53102L9.93637 8.04602L11.138 6.44722L9.12217 4.93222L7.92057 6.53102ZM9.93538 8.04527C10.1145 8.18027 10.3237 8.26993 10.5449 8.30666L10.8725 6.33367C10.9692 6.34972 11.0606 6.38891 11.139 6.44797L9.93538 8.04527ZM10.5449 8.30666C10.7661 8.34339 10.9929 8.32611 11.206 8.2563L10.5834 6.35568C10.6766 6.32516 10.7758 6.31761 10.8725 6.33367L10.5449 8.30666ZM11.206 8.2563C11.4192 8.18649 11.6123 8.06618 11.769 7.90556L10.3372 6.5091C10.4058 6.43881 10.4903 6.3862 10.5834 6.35568L11.206 8.2563ZM11.769 7.90556C11.9256 7.74494 12.0412 7.54876 12.1056 7.33374L10.1898 6.7595C10.2181 6.6653 10.2687 6.5794 10.3372 6.5091L11.769 7.90556ZM12.1054 7.3343L12.9582 4.4953L11.0428 3.91995L10.19 6.75894L12.1054 7.3343ZM11.0727 4.58075L12.2257 7.44775L14.0813 6.70149L12.9283 3.83449L11.0727 4.58075ZM12.2251 7.44608C12.3008 7.63541 12.4172 7.80572 12.5661 7.945L13.9327 6.48472C13.9978 6.54567 14.0488 6.62023 14.082 6.70316L12.2251 7.44608ZM12.5661 7.945C12.7149 8.08427 12.8925 8.18912 13.0862 8.25217L13.7052 6.35036C13.7899 6.37793 13.8675 6.42378 13.9327 6.48472L12.5661 7.945ZM13.0862 8.25217C13.28 8.31523 13.4852 8.33497 13.6874 8.31001L13.4424 6.32507C13.5308 6.31417 13.6205 6.32279 13.7052 6.35036L13.0862 8.25217ZM13.6874 8.31001C13.8896 8.28506 14.0838 8.21601 14.2565 8.10771L13.1936 6.41353C13.2691 6.36616 13.354 6.33598 13.4424 6.32507L13.6874 8.31001ZM14.254 8.10927L16.2017 6.89527L15.1438 5.19797L13.1961 6.41197L14.254 8.10927ZM14.779 5.59814L13.8321 7.48514L15.6197 8.3821L16.5665 6.4951L14.779 5.59814ZM14.279 8.82821L14.9796 9.17821L15.8734 7.38904L15.1728 7.03903L14.279 8.82821ZM16.3208 8.73115L17.8872 5.60115L16.0987 4.70609L14.5323 7.83609L16.3208 8.73115ZM17.8822 5.61093C18.0219 5.33934 18.0683 5.02929 18.0142 4.72864L16.0458 5.08286C16.0221 4.95111 16.0425 4.81526 16.1036 4.69631L17.8822 5.61093ZM18.0142 4.72864C17.9601 4.42798 17.8085 4.15363 17.5831 3.9478L16.2346 5.4248C16.1359 5.33474 16.0695 5.21461 16.0458 5.08286L18.0142 4.72864ZM17.5831 3.9478C17.3577 3.74198 17.0708 3.61606 16.7669 3.5893L16.5915 5.58159C16.4587 5.5699 16.3332 5.51486 16.2346 5.4248L17.5831 3.9478ZM16.7669 3.5893C16.463 3.56254 16.1586 3.6364 15.9007 3.7996L16.9702 5.48964C16.8574 5.56102 16.7243 5.59329 16.5915 5.58159L16.7669 3.5893ZM15.9046 3.79713L13.1712 5.50913L14.2328 7.20412L16.9662 5.49212L15.9046 3.79713ZM14.6304 5.98499L13.2381 2.50699L11.3814 3.25025L12.7736 6.72825L14.6304 5.98499ZM13.2446 2.52351C13.1396 2.24708 12.9486 2.01176 12.7 1.85203L11.619 3.53468C11.5076 3.46315 11.422 3.3577 11.3749 3.23373L13.2446 2.52351ZM12.7 1.85203C12.4514 1.69231 12.1582 1.61653 11.8634 1.63574L11.9934 3.6315C11.8615 3.6401 11.7303 3.60619 11.619 3.53468L12.7 1.85203ZM11.8831 1.63465C11.5947 1.64773 11.3174 1.75019 11.0898 1.92795L12.3206 3.50433C12.221 3.58209 12.0998 3.62687 11.9737 3.63259L11.8831 1.63465ZM11.0898 1.92795C10.8621 2.10572 10.6953 2.35 10.6128 2.62697L12.5294 3.19827C12.4933 3.31961 12.4202 3.42655 12.3206 3.50433L11.0898 1.92795ZM10.6133 2.62517L9.6004 6.00017L11.516 6.57508L12.5289 3.20007L10.6133 2.62517ZM11.1583 5.48769L8.47488 3.47469L7.27471 5.07456L9.9581 7.08756L11.1583 5.48769ZM8.48469 3.48214C8.24197 3.29534 7.94444 3.19389 7.63829 3.19338L7.63497 5.19338C7.50117 5.19316 7.37108 5.14882 7.2649 5.0671L8.48469 3.48214ZM7.63829 3.19338C7.33216 3.19287 7.03429 3.29332 6.79094 3.47932L8.00545 5.06833C7.89899 5.14971 7.76875 5.1936 7.63497 5.19338L7.63829 3.19338ZM6.79094 3.47932C6.54758 3.66532 6.37232 3.92651 6.29255 4.22244L8.22363 4.74296C8.18868 4.87262 8.11192 4.98696 8.00545 5.06833L6.79094 3.47932ZM6.29255 4.22244C6.21278 4.51838 6.23302 4.83237 6.35009 5.11561L8.19843 4.35163C8.24971 4.47571 8.25858 4.61329 8.22363 4.74296L6.29255 4.22244ZM6.34619 5.10604L7.91359 9.01204L9.76972 8.26721L8.20233 4.36121L6.34619 5.10604Z" fill="white" mask="url(#path-2-inside-2)"/>
<mask id="path-4-inside-3" fill="white">
<path d="M3.60916 3.68441L4.11561 3.17841L4.62206 3.68441L5.17556 3.13141L4.6691 2.62541L5.17556 2.11941L4.62206 1.56641L4.11561 2.07241L3.60916 1.56641L3.05566 2.11941L3.56212 2.62541L3.05566 3.13141L3.60916 3.68441Z"/>
</mask>
<path d="M3.60916 3.68441L4.11561 3.17841L4.62206 3.68441L5.17556 3.13141L4.6691 2.62541L5.17556 2.11941L4.62206 1.56641L4.11561 2.07241L3.60916 1.56641L3.05566 2.11941L3.56212 2.62541L3.05566 3.13141L3.60916 3.68441Z" fill="white"/>
<path d="M3.60916 3.68441L2.90237 4.39183L3.60916 5.09799L4.31595 4.39183L3.60916 3.68441ZM4.11561 3.17841L4.8224 2.47098L4.11561 1.76482L3.40882 2.47098L4.11561 3.17841ZM4.62206 3.68441L3.91527 4.39183L4.62206 5.09799L5.32885 4.39183L4.62206 3.68441ZM5.17556 3.13141L5.88235 3.83883L6.5904 3.13141L5.88235 2.42398L5.17556 3.13141ZM4.6691 2.62541L3.96231 1.91798L3.25426 2.62541L3.96231 3.33283L4.6691 2.62541ZM5.17556 2.11941L5.88235 2.82683L6.5904 2.11941L5.88235 1.41198L5.17556 2.11941ZM4.62206 1.56641L5.32885 0.858983L4.62206 0.152825L3.91527 0.858984L4.62206 1.56641ZM4.11561 2.07241L3.40882 2.77983L4.11561 3.48599L4.8224 2.77983L4.11561 2.07241ZM3.60916 1.56641L4.31595 0.858983L3.60916 0.152825L2.90237 0.858984L3.60916 1.56641ZM3.05566 2.11941L2.34887 1.41198L1.64082 2.11941L2.34887 2.82683L3.05566 2.11941ZM3.56212 2.62541L4.26891 3.33283L4.97696 2.62541L4.26891 1.91798L3.56212 2.62541ZM3.05566 3.13141L2.34887 2.42398L1.64082 3.13141L2.34887 3.83883L3.05566 3.13141ZM4.31595 4.39183L4.8224 3.88583L3.40882 2.47098L2.90237 2.97698L4.31595 4.39183ZM3.40882 3.88583L3.91527 4.39183L5.32885 2.97698L4.8224 2.47098L3.40882 3.88583ZM5.32885 4.39183L5.88235 3.83883L4.46877 2.42398L3.91527 2.97698L5.32885 4.39183ZM5.88235 2.42398L5.3759 1.91798L3.96231 3.33283L4.46877 3.83883L5.88235 2.42398ZM5.3759 3.33283L5.88235 2.82683L4.46877 1.41198L3.96231 1.91798L5.3759 3.33283ZM5.88235 1.41198L5.32885 0.858983L3.91527 2.27383L4.46877 2.82683L5.88235 1.41198ZM3.91527 0.858984L3.40882 1.36498L4.8224 2.77983L5.32885 2.27383L3.91527 0.858984ZM4.8224 1.36498L4.31595 0.858983L2.90237 2.27383L3.40882 2.77983L4.8224 1.36498ZM2.90237 0.858984L2.34887 1.41198L3.76245 2.82683L4.31595 2.27383L2.90237 0.858984ZM2.34887 2.82683L2.85532 3.33283L4.26891 1.91798L3.76246 1.41198L2.34887 2.82683ZM2.85532 1.91798L2.34887 2.42398L3.76246 3.83883L4.26891 3.33283L2.85532 1.91798ZM2.34887 3.83883L2.90237 4.39183L4.31595 2.97698L3.76245 2.42398L2.34887 3.83883Z" fill="white" mask="url(#path-4-inside-3)"/>
<mask id="path-6-inside-4" fill="white">
<path d="M5.59163 3.94573L4.98047 4.43359L6.54496 6.38997L7.15612 5.9021L5.59163 3.94573Z"/>
</mask>
<path d="M5.59163 3.94573L4.98047 4.43359L6.54496 6.38997L7.15612 5.9021L5.59163 3.94573Z" fill="white"/>
<path d="M4.98047 4.43359L4.35613 3.65287L3.57486 4.27653L4.1992 5.05725L4.98047 4.43359ZM5.59163 3.94573L6.3729 3.32207L5.74856 2.54134L4.96729 3.165L5.59163 3.94573ZM7.15612 5.9021L7.78046 6.68283L8.56173 6.05917L7.93739 5.27844L7.15612 5.9021ZM6.54496 6.38997L5.76369 7.01363L6.38803 7.79435L7.1693 7.17069L6.54496 6.38997ZM5.60481 5.21432L6.21597 4.72646L4.96729 3.165L4.35613 3.65287L5.60481 5.21432ZM4.81035 4.56939L6.37485 6.52576L7.93739 5.27844L6.3729 3.32207L4.81035 4.56939ZM6.53178 5.12137L5.92062 5.60924L7.1693 7.17069L7.78046 6.68283L6.53178 5.12137ZM7.32623 5.76631L5.76174 3.80993L4.1992 5.05725L5.76369 7.01363L7.32623 5.76631Z" fill="white" mask="url(#path-6-inside-4)"/>
<mask id="path-8-inside-5" fill="white">
<path d="M16.1812 2.14449L14.019 4.30469L14.5725 4.85764L16.7347 2.69745L16.1812 2.14449Z"/>
</mask>
<path d="M16.1812 2.14449L14.019 4.30469L14.5725 4.85764L16.7347 2.69745L16.1812 2.14449Z" fill="white"/>
<path d="M14.019 4.30469L13.3116 3.5979L12.6042 4.30469L13.3116 5.01147L14.019 4.30469ZM16.1812 2.14449L16.8886 1.43771L16.1812 0.730925L15.4738 1.43771L16.1812 2.14449ZM16.7347 2.69745L17.4421 3.40423L18.1495 2.69745L17.4421 1.99066L16.7347 2.69745ZM14.5725 4.85764L13.8651 5.56443L14.5725 6.27121L15.2799 5.56443L14.5725 4.85764ZM14.7265 5.01147L16.8886 2.85128L15.4738 1.43771L13.3116 3.5979L14.7265 5.01147ZM15.4738 2.85128L16.0272 3.40423L17.4421 1.99066L16.8886 1.43771L15.4738 2.85128ZM16.0272 1.99066L13.8651 4.15086L15.2799 5.56443L17.4421 3.40423L16.0272 1.99066ZM15.2799 4.15086L14.7265 3.5979L13.3116 5.01147L13.8651 5.56443L15.2799 4.15086Z" fill="white" mask="url(#path-8-inside-5)"/>
<path d="M17.6668 1.059V1.059ZM17.6668 1.059L17.4673 1.25829L17.4668 1.25878L17.3142 1.41121L17.6668 1.059ZM17.4682 1.565L17.6206 1.41271L17.6211 1.41222L17.8207 1.21279L18.0203 1.41222L18.0208 1.41271L18.1732 1.565L17.9737 1.76429L18.3271 2.11797L17.8207 1.612L17.3142 2.118L17.6676 1.76429L17.4682 1.565ZM18.3272 2.11797L18.5267 1.91822L18.3272 2.11797Z" fill="white" stroke="white"/>
<mask id="path-11-inside-6" fill="white">
<path d="M4.22758 11.6539L4.10156 12.4258L5.30085 12.6212L5.42687 11.8494L4.22758 11.6539Z"/>
</mask>
<path d="M4.22758 11.6539L4.10156 12.4258L5.30085 12.6212L5.42687 11.8494L4.22758 11.6539Z" fill="white"/>
<path d="M4.10156 12.4258L3.11454 12.2649L2.9534 13.2519L3.94042 13.4128L4.10156 12.4258ZM4.22758 11.6539L4.38872 10.667L3.4017 10.5061L3.24056 11.4931L4.22758 11.6539ZM5.42687 11.8494L6.41389 12.0103L6.57503 11.0233L5.58801 10.8624L5.42687 11.8494ZM5.30085 12.6212L5.13971 13.6082L6.12673 13.7691L6.28787 12.7821L5.30085 12.6212ZM5.08859 12.5866L5.2146 11.8148L3.24056 11.4931L3.11454 12.2649L5.08859 12.5866ZM4.06644 12.6409L5.26573 12.8364L5.58801 10.8624L4.38872 10.667L4.06644 12.6409ZM4.43984 11.6885L4.31383 12.4604L6.28787 12.7821L6.41389 12.0103L4.43984 11.6885ZM5.46199 11.6343L4.2627 11.4388L3.94042 13.4128L5.13971 13.6082L5.46199 11.6343Z" fill="white" mask="url(#path-11-inside-6)"/>
<mask id="path-13-inside-7" fill="white">
<path d="M19.4871 11.4791L18.2881 11.6992L18.4295 12.4683L19.6285 12.2483L19.4871 11.4791Z"/>
</mask>
<path d="M19.4871 11.4791L18.2881 11.6992L18.4295 12.4683L19.6285 12.2483L19.4871 11.4791Z" fill="white"/>
<path d="M18.2881 11.6992L18.1072 10.7157L17.1237 10.8962L17.3045 11.8798L18.2881 11.6992ZM19.4871 11.4791L20.4707 11.2986L20.2898 10.3151L19.3063 10.4956L19.4871 11.4791ZM19.6285 12.2483L19.8094 13.2318L20.793 13.0512L20.6121 12.0677L19.6285 12.2483ZM18.4295 12.4683L17.4459 12.6489L17.6268 13.6324L18.6104 13.4519L18.4295 12.4683ZM18.4689 12.6827L19.668 12.4627L19.3063 10.4956L18.1072 10.7157L18.4689 12.6827ZM18.5035 11.6597L18.645 12.4288L20.6121 12.0677L20.4707 11.2986L18.5035 11.6597ZM19.4477 11.2648L18.2487 11.4848L18.6104 13.4519L19.8094 13.2318L19.4477 11.2648ZM19.4131 12.2878L19.2717 11.5187L17.3045 11.8798L17.4459 12.6489L19.4131 12.2878Z" fill="white" mask="url(#path-13-inside-7)"/>
</svg>
