<svg width="23" height="18" viewBox="0 0 23 18" fill="none" xmlns="http://www.w3.org/2000/svg">
<mask id="path-1-inside-1" fill="white">
<path d="M4.64062 7.59659C4.64063 7.8158 4.70569 8.03006 4.82758 8.21232C4.94947 8.39458 5.12272 8.53665 5.32542 8.62053C5.52811 8.70442 5.75115 8.72636 5.96633 8.6836C6.18151 8.64083 6.37917 8.53528 6.53431 8.38028C6.68945 8.22528 6.7951 8.02779 6.8379 7.8128C6.8807 7.59781 6.85874 7.37497 6.77478 7.17245C6.69082 6.96993 6.54864 6.79685 6.36622 6.67507C6.18379 6.55328 5.96932 6.48828 5.74992 6.48828C5.45591 6.48891 5.17412 6.60587 4.96622 6.81358C4.75833 7.02129 4.64125 7.30285 4.64062 7.59659ZM6.12048 7.59659C6.12048 7.66958 6.09882 7.74093 6.05823 7.80161C6.01764 7.8623 5.95996 7.90961 5.89246 7.93754C5.82497 7.96547 5.7507 7.97278 5.67905 7.95854C5.6074 7.9443 5.54158 7.90916 5.48992 7.85754C5.43827 7.80593 5.40309 7.74017 5.38884 7.66859C5.37458 7.597 5.3819 7.5228 5.40986 7.45536C5.43781 7.38793 5.48515 7.3303 5.5459 7.28974C5.60664 7.24919 5.67805 7.22755 5.75111 7.22755C5.84897 7.22786 5.94274 7.26685 6.01195 7.33599C6.08115 7.40513 6.12017 7.49882 6.12048 7.59659Z"/>
</mask>
<path d="M4.64062 7.59659C4.64063 7.8158 4.70569 8.03006 4.82758 8.21232C4.94947 8.39458 5.12272 8.53665 5.32542 8.62053C5.52811 8.70442 5.75115 8.72636 5.96633 8.6836C6.18151 8.64083 6.37917 8.53528 6.53431 8.38028C6.68945 8.22528 6.7951 8.02779 6.8379 7.8128C6.8807 7.59781 6.85874 7.37497 6.77478 7.17245C6.69082 6.96993 6.54864 6.79685 6.36622 6.67507C6.18379 6.55328 5.96932 6.48828 5.74992 6.48828C5.45591 6.48891 5.17412 6.60587 4.96622 6.81358C4.75833 7.02129 4.64125 7.30285 4.64062 7.59659ZM6.12048 7.59659C6.12048 7.66958 6.09882 7.74093 6.05823 7.80161C6.01764 7.8623 5.95996 7.90961 5.89246 7.93754C5.82497 7.96547 5.7507 7.97278 5.67905 7.95854C5.6074 7.9443 5.54158 7.90916 5.48992 7.85754C5.43827 7.80593 5.40309 7.74017 5.38884 7.66859C5.37458 7.597 5.3819 7.5228 5.40986 7.45536C5.43781 7.38793 5.48515 7.3303 5.5459 7.28974C5.60664 7.24919 5.67805 7.22755 5.75111 7.22755C5.84897 7.22786 5.94274 7.26685 6.01195 7.33599C6.08115 7.40513 6.12017 7.49882 6.12048 7.59659Z" fill="#D5CBF2"/>
<path d="M5.74992 6.48828V5.48828L5.74779 5.48828L5.74992 6.48828ZM5.75111 7.22755L5.7543 6.22755H5.75111V7.22755ZM3.64062 7.59659C3.64062 8.0138 3.76446 8.42152 3.99634 8.76824L5.65882 7.65641C5.64691 7.6386 5.64062 7.61779 5.64062 7.59659H3.64062ZM3.99634 8.76824C4.2282 9.11494 4.55768 9.38506 4.94302 9.54453L5.70781 7.69653C5.68776 7.68823 5.67073 7.67423 5.65882 7.65641L3.99634 8.76824ZM4.94302 9.54453C5.32835 9.704 5.75228 9.74569 6.16125 9.66441L5.77141 7.70278C5.75002 7.70703 5.72788 7.70484 5.70781 7.69653L4.94302 9.54453ZM6.16125 9.66441C6.57024 9.58313 6.94605 9.38249 7.2411 9.0877L5.82752 7.67285C5.8123 7.68806 5.79279 7.69853 5.77141 7.70278L6.16125 9.66441ZM7.2411 9.0877C7.53616 8.7929 7.7372 8.4172 7.81865 8.00806L5.85715 7.61755C5.853 7.63839 5.84273 7.65765 5.82752 7.67285L7.2411 9.0877ZM7.81865 8.00806C7.90011 7.59893 7.85831 7.17484 7.69854 6.78948L5.85102 7.55543C5.85918 7.57509 5.8613 7.5967 5.85715 7.61755L7.81865 8.00806ZM7.69854 6.78948C7.53877 6.40411 7.26828 6.07491 6.92144 5.84337L5.81099 7.50677C5.82899 7.51878 5.84287 7.53576 5.85102 7.55543L7.69854 6.78948ZM6.92144 5.84337C6.5746 5.61182 6.16691 5.48828 5.74992 5.48828V7.48828C5.77173 7.48828 5.79299 7.49475 5.81099 7.50677L6.92144 5.84337ZM5.74779 5.48828C5.1896 5.48947 4.65442 5.71152 4.25943 6.10616L5.67302 7.521C5.69382 7.50022 5.72222 7.48834 5.75205 7.48828L5.74779 5.48828ZM4.25943 6.10616C3.86442 6.50082 3.64182 7.03596 3.64063 7.59446L5.64062 7.59873C5.64068 7.56973 5.65224 7.54176 5.67302 7.521L4.25943 6.10616ZM5.12048 7.59659C5.12048 7.47157 5.1576 7.34946 5.22699 7.2457L6.88947 8.35753C7.04003 8.1324 7.12048 7.8676 7.12048 7.59659H5.12048ZM5.22699 7.2457C5.29637 7.14195 5.39491 7.0612 5.51007 7.01354L6.27485 8.86154C6.525 8.75802 6.73891 8.58265 6.88947 8.35753L5.22699 7.2457ZM5.51007 7.01354C5.62517 6.96591 5.75179 6.95344 5.87397 6.97772L5.48413 8.93936C5.74961 8.99212 6.02477 8.96503 6.27485 8.86154L5.51007 7.01354ZM5.87397 6.97772C5.99611 7.002 6.10844 7.06193 6.19671 7.15012L4.78313 8.56497C4.97472 8.75638 5.21869 8.88661 5.48413 8.93936L5.87397 6.97772ZM6.19671 7.15012C6.28499 7.23832 6.34519 7.35079 6.36959 7.47333L4.40808 7.86384C4.46098 8.12956 4.59154 8.37354 4.78313 8.56497L6.19671 7.15012ZM6.36959 7.47333C6.394 7.59593 6.38145 7.72296 6.33362 7.83834L4.4861 7.07239C4.38235 7.32263 4.35517 7.59807 4.40808 7.86384L6.36959 7.47333ZM6.33362 7.83834C6.28579 7.9537 6.20484 8.0522 6.10112 8.12144L4.99067 6.45805C4.76546 6.60839 4.58984 6.82216 4.4861 7.07239L6.33362 7.83834ZM6.10112 8.12144C5.99745 8.19066 5.87564 8.22755 5.75111 8.22755V6.22755C5.48046 6.22755 5.21583 6.30773 4.99067 6.45805L6.10112 8.12144ZM5.74791 8.22754C5.58193 8.22701 5.42275 8.1609 5.30515 8.04341L6.71874 6.62857C6.46273 6.37279 6.11602 6.22871 5.7543 6.22755L5.74791 8.22754ZM5.30515 8.04341C5.18753 7.92589 5.12102 7.76644 5.12049 7.5998L7.12048 7.59339C7.11932 7.23119 6.97477 6.88437 6.71874 6.62857L5.30515 8.04341Z" fill="#D5CBF2" mask="url(#path-1-inside-1)"/>
<mask id="path-3-inside-2" fill="white">
<path d="M15.7391 3.53019C15.7391 3.31099 15.674 3.09671 15.5521 2.91445C15.4302 2.73219 15.257 2.59012 15.0543 2.50624C14.8516 2.42235 14.6286 2.40041 14.4134 2.44317C14.1982 2.48594 14.0006 2.59149 13.8454 2.74649C13.6903 2.90149 13.5846 3.09897 13.5418 3.31397C13.499 3.52896 13.521 3.7518 13.6049 3.95432C13.6889 4.15683 13.8311 4.32992 14.0135 4.4517C14.1959 4.57348 14.4104 4.63849 14.6298 4.63849C14.9238 4.63786 15.2056 4.5209 15.4135 4.31319C15.6214 4.10548 15.7385 3.82394 15.7391 3.53019ZM14.2592 3.53019C14.2592 3.4572 14.2809 3.38584 14.3215 3.32516C14.3621 3.26447 14.4198 3.21716 14.4872 3.18923C14.5547 3.1613 14.629 3.15401 14.7007 3.16824C14.7723 3.18248 14.8381 3.21763 14.8898 3.26924C14.9414 3.32085 14.9766 3.3866 14.9909 3.45818C15.0051 3.52977 14.9978 3.60397 14.9699 3.6714C14.9419 3.73884 14.8946 3.79647 14.8338 3.83702C14.7731 3.87757 14.7017 3.89922 14.6286 3.89922C14.5307 3.89891 14.437 3.85994 14.3678 3.7908C14.2986 3.72166 14.2595 3.62797 14.2592 3.53019Z"/>
</mask>
<path d="M15.7391 3.53019C15.7391 3.31099 15.674 3.09671 15.5521 2.91445C15.4302 2.73219 15.257 2.59012 15.0543 2.50624C14.8516 2.42235 14.6286 2.40041 14.4134 2.44317C14.1982 2.48594 14.0006 2.59149 13.8454 2.74649C13.6903 2.90149 13.5846 3.09897 13.5418 3.31397C13.499 3.52896 13.521 3.7518 13.6049 3.95432C13.6889 4.15683 13.8311 4.32992 14.0135 4.4517C14.1959 4.57348 14.4104 4.63849 14.6298 4.63849C14.9238 4.63786 15.2056 4.5209 15.4135 4.31319C15.6214 4.10548 15.7385 3.82394 15.7391 3.53019ZM14.2592 3.53019C14.2592 3.4572 14.2809 3.38584 14.3215 3.32516C14.3621 3.26447 14.4198 3.21716 14.4872 3.18923C14.5547 3.1613 14.629 3.15401 14.7007 3.16824C14.7723 3.18248 14.8381 3.21763 14.8898 3.26924C14.9414 3.32085 14.9766 3.3866 14.9909 3.45818C15.0051 3.52977 14.9978 3.60397 14.9699 3.6714C14.9419 3.73884 14.8946 3.79647 14.8338 3.83702C14.7731 3.87757 14.7017 3.89922 14.6286 3.89922C14.5307 3.89891 14.437 3.85994 14.3678 3.7908C14.2986 3.72166 14.2595 3.62797 14.2592 3.53019Z" fill="#D5CBF2"/>
<path d="M14.6298 4.63849V5.63849L14.6319 5.63849L14.6298 4.63849ZM14.6286 3.89922L14.6254 4.89922H14.6286V3.89922ZM16.7391 3.53019C16.7391 3.113 16.6153 2.70526 16.3834 2.35853L14.7209 3.47036C14.7328 3.48815 14.7391 3.50898 14.7391 3.53019H16.7391ZM16.3834 2.35853C16.1515 2.01185 15.8221 1.74172 15.4367 1.58224L14.6719 3.43024C14.6919 3.43853 14.709 3.45253 14.7209 3.47036L16.3834 2.35853ZM15.4367 1.58224C15.0514 1.42277 14.6274 1.38108 14.2185 1.46235L14.6083 3.42399C14.6297 3.41974 14.6518 3.42193 14.6719 3.43024L15.4367 1.58224ZM14.2185 1.46235C13.8094 1.54364 13.4337 1.7443 13.1386 2.03907L14.5522 3.45391C14.5675 3.43868 14.587 3.42823 14.6083 3.42399L14.2185 1.46235ZM13.1386 2.03907C12.8436 2.33387 12.6425 2.70957 12.5611 3.11871L14.5226 3.50922C14.5267 3.48838 14.537 3.46911 14.5522 3.45391L13.1386 2.03907ZM12.5611 3.11871C12.4796 3.52778 12.5214 3.95187 12.6812 4.33729L14.5287 3.57134C14.5206 3.55173 14.5184 3.53013 14.5226 3.50922L12.5611 3.11871ZM12.6812 4.33729C12.841 4.72272 13.1115 5.05189 13.4583 5.2834L14.5688 3.62C14.5507 3.60795 14.5368 3.59095 14.5287 3.57134L12.6812 4.33729ZM13.4583 5.2834C13.8051 5.51494 14.2128 5.63849 14.6298 5.63849V3.63849C14.608 3.63849 14.5868 3.63203 14.5688 3.62L13.4583 5.2834ZM14.6319 5.63849C15.1901 5.63729 15.7253 5.41525 16.1203 5.02061L14.7067 3.60576C14.6859 3.62655 14.6575 3.63843 14.6277 3.63849L14.6319 5.63849ZM16.1203 5.02061C16.5153 4.62594 16.7379 4.09083 16.7391 3.53233L14.7391 3.52806C14.739 3.55706 14.7275 3.58501 14.7067 3.60576L16.1203 5.02061ZM15.2592 3.53019C15.2592 3.65533 15.2221 3.77741 15.1527 3.88107L13.4903 2.76924C13.3398 2.99428 13.2592 3.25907 13.2592 3.53019H15.2592ZM15.1527 3.88107C15.0834 3.98472 14.9849 4.06553 14.8696 4.11323L14.1049 2.26523C13.8546 2.36879 13.6408 2.54421 13.4903 2.76924L15.1527 3.88107ZM14.8696 4.11323C14.7544 4.16093 14.6278 4.17331 14.5057 4.14906L14.8956 2.18743C14.6303 2.1347 14.3551 2.16167 14.1049 2.26523L14.8696 4.11323ZM14.5057 4.14906C14.3836 4.12479 14.2713 4.06486 14.183 3.97666L15.5966 2.56182C15.405 2.37041 15.161 2.24018 14.8956 2.18743L14.5057 4.14906ZM14.183 3.97666C14.0948 3.88852 14.0345 3.77606 14.0101 3.65344L15.9716 3.26293C15.9187 2.99713 15.7881 2.75318 15.5966 2.56182L14.183 3.97666ZM14.0101 3.65344C13.9857 3.53084 13.9983 3.40381 14.0461 3.28843L15.8936 4.05438C15.9974 3.80414 16.0245 3.5287 15.9716 3.26293L14.0101 3.65344ZM14.0461 3.28843C14.0939 3.17313 14.1748 3.07461 14.2786 3.00533L15.3891 4.66872C15.6143 4.51834 15.7899 4.30455 15.8936 4.05438L14.0461 3.28843ZM14.2786 3.00533C14.3823 2.9361 14.5041 2.89922 14.6286 2.89922V4.89922C14.8992 4.89922 15.1639 4.81905 15.3891 4.66872L14.2786 3.00533ZM14.6318 2.89922C14.7977 2.89976 14.9569 2.96583 15.0746 3.08338L13.661 4.49822C13.917 4.75405 14.2638 4.89806 14.6254 4.89921L14.6318 2.89922ZM15.0746 3.08338C15.1921 3.20081 15.2587 3.36022 15.2592 3.52699L13.2592 3.5334C13.2604 3.89572 13.4051 4.24251 13.661 4.49822L15.0746 3.08338Z" fill="#D5CBF2" mask="url(#path-3-inside-2)"/>
<mask id="path-5-inside-3" fill="white">
<path d="M1.69958 2.42071C1.69126 2.50734 1.68176 2.59396 1.68176 2.68177H2.42169C2.4218 2.33647 2.5158 1.99768 2.69367 1.70162L3.17587 0.893526L3.31601 1.10356C3.53293 1.42763 3.83049 1.68976 4.17946 1.86418L4.51082 1.20324C4.27709 1.08655 4.07776 0.911119 3.93242 0.694174L3.5298 0.0913696L4.26972 0.942178H5.00965L5.74958 0.725027C5.27237 1.25023 5.00851 1.93446 5.00965 2.64379V3.15879H5.74958V2.64379C5.74896 2.10451 5.95459 1.58537 6.32442 1.19256C6.56811 1.73724 6.9471 2.21065 7.4254 2.56786C7.88118 2.90829 8.2182 3.38337 8.38873 3.9258C8.55925 4.46823 8.55464 5.05051 8.37555 5.59018L8.36248 5.62935H8.36842L7.72588 5.92125C7.38531 5.51781 6.92947 5.22799 6.41943 5.09062L6.3553 4.89719C6.25842 4.60938 6.09617 4.34787 5.88126 4.13316C5.66635 3.91844 5.40461 3.75634 5.11654 3.65955C4.93772 3.59909 4.77519 3.4984 4.64147 3.36526L3.7709 2.49547L3.43716 3.32611C3.04536 4.31003 3.05474 5.40811 3.46329 6.38522C3.28531 6.72394 3.18548 7.09818 3.17112 7.48048C2.74507 7.36631 2.36863 7.11487 2.1002 6.76515C1.83178 6.41544 1.68636 5.987 1.68651 5.54628C1.68686 4.91766 1.51208 4.30136 1.18175 3.76635C1.36359 3.75883 1.545 3.78936 1.71435 3.85597C1.88369 3.92259 2.03724 4.02382 2.16515 4.15318L2.68773 3.63107C2.41769 3.35926 2.07682 3.1685 1.70379 3.08041C1.33075 2.99232 0.940473 3.01043 0.577215 3.13269L0 3.32492L0.498827 4.07249C0.791228 4.50933 0.947079 5.02314 0.946584 5.54866C0.946283 6.12294 1.12675 6.68276 1.46246 7.14892C1.79816 7.61508 2.27209 7.96395 2.81719 8.14617L2.28985 8.3835C1.99598 8.51602 1.747 8.73105 1.57325 9.0024C1.39949 9.27376 1.30845 9.58974 1.3112 9.91186C1.31097 10.1441 1.35994 10.3738 1.45491 10.5859L2.48226 12.8962C2.61294 13.1891 2.82569 13.438 3.09482 13.6128C3.36395 13.7875 3.67795 13.8807 3.99893 13.8811H4.27091V14.9894H3.53217V17.2072H7.23062V14.9859H6.48951V13.8776H6.55483C6.69749 13.8778 6.83816 13.9111 6.96577 13.9749L9.84471 15.4131C10.0651 15.5237 10.3074 15.5839 10.554 15.589C10.8005 15.5941 11.0452 15.5441 11.2699 15.4427L13.6453 14.3748L13.2415 16.3754L15.5503 15.9102L16.8568 17.8694L18.1633 15.9091L20.4721 16.3742L19.9923 14.065L21.9543 12.7598L19.9923 11.4545L20.4579 9.14768L18.6063 9.52147L18.63 9.30432C18.6445 9.1761 18.6858 9.05236 18.7513 8.94115C18.8168 8.82994 18.9049 8.73373 19.0101 8.65879L20.5909 7.53031C20.8056 7.37671 20.9806 7.17422 21.1015 6.9396C21.2223 6.70498 21.2854 6.44498 21.2857 6.18112V6.01381C21.2861 5.77718 21.2355 5.54324 21.1372 5.32794L19.8034 2.42071H22.0197V1.68145H21.2797C21.2797 1.68145 19.4008 1.68144 16.7986 1.69924C10.4694 1.74434 -0.149649 1.89623 1.69958 2.42071ZM17.1953 3.20982C17.1663 2.97169 17.1039 2.73881 17.01 2.51802L17.8556 2.13355C18.0436 2.05501 18.2518 2.03891 18.4496 2.08763C18.6475 2.13634 18.8244 2.24729 18.9543 2.4041L17.1953 3.20982ZM12.7783 3.52902C12.7783 3.1636 12.8867 2.8064 13.0899 2.50256C13.2931 2.19873 13.5819 1.96193 13.9198 1.82209C14.2578 1.68225 14.6296 1.64565 14.9883 1.71694C15.347 1.78823 15.6765 1.9642 15.9351 2.22258C16.1937 2.48097 16.3699 2.81018 16.4412 3.16857C16.5126 3.52697 16.4759 3.89846 16.336 4.23606C16.196 4.57366 15.959 4.86221 15.6549 5.06522C15.3508 5.26824 14.9933 5.37659 14.6275 5.37659C14.1373 5.37596 13.6673 5.18111 13.3206 4.83475C12.974 4.4884 12.7789 4.01883 12.7783 3.52902ZM13.1524 1.40971C13.0356 1.49126 12.9256 1.58213 12.8234 1.68145H12.4125L13.1524 1.40971ZM2.79581 0.104424L2.06301 1.32427L2.05588 1.33851L2.79581 0.104424ZM6.90401 0.633657L6.6926 0L6.49426 0.131715L7.23418 1.29698C7.09313 1.09068 6.98048 0.866381 6.89926 0.630095L6.90401 0.633657ZM9.00858 3.45782C8.8536 3.07694 8.63156 2.72689 8.35298 2.42427H12.2973C12.0663 2.89755 11.9907 3.43155 12.0811 3.95027L9.21762 5.25556C9.30888 4.64683 9.23505 4.02479 9.00383 3.45426L9.00858 3.45782ZM12.3056 4.65987C12.4131 4.88044 12.5515 5.08461 12.7165 5.26624L8.3221 7.2835C8.29153 7.03502 8.22471 6.79235 8.12376 6.56321L12.3056 4.65987ZM7.60474 7.59795C7.60474 7.96337 7.49629 8.32057 7.29309 8.6244C7.0899 8.92824 6.80108 9.16505 6.46318 9.30489C6.12528 9.44473 5.75347 9.48131 5.39475 9.41002C5.03604 9.33874 4.70654 9.16277 4.44792 8.90438C4.1893 8.646 4.01318 8.31679 3.94183 7.9584C3.87047 7.6 3.90709 7.22851 4.04706 6.89091C4.18702 6.55331 4.42404 6.26476 4.72814 6.06175C5.03225 5.85873 5.38978 5.75038 5.75552 5.75038C6.24433 5.75226 6.71257 5.94717 7.0581 6.29262C7.40363 6.63807 7.59843 7.10602 7.59999 7.59439L7.60474 7.59795ZM4.04169 3.82686L4.11414 3.89925C4.32927 4.11458 4.59151 4.27706 4.88019 4.37389C5.03675 4.42794 5.18066 4.51325 5.30317 4.62464C5.42568 4.73602 5.52422 4.87115 5.5928 5.02179C4.99734 5.05767 4.43276 5.29881 3.99537 5.7041C3.82912 5.0858 3.8452 4.43268 4.04169 3.8233V3.82686ZM2.59034 9.06936L3.40984 8.69677C3.51903 8.92814 3.66191 9.14207 3.83384 9.33161L2.08201 10.1338C2.0253 9.92444 2.04536 9.70174 2.13858 9.5059C2.2318 9.31005 2.39203 9.15396 2.59034 9.0658V9.06936ZM6.48951 16.468H4.27091V15.7263H6.48951V16.468ZM5.74958 14.9894H5.00965V13.8811H5.74958V14.9894ZM19.5125 10.1077L19.168 11.8105L20.6158 12.7716L19.168 13.7328L19.5125 15.4356L17.8081 15.0915L16.8461 16.538L15.8841 15.0915L14.1798 15.4356L14.4684 14.0057L17.4376 12.672C17.7004 12.5533 17.9279 12.3684 18.0976 12.1354C18.2673 11.9024 18.3734 11.6293 18.4055 11.3429L18.5243 10.3082L19.5125 10.1077ZM20.5457 6.02924V6.19655C20.5456 6.34273 20.5106 6.48678 20.4437 6.61677C20.3768 6.74677 20.2799 6.85897 20.1609 6.94412L18.5801 8.07142C18.3906 8.20707 18.2318 8.38101 18.1139 8.58196C17.9961 8.78292 17.9218 9.00639 17.896 9.23787L17.6656 11.2575C17.6475 11.4161 17.5885 11.5672 17.4944 11.6962C17.4003 11.8251 17.2743 11.9275 17.1288 11.9932L10.9611 14.7663C10.8368 14.8225 10.7015 14.8502 10.5651 14.8476C10.4287 14.8449 10.2946 14.8119 10.1725 14.7509L7.29357 13.3127C7.06282 13.1984 6.80882 13.1387 6.55126 13.1383H3.99893C3.82096 13.1383 3.6468 13.0867 3.49756 12.9898C3.34832 12.8929 3.23039 12.7549 3.15805 12.5924L2.36587 10.8125L4.47757 9.84541C4.83351 10.0471 5.2323 10.1615 5.64112 10.1791C6.04994 10.1967 6.45711 10.1171 6.82911 9.94677C7.20112 9.77646 7.52733 9.52032 7.7809 9.19945C8.03447 8.87857 8.20815 8.50213 8.28766 8.10108L9.58105 7.50777L10.9837 8.55911L11.207 9.23074L8.02637 10.6879C7.86112 10.7635 7.71995 10.8832 7.61838 11.0338C7.51681 11.1844 7.45878 11.3601 7.45068 11.5415C7.44258 11.7229 7.48471 11.9031 7.57245 12.0621C7.66019 12.2211 7.79013 12.3529 7.94798 12.4429L10.1048 13.6747C10.2387 13.7508 10.3884 13.7947 10.5422 13.8029C10.696 13.8111 10.8496 13.7835 10.9908 13.7221L16.3022 11.3999C16.4588 11.331 16.595 11.2228 16.6974 11.0858C16.7998 10.9487 16.8649 10.7875 16.8865 10.6179L17.1894 8.19601C17.2141 8.00275 17.1806 7.80649 17.0931 7.63236L17.0741 7.59558C16.9604 7.36571 16.7613 7.18932 16.5192 7.10398C16.2772 7.01864 16.0114 7.03111 15.7784 7.13873L11.884 8.91866L11.7058 8.38587L12.3448 7.42708L11.7296 7.01651L11.207 7.79967L10.3459 7.15534L13.3555 5.77767C13.7116 5.97909 14.1104 6.0932 14.5192 6.11062C14.928 6.12803 15.3351 6.04827 15.7071 5.87787C16.079 5.70747 16.4052 5.4513 16.6587 5.13043C16.9123 4.80956 17.086 4.43316 17.1656 4.03215L19.288 3.06031L20.4626 5.64239C20.5179 5.7626 20.5462 5.8934 20.5457 6.02568V6.02924ZM13.5182 10.9205H14.2581V10.1812H13.3769L13.1097 9.64606L12.4481 9.97713L12.7783 10.6381V12.1344L10.6951 13.0445C10.6595 13.0599 10.6208 13.0668 10.5821 13.0647C10.5433 13.0627 10.5056 13.0517 10.4718 13.0327L8.31498 11.801C8.27519 11.7784 8.24244 11.7452 8.22034 11.7052C8.19824 11.6651 8.18765 11.6198 8.18974 11.5741C8.19183 11.5284 8.20652 11.4842 8.23218 11.4463C8.25785 11.4085 8.29349 11.3784 8.33517 11.3595L16.0872 7.80917C16.1462 7.78267 16.2132 7.78024 16.274 7.80241C16.3348 7.82457 16.3845 7.86958 16.4126 7.92783L16.4316 7.9658C16.4539 8.0093 16.4622 8.05862 16.4554 8.10701L16.1525 10.5289C16.1471 10.5717 16.1307 10.6123 16.1049 10.6468C16.0791 10.6813 16.0447 10.7086 16.0052 10.7259L13.5111 11.8128L13.5182 10.9205Z"/>
</mask>
<path d="M1.69958 2.42071C1.69126 2.50734 1.68176 2.59396 1.68176 2.68177H2.42169C2.4218 2.33647 2.5158 1.99768 2.69367 1.70162L3.17587 0.893526L3.31601 1.10356C3.53293 1.42763 3.83049 1.68976 4.17946 1.86418L4.51082 1.20324C4.27709 1.08655 4.07776 0.911119 3.93242 0.694174L3.5298 0.0913696L4.26972 0.942178H5.00965L5.74958 0.725027C5.27237 1.25023 5.00851 1.93446 5.00965 2.64379V3.15879H5.74958V2.64379C5.74896 2.10451 5.95459 1.58537 6.32442 1.19256C6.56811 1.73724 6.9471 2.21065 7.4254 2.56786C7.88118 2.90829 8.2182 3.38337 8.38873 3.9258C8.55925 4.46823 8.55464 5.05051 8.37555 5.59018L8.36248 5.62935H8.36842L7.72588 5.92125C7.38531 5.51781 6.92947 5.22799 6.41943 5.09062L6.3553 4.89719C6.25842 4.60938 6.09617 4.34787 5.88126 4.13316C5.66635 3.91844 5.40461 3.75634 5.11654 3.65955C4.93772 3.59909 4.77519 3.4984 4.64147 3.36526L3.7709 2.49547L3.43716 3.32611C3.04536 4.31003 3.05474 5.40811 3.46329 6.38522C3.28531 6.72394 3.18548 7.09818 3.17112 7.48048C2.74507 7.36631 2.36863 7.11487 2.1002 6.76515C1.83178 6.41544 1.68636 5.987 1.68651 5.54628C1.68686 4.91766 1.51208 4.30136 1.18175 3.76635C1.36359 3.75883 1.545 3.78936 1.71435 3.85597C1.88369 3.92259 2.03724 4.02382 2.16515 4.15318L2.68773 3.63107C2.41769 3.35926 2.07682 3.1685 1.70379 3.08041C1.33075 2.99232 0.940473 3.01043 0.577215 3.13269L0 3.32492L0.498827 4.07249C0.791228 4.50933 0.947079 5.02314 0.946584 5.54866C0.946283 6.12294 1.12675 6.68276 1.46246 7.14892C1.79816 7.61508 2.27209 7.96395 2.81719 8.14617L2.28985 8.3835C1.99598 8.51602 1.747 8.73105 1.57325 9.0024C1.39949 9.27376 1.30845 9.58974 1.3112 9.91186C1.31097 10.1441 1.35994 10.3738 1.45491 10.5859L2.48226 12.8962C2.61294 13.1891 2.82569 13.438 3.09482 13.6128C3.36395 13.7875 3.67795 13.8807 3.99893 13.8811H4.27091V14.9894H3.53217V17.2072H7.23062V14.9859H6.48951V13.8776H6.55483C6.69749 13.8778 6.83816 13.9111 6.96577 13.9749L9.84471 15.4131C10.0651 15.5237 10.3074 15.5839 10.554 15.589C10.8005 15.5941 11.0452 15.5441 11.2699 15.4427L13.6453 14.3748L13.2415 16.3754L15.5503 15.9102L16.8568 17.8694L18.1633 15.9091L20.4721 16.3742L19.9923 14.065L21.9543 12.7598L19.9923 11.4545L20.4579 9.14768L18.6063 9.52147L18.63 9.30432C18.6445 9.1761 18.6858 9.05236 18.7513 8.94115C18.8168 8.82994 18.9049 8.73373 19.0101 8.65879L20.5909 7.53031C20.8056 7.37671 20.9806 7.17422 21.1015 6.9396C21.2223 6.70498 21.2854 6.44498 21.2857 6.18112V6.01381C21.2861 5.77718 21.2355 5.54324 21.1372 5.32794L19.8034 2.42071H22.0197V1.68145H21.2797C21.2797 1.68145 19.4008 1.68144 16.7986 1.69924C10.4694 1.74434 -0.149649 1.89623 1.69958 2.42071ZM17.1953 3.20982C17.1663 2.97169 17.1039 2.73881 17.01 2.51802L17.8556 2.13355C18.0436 2.05501 18.2518 2.03891 18.4496 2.08763C18.6475 2.13634 18.8244 2.24729 18.9543 2.4041L17.1953 3.20982ZM12.7783 3.52902C12.7783 3.1636 12.8867 2.8064 13.0899 2.50256C13.2931 2.19873 13.5819 1.96193 13.9198 1.82209C14.2578 1.68225 14.6296 1.64565 14.9883 1.71694C15.347 1.78823 15.6765 1.9642 15.9351 2.22258C16.1937 2.48097 16.3699 2.81018 16.4412 3.16857C16.5126 3.52697 16.4759 3.89846 16.336 4.23606C16.196 4.57366 15.959 4.86221 15.6549 5.06522C15.3508 5.26824 14.9933 5.37659 14.6275 5.37659C14.1373 5.37596 13.6673 5.18111 13.3206 4.83475C12.974 4.4884 12.7789 4.01883 12.7783 3.52902ZM13.1524 1.40971C13.0356 1.49126 12.9256 1.58213 12.8234 1.68145H12.4125L13.1524 1.40971ZM2.79581 0.104424L2.06301 1.32427L2.05588 1.33851L2.79581 0.104424ZM6.90401 0.633657L6.6926 0L6.49426 0.131715L7.23418 1.29698C7.09313 1.09068 6.98048 0.866381 6.89926 0.630095L6.90401 0.633657ZM9.00858 3.45782C8.8536 3.07694 8.63156 2.72689 8.35298 2.42427H12.2973C12.0663 2.89755 11.9907 3.43155 12.0811 3.95027L9.21762 5.25556C9.30888 4.64683 9.23505 4.02479 9.00383 3.45426L9.00858 3.45782ZM12.3056 4.65987C12.4131 4.88044 12.5515 5.08461 12.7165 5.26624L8.3221 7.2835C8.29153 7.03502 8.22471 6.79235 8.12376 6.56321L12.3056 4.65987ZM7.60474 7.59795C7.60474 7.96337 7.49629 8.32057 7.29309 8.6244C7.0899 8.92824 6.80108 9.16505 6.46318 9.30489C6.12528 9.44473 5.75347 9.48131 5.39475 9.41002C5.03604 9.33874 4.70654 9.16277 4.44792 8.90438C4.1893 8.646 4.01318 8.31679 3.94183 7.9584C3.87047 7.6 3.90709 7.22851 4.04706 6.89091C4.18702 6.55331 4.42404 6.26476 4.72814 6.06175C5.03225 5.85873 5.38978 5.75038 5.75552 5.75038C6.24433 5.75226 6.71257 5.94717 7.0581 6.29262C7.40363 6.63807 7.59843 7.10602 7.59999 7.59439L7.60474 7.59795ZM4.04169 3.82686L4.11414 3.89925C4.32927 4.11458 4.59151 4.27706 4.88019 4.37389C5.03675 4.42794 5.18066 4.51325 5.30317 4.62464C5.42568 4.73602 5.52422 4.87115 5.5928 5.02179C4.99734 5.05767 4.43276 5.29881 3.99537 5.7041C3.82912 5.0858 3.8452 4.43268 4.04169 3.8233V3.82686ZM2.59034 9.06936L3.40984 8.69677C3.51903 8.92814 3.66191 9.14207 3.83384 9.33161L2.08201 10.1338C2.0253 9.92444 2.04536 9.70174 2.13858 9.5059C2.2318 9.31005 2.39203 9.15396 2.59034 9.0658V9.06936ZM6.48951 16.468H4.27091V15.7263H6.48951V16.468ZM5.74958 14.9894H5.00965V13.8811H5.74958V14.9894ZM19.5125 10.1077L19.168 11.8105L20.6158 12.7716L19.168 13.7328L19.5125 15.4356L17.8081 15.0915L16.8461 16.538L15.8841 15.0915L14.1798 15.4356L14.4684 14.0057L17.4376 12.672C17.7004 12.5533 17.9279 12.3684 18.0976 12.1354C18.2673 11.9024 18.3734 11.6293 18.4055 11.3429L18.5243 10.3082L19.5125 10.1077ZM20.5457 6.02924V6.19655C20.5456 6.34273 20.5106 6.48678 20.4437 6.61677C20.3768 6.74677 20.2799 6.85897 20.1609 6.94412L18.5801 8.07142C18.3906 8.20707 18.2318 8.38101 18.1139 8.58196C17.9961 8.78292 17.9218 9.00639 17.896 9.23787L17.6656 11.2575C17.6475 11.4161 17.5885 11.5672 17.4944 11.6962C17.4003 11.8251 17.2743 11.9275 17.1288 11.9932L10.9611 14.7663C10.8368 14.8225 10.7015 14.8502 10.5651 14.8476C10.4287 14.8449 10.2946 14.8119 10.1725 14.7509L7.29357 13.3127C7.06282 13.1984 6.80882 13.1387 6.55126 13.1383H3.99893C3.82096 13.1383 3.6468 13.0867 3.49756 12.9898C3.34832 12.8929 3.23039 12.7549 3.15805 12.5924L2.36587 10.8125L4.47757 9.84541C4.83351 10.0471 5.2323 10.1615 5.64112 10.1791C6.04994 10.1967 6.45711 10.1171 6.82911 9.94677C7.20112 9.77646 7.52733 9.52032 7.7809 9.19945C8.03447 8.87857 8.20815 8.50213 8.28766 8.10108L9.58105 7.50777L10.9837 8.55911L11.207 9.23074L8.02637 10.6879C7.86112 10.7635 7.71995 10.8832 7.61838 11.0338C7.51681 11.1844 7.45878 11.3601 7.45068 11.5415C7.44258 11.7229 7.48471 11.9031 7.57245 12.0621C7.66019 12.2211 7.79013 12.3529 7.94798 12.4429L10.1048 13.6747C10.2387 13.7508 10.3884 13.7947 10.5422 13.8029C10.696 13.8111 10.8496 13.7835 10.9908 13.7221L16.3022 11.3999C16.4588 11.331 16.595 11.2228 16.6974 11.0858C16.7998 10.9487 16.8649 10.7875 16.8865 10.6179L17.1894 8.19601C17.2141 8.00275 17.1806 7.80649 17.0931 7.63236L17.0741 7.59558C16.9604 7.36571 16.7613 7.18932 16.5192 7.10398C16.2772 7.01864 16.0114 7.03111 15.7784 7.13873L11.884 8.91866L11.7058 8.38587L12.3448 7.42708L11.7296 7.01651L11.207 7.79967L10.3459 7.15534L13.3555 5.77767C13.7116 5.97909 14.1104 6.0932 14.5192 6.11062C14.928 6.12803 15.3351 6.04827 15.7071 5.87787C16.079 5.70747 16.4052 5.4513 16.6587 5.13043C16.9123 4.80956 17.086 4.43316 17.1656 4.03215L19.288 3.06031L20.4626 5.64239C20.5179 5.7626 20.5462 5.8934 20.5457 6.02568V6.02924ZM13.5182 10.9205H14.2581V10.1812H13.3769L13.1097 9.64606L12.4481 9.97713L12.7783 10.6381V12.1344L10.6951 13.0445C10.6595 13.0599 10.6208 13.0668 10.5821 13.0647C10.5433 13.0627 10.5056 13.0517 10.4718 13.0327L8.31498 11.801C8.27519 11.7784 8.24244 11.7452 8.22034 11.7052C8.19824 11.6651 8.18765 11.6198 8.18974 11.5741C8.19183 11.5284 8.20652 11.4842 8.23218 11.4463C8.25785 11.4085 8.29349 11.3784 8.33517 11.3595L16.0872 7.80917C16.1462 7.78267 16.2132 7.78024 16.274 7.80241C16.3348 7.82457 16.3845 7.86958 16.4126 7.92783L16.4316 7.9658C16.4539 8.0093 16.4622 8.05862 16.4554 8.10701L16.1525 10.5289C16.1471 10.5717 16.1307 10.6123 16.1049 10.6468C16.0791 10.6813 16.0447 10.7086 16.0052 10.7259L13.5111 11.8128L13.5182 10.9205Z" fill="#D5CBF2" stroke="#D5CBF2" stroke-width="2" mask="url(#path-5-inside-3)"/>
</svg>
