<svg width="23" height="22" viewBox="0 0 23 22" fill="none" xmlns="http://www.w3.org/2000/svg">
<mask id="path-1-inside-1" fill="white">
<path d="M11.0098 0C8.83229 0 6.70366 0.645139 4.8931 1.85383C3.08254 3.06253 1.67139 4.78049 0.838078 6.79048C0.00477038 8.80047 -0.213261 11.0122 0.211556 13.146C0.636372 15.2798 1.68496 17.2398 3.22471 18.7782C4.76446 20.3165 6.72622 21.3642 8.86192 21.7886C10.9976 22.2131 13.2113 21.9952 15.2231 21.1627C17.2349 20.3301 18.9544 18.9202 20.1642 17.1113C21.3739 15.3023 22.0197 13.1756 22.0197 11C22.0197 8.08262 20.8597 5.28472 18.795 3.22182C16.7302 1.15892 13.9298 0 11.0098 0V0ZM20.8887 13.8212L20.1985 13.5975L19.966 14.2943L20.6591 14.5194C20.3728 15.3002 19.9926 16.0432 19.5268 16.7323L18.9392 16.3048L18.5113 16.8975L19.0946 17.325C18.5816 17.9789 17.9917 18.5687 17.3376 19.0819L16.9098 18.4991L16.3165 18.9265L16.7444 19.5136C16.0546 19.9785 15.3109 20.3579 14.5296 20.6435L14.3085 19.9482L13.6111 20.1747L13.835 20.8644C13.0344 21.0936 12.2087 21.2243 11.3764 21.2534V20.5295H10.6433V21.2534C9.81143 21.2242 8.98623 21.0935 8.18607 20.8644L8.40997 20.1747L7.71259 19.9482L7.48583 20.6407C6.70693 20.3578 5.96517 19.9817 5.27674 19.5207L5.70458 18.9337L5.1113 18.5062L4.68346 19.089C4.02894 18.5759 3.43855 17.9861 2.92503 17.3321L3.50832 16.9047L3.08048 16.3119L2.4929 16.7394C2.02819 16.0506 1.64891 15.3081 1.3634 14.528L2.0565 14.3028L1.82975 13.6061L1.13379 13.8212C0.904069 13.0223 0.772844 12.1983 0.743026 11.3676H1.46751V10.6338H0.743026C0.77225 9.80267 0.902997 8.97821 1.13236 8.17875L1.82262 8.40246L2.04937 7.7057L1.35769 7.48057C1.64431 6.70132 2.02455 5.95971 2.49005 5.27202L3.07762 5.69948L3.50547 5.10673L2.91932 4.67927C3.43364 4.02466 4.025 3.43432 4.68061 2.92098L5.10845 3.50376L5.70458 3.07202L5.27674 2.48497C5.96519 2.02088 6.70745 1.64194 7.48726 1.35648L7.71259 2.04896L8.41425 1.82098L8.18464 1.13277C8.98522 0.903028 9.8109 0.771918 10.6433 0.742357V1.46619H11.3778V0.742357C12.2092 0.771657 13.0339 0.902287 13.8336 1.13135L13.6097 1.82098L14.3071 2.04754L14.5338 1.3579C15.3153 1.64395 16.059 2.02385 16.7486 2.48925L16.3208 3.07629L16.9141 3.50376L17.3419 2.92098C17.9964 3.43405 18.5868 4.02391 19.1003 4.67785L18.5171 5.10531L18.9449 5.69806L19.5325 5.27059C19.9975 5.95836 20.3772 6.69996 20.6634 7.47914L19.966 7.7057L20.1928 8.40246L20.883 8.17875C21.1125 8.97868 21.2432 9.80362 21.2724 10.6352H20.5479V11.369H21.2724C21.2448 12.199 21.1159 13.0225 20.8887 13.8212Z"/>
</mask>
<path d="M11.0098 0C8.83229 0 6.70366 0.645139 4.8931 1.85383C3.08254 3.06253 1.67139 4.78049 0.838078 6.79048C0.00477038 8.80047 -0.213261 11.0122 0.211556 13.146C0.636372 15.2798 1.68496 17.2398 3.22471 18.7782C4.76446 20.3165 6.72622 21.3642 8.86192 21.7886C10.9976 22.2131 13.2113 21.9952 15.2231 21.1627C17.2349 20.3301 18.9544 18.9202 20.1642 17.1113C21.3739 15.3023 22.0197 13.1756 22.0197 11C22.0197 8.08262 20.8597 5.28472 18.795 3.22182C16.7302 1.15892 13.9298 0 11.0098 0V0ZM20.8887 13.8212L20.1985 13.5975L19.966 14.2943L20.6591 14.5194C20.3728 15.3002 19.9926 16.0432 19.5268 16.7323L18.9392 16.3048L18.5113 16.8975L19.0946 17.325C18.5816 17.9789 17.9917 18.5687 17.3376 19.0819L16.9098 18.4991L16.3165 18.9265L16.7444 19.5136C16.0546 19.9785 15.3109 20.3579 14.5296 20.6435L14.3085 19.9482L13.6111 20.1747L13.835 20.8644C13.0344 21.0936 12.2087 21.2243 11.3764 21.2534V20.5295H10.6433V21.2534C9.81143 21.2242 8.98623 21.0935 8.18607 20.8644L8.40997 20.1747L7.71259 19.9482L7.48583 20.6407C6.70693 20.3578 5.96517 19.9817 5.27674 19.5207L5.70458 18.9337L5.1113 18.5062L4.68346 19.089C4.02894 18.5759 3.43855 17.9861 2.92503 17.3321L3.50832 16.9047L3.08048 16.3119L2.4929 16.7394C2.02819 16.0506 1.64891 15.3081 1.3634 14.528L2.0565 14.3028L1.82975 13.6061L1.13379 13.8212C0.904069 13.0223 0.772844 12.1983 0.743026 11.3676H1.46751V10.6338H0.743026C0.77225 9.80267 0.902997 8.97821 1.13236 8.17875L1.82262 8.40246L2.04937 7.7057L1.35769 7.48057C1.64431 6.70132 2.02455 5.95971 2.49005 5.27202L3.07762 5.69948L3.50547 5.10673L2.91932 4.67927C3.43364 4.02466 4.025 3.43432 4.68061 2.92098L5.10845 3.50376L5.70458 3.07202L5.27674 2.48497C5.96519 2.02088 6.70745 1.64194 7.48726 1.35648L7.71259 2.04896L8.41425 1.82098L8.18464 1.13277C8.98522 0.903028 9.8109 0.771918 10.6433 0.742357V1.46619H11.3778V0.742357C12.2092 0.771657 13.0339 0.902287 13.8336 1.13135L13.6097 1.82098L14.3071 2.04754L14.5338 1.3579C15.3153 1.64395 16.059 2.02385 16.7486 2.48925L16.3208 3.07629L16.9141 3.50376L17.3419 2.92098C17.9964 3.43405 18.5868 4.02391 19.1003 4.67785L18.5171 5.10531L18.9449 5.69806L19.5325 5.27059C19.9975 5.95836 20.3772 6.69996 20.6634 7.47914L19.966 7.7057L20.1928 8.40246L20.883 8.17875C21.1125 8.97868 21.2432 9.80362 21.2724 10.6352H20.5479V11.369H21.2724C21.2448 12.199 21.1159 13.0225 20.8887 13.8212Z" fill="#977CDE"/>
<path d="M11.0098 0V1H12.0098V0H11.0098ZM22.0197 11H23.0197H22.0197ZM11.0098 0V-1H10.0098V0H11.0098ZM20.1985 13.5975L20.5068 12.6462L19.5636 12.3406L19.2499 13.2811L20.1985 13.5975ZM19.966 14.2943L19.0174 13.9778L18.6984 14.934L19.6571 15.2454L19.966 14.2943ZM20.6591 14.5194L21.598 14.8637L21.9554 13.889L20.968 13.5683L20.6591 14.5194ZM19.5268 16.7323L18.9385 17.5409L19.7755 18.1498L20.3552 17.2923L19.5268 16.7323ZM18.9392 16.3048L19.5275 15.4961L18.7158 14.9056L18.1283 15.7195L18.9392 16.3048ZM18.5113 16.8975L17.7005 16.3123L17.1195 17.1173L17.9202 17.7041L18.5113 16.8975ZM19.0946 17.325L19.8813 17.9423L20.5193 17.1293L19.6857 16.5184L19.0946 17.325ZM17.3376 19.0819L16.5315 19.6737L17.1426 20.506L17.9549 19.8686L17.3376 19.0819ZM16.9098 18.4991L17.7159 17.9073L17.1293 17.1084L16.3252 17.6877L16.9098 18.4991ZM16.3165 18.9265L15.7319 18.1152L14.9162 18.703L15.5084 19.5155L16.3165 18.9265ZM16.7444 19.5136L17.3033 20.3428L18.1635 19.763L17.5525 18.9246L16.7444 19.5136ZM14.5296 20.6435L13.5766 20.9465L13.8927 21.941L14.8729 21.5827L14.5296 20.6435ZM14.3085 19.9482L15.2615 19.6452L14.9566 18.6862L13.9995 18.9971L14.3085 19.9482ZM13.6111 20.1747L13.3021 19.2237L12.3512 19.5326L12.66 20.4835L13.6111 20.1747ZM13.835 20.8644L14.1103 21.8257L15.106 21.5406L14.7861 20.5556L13.835 20.8644ZM11.3764 21.2534H10.3764V22.2889L11.4113 22.2528L11.3764 21.2534ZM11.3764 20.5295H12.3764V19.5295H11.3764V20.5295ZM10.6433 20.5295V19.5295H9.64331V20.5295H10.6433ZM10.6433 21.2534L10.6083 22.2527L11.6433 22.2891V21.2534H10.6433ZM8.18607 20.8644L7.23494 20.5556L6.91514 21.5406L7.91073 21.8257L8.18607 20.8644ZM8.40997 20.1747L9.3611 20.4835L9.66985 19.5326L8.71894 19.2237L8.40997 20.1747ZM7.71259 19.9482L8.02156 18.9971L7.07271 18.6889L6.76224 19.637L7.71259 19.9482ZM7.48583 20.6407L7.14447 21.5806L8.11489 21.933L8.43618 20.9519L7.48583 20.6407ZM5.27674 19.5207L4.46859 18.9317L3.85574 19.7726L4.72031 20.3516L5.27674 19.5207ZM5.70458 18.9337L6.51273 19.5227L7.10492 18.7101L6.28916 18.1223L5.70458 18.9337ZM5.1113 18.5062L5.69588 17.6949L4.89175 17.1155L4.30521 17.9144L5.1113 18.5062ZM4.68346 19.089L4.06653 19.876L4.87879 20.5127L5.48955 19.6808L4.68346 19.089ZM2.92503 17.3321L2.33392 16.5255L1.50003 17.1366L2.13854 17.9497L2.92503 17.3321ZM3.50832 16.9047L4.09942 17.7113L4.90021 17.1244L4.31916 16.3194L3.50832 16.9047ZM3.08048 16.3119L3.89132 15.7266L3.30386 14.9128L2.49218 15.5033L3.08048 16.3119ZM2.4929 16.7394L1.66396 17.2987L2.24343 18.1575L3.0812 17.548L2.4929 16.7394ZM1.3634 14.528L1.05447 13.5769L0.0677371 13.8974L0.424318 14.8717L1.3634 14.528ZM2.0565 14.3028L2.36543 15.2539L3.31706 14.9448L3.00741 13.9934L2.0565 14.3028ZM1.82975 13.6061L2.78066 13.2966L2.47574 12.3597L1.53439 12.6507L1.82975 13.6061ZM1.13379 13.8212L0.172728 14.0976L0.454604 15.0779L1.42915 14.7766L1.13379 13.8212ZM0.743026 11.3676V10.3676H-0.293513L-0.256331 11.4035L0.743026 11.3676ZM1.46751 11.3676V12.3676H2.46751V11.3676H1.46751ZM1.46751 10.6338H2.46751V9.63381H1.46751V10.6338ZM0.743026 10.6338L-0.256357 10.5987L-0.292754 11.6338H0.743026V10.6338ZM1.13236 8.17875L1.44067 7.22747L0.456461 6.90849L0.171141 7.90298L1.13236 8.17875ZM1.82262 8.40246L1.51431 9.35375L2.46444 9.66167L2.77353 8.71193L1.82262 8.40246ZM2.04937 7.7057L3.00028 8.01517L3.30974 7.06429L2.35887 6.7548L2.04937 7.7057ZM1.35769 7.48057L0.419167 7.13536L0.060662 8.11004L1.04819 8.43147L1.35769 7.48057ZM2.49005 5.27202L3.07835 4.46337L2.24182 3.85479L1.66194 4.71146L2.49005 5.27202ZM3.07762 5.69948L2.48933 6.50813L3.30101 7.09863L3.88847 6.28475L3.07762 5.69948ZM3.50547 5.10673L4.31631 5.692L4.89871 4.88512L4.0947 4.29877L3.50547 5.10673ZM2.91932 4.67927L2.133 4.06146L1.49263 4.8765L2.33009 5.48724L2.91932 4.67927ZM4.68061 2.92098L5.4867 2.32919L4.87627 1.49772L4.06412 2.13362L4.68061 2.92098ZM5.10845 3.50376L4.30236 4.09555L4.89033 4.89644L5.69501 4.31366L5.10845 3.50376ZM5.70458 3.07202L6.29114 3.88193L7.10347 3.29361L6.51273 2.48304L5.70458 3.07202ZM5.27674 2.48497L4.71777 1.65578L3.85761 2.23563L4.46859 3.07396L5.27674 2.48497ZM7.48726 1.35648L8.43818 1.04705L8.11731 0.0609335L7.14349 0.41742L7.48726 1.35648ZM7.71259 2.04896L6.76166 2.35839L7.07095 3.3089L8.0216 3.00002L7.71259 2.04896ZM8.41425 1.82098L8.72326 2.77204L9.68183 2.46059L9.36285 1.5045L8.41425 1.82098ZM8.18464 1.13277L7.9088 0.171568L6.9058 0.459404L7.23604 1.44925L8.18464 1.13277ZM10.6433 0.742357H11.6433V-0.293785L10.6078 -0.257013L10.6433 0.742357ZM10.6433 1.46619H9.64331V2.46619H10.6433V1.46619ZM11.3778 1.46619V2.46619H12.3778V1.46619H11.3778ZM11.3778 0.742357L11.413 -0.257022L10.3778 -0.293504V0.742357H11.3778ZM13.8336 1.13135L14.7847 1.44015L15.1045 0.455165L14.109 0.170005L13.8336 1.13135ZM13.6097 1.82098L12.6586 1.51218L12.3498 2.46314L13.3007 2.77206L13.6097 1.82098ZM14.3071 2.04754L13.9981 2.99861L14.9458 3.30648L15.257 2.35989L14.3071 2.04754ZM14.5338 1.3579L14.8776 0.418841L13.9068 0.0634685L13.5839 1.04555L14.5338 1.3579ZM16.7486 2.48925L17.5568 3.07823L18.1675 2.24031L17.308 1.66033L16.7486 2.48925ZM16.3208 3.07629L15.5126 2.48731L14.9205 3.29987L15.7362 3.88763L16.3208 3.07629ZM16.9141 3.50376L16.3295 4.31509L17.1336 4.89448L17.7202 4.09555L16.9141 3.50376ZM17.3419 2.92098L17.9588 2.13396L17.1466 1.49726L16.5358 2.32919L17.3419 2.92098ZM19.1003 4.67785L19.6915 5.48444L20.5253 4.87334L19.8868 4.06024L19.1003 4.67785ZM18.5171 5.10531L17.9259 4.29872L17.1252 4.88557L17.7062 5.69057L18.5171 5.10531ZM18.9449 5.69806L18.1341 6.28332L18.7215 7.0972L19.5332 6.5067L18.9449 5.69806ZM19.5325 5.27059L20.3609 4.71049L19.7812 3.85304L18.9442 4.46195L19.5325 5.27059ZM20.6634 7.47914L20.9724 8.43022L21.9602 8.10932L21.6021 7.13439L20.6634 7.47914ZM19.966 7.7057L19.657 6.75463L18.7055 7.06376L19.0151 8.01517L19.966 7.7057ZM20.1928 8.40246L19.2419 8.71193L19.551 9.66167L20.5011 9.35375L20.1928 8.40246ZM20.883 8.17875L21.8443 7.90303L21.559 6.90848L20.5747 7.22747L20.883 8.17875ZM21.2724 10.6352V11.6352H22.308L22.2717 10.6002L21.2724 10.6352ZM20.5479 10.6352V9.63523H19.5479V10.6352H20.5479ZM20.5479 11.369H19.5479V12.369H20.5479V11.369ZM21.2724 11.369L22.2718 11.4023L22.3062 10.369H21.2724V11.369ZM11.0098 -1C8.63471 -1 6.31286 -0.296328 4.33787 1.02214L5.44833 2.68553C7.09446 1.58661 9.02988 1 11.0098 1V-1ZM4.33787 1.02214C2.36288 2.34061 0.823425 4.21469 -0.0856804 6.40751L1.76184 7.17346C2.51935 5.3463 3.80221 3.78445 5.44833 2.68553L4.33787 1.02214ZM-0.0856804 6.40751C-0.994789 8.60033 -1.23267 11.0133 -0.769196 13.3412L1.19231 12.9507C0.806146 11.0111 1.00433 9.00061 1.76184 7.17346L-0.0856804 6.40751ZM-0.769196 13.3412C-0.305726 15.6692 0.838246 17.8074 2.51792 19.4856L3.9315 18.0707C2.53167 16.6722 1.57847 14.8904 1.19231 12.9507L-0.769196 13.3412ZM2.51792 19.4856C4.19758 21.1638 6.33749 22.3065 8.667 22.7695L9.05684 20.8078C7.11496 20.4219 5.33134 19.4693 3.9315 18.0707L2.51792 19.4856ZM8.667 22.7695C10.9965 23.2324 13.4111 22.9948 15.6055 22.0867L14.8407 20.2387C13.0116 20.9957 10.9987 21.1937 9.05684 20.8078L8.667 22.7695ZM15.6055 22.0867C17.7999 21.1785 19.6756 19.6406 20.9954 17.6672L19.3329 16.5554C18.2331 18.1998 16.6699 19.4817 14.8407 20.2387L15.6055 22.0867ZM20.9954 17.6672C22.3152 15.6938 23.0197 13.3736 23.0197 11H21.0197C21.0197 12.9776 20.4327 14.9109 19.3329 16.5554L20.9954 17.6672ZM23.0197 11C23.0197 7.81711 21.7541 4.76477 19.5017 2.5144L18.0882 3.92925C19.9653 5.80468 21.0197 8.34812 21.0197 11H23.0197ZM19.5017 2.5144C17.2494 0.264065 14.1947 -1 11.0098 -1V1C13.6649 1 16.211 2.05378 18.0882 3.92925L19.5017 2.5144ZM10.0098 0V0H12.0098V0H10.0098ZM21.197 12.87L20.5068 12.6462L19.8902 14.5488L20.5804 14.7725L21.197 12.87ZM19.2499 13.2811L19.0174 13.9778L20.9146 14.6108L21.1471 13.914L19.2499 13.2811ZM19.6571 15.2454L20.3502 15.4705L20.968 13.5683L20.2749 13.3432L19.6571 15.2454ZM19.7203 14.1751C19.4619 14.8797 19.1187 15.5503 18.6983 16.1722L20.3552 17.2923C20.8664 16.5361 21.2838 15.7206 21.598 14.8637L19.7203 14.1751ZM20.1151 15.9236L19.5275 15.4961L18.3509 17.1134L18.9385 17.5409L20.1151 15.9236ZM18.1283 15.7195L17.7005 16.3123L19.3222 17.4828L19.75 16.8901L18.1283 15.7195ZM17.9202 17.7041L18.5035 18.1316L19.6857 16.5184L19.1025 16.0909L17.9202 17.7041ZM18.3079 16.7077C17.8443 17.2985 17.3113 17.8314 16.7203 18.2951L17.9549 19.8686C18.672 19.306 19.3188 18.6593 19.8813 17.9423L18.3079 16.7077ZM18.1437 18.4901L17.7159 17.9073L16.1037 19.0909L16.5315 19.6737L18.1437 18.4901ZM16.3252 17.6877L15.7319 18.1152L16.9011 19.7379L17.4944 19.3104L16.3252 17.6877ZM15.5084 19.5155L15.9362 20.1026L17.5525 18.9246L17.1247 18.3376L15.5084 19.5155ZM16.1854 18.6844C15.5629 19.104 14.8916 19.4465 14.1863 19.7043L14.8729 21.5827C15.7303 21.2693 16.5464 20.853 17.3033 20.3428L16.1854 18.6844ZM15.4826 20.3406L15.2615 19.6452L13.3555 20.2511L13.5766 20.9465L15.4826 20.3406ZM13.9995 18.9971L13.3021 19.2237L13.9201 21.1258L14.6175 20.8993L13.9995 18.9971ZM12.66 20.4835L12.8839 21.1732L14.7861 20.5556L14.5622 19.8659L12.66 20.4835ZM13.5597 19.903C12.8374 20.1099 12.0924 20.2277 11.3414 20.254L11.4113 22.2528C12.325 22.2208 13.2314 22.0774 14.1103 21.8257L13.5597 19.903ZM12.3764 21.2534V20.5295H10.3764V21.2534H12.3764ZM11.3764 19.5295H10.6433V21.5295H11.3764V19.5295ZM9.64331 20.5295V21.2534H11.6433V20.5295H9.64331ZM10.6784 20.254C9.92783 20.2276 9.18332 20.1098 8.46141 19.903L7.91073 21.8257C8.78915 22.0773 9.69503 22.2207 10.6083 22.2527L10.6784 20.254ZM9.13719 21.1732L9.3611 20.4835L7.45885 19.8659L7.23494 20.5556L9.13719 21.1732ZM8.71894 19.2237L8.02156 18.9971L7.40362 20.8993L8.101 21.1258L8.71894 19.2237ZM6.76224 19.637L6.53549 20.3295L8.43618 20.9519L8.66294 20.2594L6.76224 19.637ZM7.82719 19.7007C7.1241 19.4454 6.45455 19.1059 5.83316 18.6898L4.72031 20.3516C5.47578 20.8575 6.28976 21.2702 7.14447 21.5806L7.82719 19.7007ZM6.08488 20.1097L6.51273 19.5227L4.89643 18.3447L4.46859 18.9317L6.08488 20.1097ZM6.28916 18.1223L5.69588 17.6949L4.52673 19.3176L5.12 19.745L6.28916 18.1223ZM4.30521 17.9144L3.87737 18.4972L5.48955 19.6808L5.91739 19.098L4.30521 17.9144ZM5.30039 18.302C4.70896 17.8384 4.1755 17.3054 3.71151 16.7145L2.13854 17.9497C2.7016 18.6667 3.34891 19.3135 4.06653 19.876L5.30039 18.302ZM3.51613 18.1387L4.09942 17.7113L2.91721 16.0981L2.33392 16.5255L3.51613 18.1387ZM4.31916 16.3194L3.89132 15.7266L2.26963 16.8972L2.69748 17.4899L4.31916 16.3194ZM2.49218 15.5033L1.90461 15.9307L3.0812 17.548L3.66877 17.1206L2.49218 15.5033ZM3.32185 16.18C2.90244 15.5585 2.56014 14.8883 2.30248 14.1843L0.424318 14.8717C0.737676 15.7279 1.15394 16.5428 1.66396 17.2987L3.32185 16.18ZM1.67232 15.4791L2.36543 15.2539L1.74758 13.3518L1.05447 13.5769L1.67232 15.4791ZM3.00741 13.9934L2.78066 13.2966L0.878837 13.9156L1.10559 14.6123L3.00741 13.9934ZM1.53439 12.6507L0.838431 12.8659L1.42915 14.7766L2.1251 14.5615L1.53439 12.6507ZM2.09485 13.5449C1.88764 12.8243 1.76928 12.081 1.74238 11.3317L-0.256331 11.4035C-0.22359 12.3156 -0.0795028 13.2203 0.172728 14.0976L2.09485 13.5449ZM0.743026 12.3676H1.46751V10.3676H0.743026V12.3676ZM2.46751 11.3676V10.6338H0.467507V11.3676H2.46751ZM1.46751 9.63381H0.743026V11.6338H1.46751V9.63381ZM1.74241 10.6689C1.76877 9.91928 1.8867 9.17563 2.09358 8.45453L0.171141 7.90298C-0.0807037 8.78078 -0.224268 9.68605 -0.256357 10.5987L1.74241 10.6689ZM0.824059 9.13004L1.51431 9.35375L2.13092 7.45117L1.44067 7.22747L0.824059 9.13004ZM2.77353 8.71193L3.00028 8.01517L1.09846 7.39623L0.871706 8.09299L2.77353 8.71193ZM2.35887 6.7548L1.66719 6.52967L1.04819 8.43147L1.73987 8.6566L2.35887 6.7548ZM2.29622 7.82577C2.55489 7.12253 2.89804 6.45323 3.31817 5.83258L1.66194 4.71146C1.15105 5.4662 0.733742 6.28011 0.419167 7.13536L2.29622 7.82577ZM1.90176 6.08067L2.48933 6.50813L3.66592 4.89083L3.07835 4.46337L1.90176 6.08067ZM3.88847 6.28475L4.31631 5.692L2.69462 4.52147L2.26678 5.11422L3.88847 6.28475ZM4.0947 4.29877L3.50855 3.87131L2.33009 5.48724L2.91624 5.9147L4.0947 4.29877ZM3.70565 5.29709C4.17036 4.70562 4.70469 4.1722 5.2971 3.70834L4.06412 2.13362C3.34531 2.69644 2.69693 3.34371 2.133 4.06146L3.70565 5.29709ZM3.87452 3.51278L4.30236 4.09555L5.91454 2.91196L5.4867 2.32919L3.87452 3.51278ZM5.69501 4.31366L6.29114 3.88193L5.11802 2.26211L4.52189 2.69385L5.69501 4.31366ZM6.51273 2.48304L6.08488 1.89599L4.46859 3.07396L4.89643 3.661L6.51273 2.48304ZM5.83571 3.31416C6.45711 2.89526 7.12711 2.55321 7.83102 2.29553L7.14349 0.41742C6.28779 0.730672 5.47326 1.14649 4.71777 1.65578L5.83571 3.31416ZM6.53633 1.6659L6.76166 2.35839L8.66351 1.73954L8.43818 1.04705L6.53633 1.6659ZM8.0216 3.00002L8.72326 2.77204L8.10524 0.869926L7.40358 1.0979L8.0216 3.00002ZM9.36285 1.5045L9.13324 0.816289L7.23604 1.44925L7.46565 2.13747L9.36285 1.5045ZM8.46048 2.09398C9.18279 1.88669 9.92775 1.7684 10.6788 1.74173L10.6078 -0.257013C9.69404 -0.224563 8.78765 -0.0806366 7.9088 0.171568L8.46048 2.09398ZM9.64331 0.742357V1.46619H11.6433V0.742357H9.64331ZM10.6433 2.46619H11.3778V0.466191H10.6433V2.46619ZM12.3778 1.46619V0.742357H10.3778V1.46619H12.3778ZM11.3426 1.74174C12.0927 1.76817 12.8367 1.88603 13.5582 2.09269L14.109 0.170005C13.231 -0.0814559 12.3257 -0.224858 11.413 -0.257022L11.3426 1.74174ZM12.8825 0.822545L12.6586 1.51218L14.5608 2.12979L14.7847 1.44015L12.8825 0.822545ZM13.3007 2.77206L13.9981 2.99861L14.616 1.09647L13.9187 0.869912L13.3007 2.77206ZM15.257 2.35989L15.4838 1.67026L13.5839 1.04555L13.3571 1.73518L15.257 2.35989ZM14.1901 2.29696C14.8955 2.55517 15.5668 2.89809 16.1893 3.31816L17.308 1.66033C16.5512 1.14962 15.7351 0.732731 14.8776 0.418841L14.1901 2.29696ZM15.9405 1.90027L15.5126 2.48731L17.1289 3.66528L17.5568 3.07823L15.9405 1.90027ZM15.7362 3.88763L16.3295 4.31509L17.4986 2.69242L16.9054 2.26496L15.7362 3.88763ZM17.7202 4.09555L18.148 3.51278L16.5358 2.32919L16.108 2.91196L17.7202 4.09555ZM16.725 3.708C17.3164 4.17161 17.8499 4.7046 18.3139 5.29546L19.8868 4.06024C19.3238 3.34322 18.6765 2.69649 17.9588 2.13396L16.725 3.708ZM18.5092 3.87125L17.9259 4.29872L19.1082 5.9119L19.6915 5.48444L18.5092 3.87125ZM17.7062 5.69057L18.1341 6.28332L19.7557 5.11279L19.3279 4.52004L17.7062 5.69057ZM19.5332 6.5067L20.1208 6.07924L18.9442 4.46195L18.3566 4.88941L19.5332 6.5067ZM18.704 5.8307C19.1237 6.45142 19.4664 7.12072 19.7247 7.8239L21.6021 7.13439C21.288 6.27921 20.8712 5.4653 20.3609 4.71049L18.704 5.8307ZM20.3544 6.52807L19.657 6.75463L20.275 8.65677L20.9724 8.43022L20.3544 6.52807ZM19.0151 8.01517L19.2419 8.71193L21.1437 8.09299L20.9169 7.39623L19.0151 8.01517ZM20.5011 9.35375L21.1913 9.13004L20.5747 7.22747L19.8845 7.45117L20.5011 9.35375ZM19.9218 8.45448C20.1288 9.17603 20.2467 9.92013 20.273 10.6702L22.2717 10.6002C22.2398 9.6871 22.0962 8.78133 21.8443 7.90303L19.9218 8.45448ZM21.2724 9.63523H20.5479V11.6352H21.2724V9.63523ZM19.5479 10.6352V11.369H21.5479V10.6352H19.5479ZM20.5479 12.369H21.2724V10.369H20.5479V12.369ZM20.2729 11.3358C20.248 12.0844 20.1318 12.8272 19.9269 13.5476L21.8506 14.0948C22.1 13.2178 22.2415 12.3136 22.2718 11.4023L20.2729 11.3358Z" fill="#977CDE" mask="url(#path-1-inside-1)"/>
<mask id="path-3-inside-2" fill="white">
<path d="M11.0103 2.93359C9.41323 2.93331 7.8519 3.40623 6.52382 4.29254C5.19573 5.17885 4.16054 6.43874 3.54915 7.91288C2.93777 9.38702 2.77766 11.0092 3.08907 12.5743C3.40048 14.1393 4.16941 15.5769 5.29864 16.7054C6.42786 17.8338 7.86666 18.6023 9.43306 18.9137C10.9995 19.2251 12.6231 19.0654 14.0987 18.4549C15.5742 17.8443 16.8354 16.8102 17.7228 15.4835C18.6101 14.1567 19.0837 12.5969 19.0837 11.0012C19.0837 8.86179 18.2332 6.80998 16.7192 5.29705C15.2052 3.78412 13.1517 2.93397 11.0103 2.93359ZM11.0103 18.335C9.55855 18.335 8.13937 17.9049 6.93225 17.099C5.72514 16.2932 4.7843 15.1478 4.22872 13.8077C3.67315 12.4677 3.52779 10.9931 3.81102 9.57045C4.09425 8.14783 4.79335 6.84108 5.81992 5.81542C6.84648 4.78977 8.15441 4.0913 9.5783 3.80832C11.0022 3.52534 12.4781 3.67058 13.8194 4.22565C15.1606 4.78073 16.3071 5.72073 17.1136 6.92677C17.9202 8.13281 18.3507 9.55072 18.3507 11.0012C18.3507 11.9643 18.1608 12.918 17.7919 13.8077C17.4231 14.6975 16.8824 15.506 16.2007 16.187C15.5191 16.868 14.7099 17.4082 13.8194 17.7768C12.9288 18.1453 11.9743 18.335 11.0103 18.335Z"/>
</mask>
<path d="M11.0103 2.93359C9.41323 2.93331 7.8519 3.40623 6.52382 4.29254C5.19573 5.17885 4.16054 6.43874 3.54915 7.91288C2.93777 9.38702 2.77766 11.0092 3.08907 12.5743C3.40048 14.1393 4.16941 15.5769 5.29864 16.7054C6.42786 17.8338 7.86666 18.6023 9.43306 18.9137C10.9995 19.2251 12.6231 19.0654 14.0987 18.4549C15.5742 17.8443 16.8354 16.8102 17.7228 15.4835C18.6101 14.1567 19.0837 12.5969 19.0837 11.0012C19.0837 8.86179 18.2332 6.80998 16.7192 5.29705C15.2052 3.78412 13.1517 2.93397 11.0103 2.93359ZM11.0103 18.335C9.55855 18.335 8.13937 17.9049 6.93225 17.099C5.72514 16.2932 4.7843 15.1478 4.22872 13.8077C3.67315 12.4677 3.52779 10.9931 3.81102 9.57045C4.09425 8.14783 4.79335 6.84108 5.81992 5.81542C6.84648 4.78977 8.15441 4.0913 9.5783 3.80832C11.0022 3.52534 12.4781 3.67058 13.8194 4.22565C15.1606 4.78073 16.3071 5.72073 17.1136 6.92677C17.9202 8.13281 18.3507 9.55072 18.3507 11.0012C18.3507 11.9643 18.1608 12.918 17.7919 13.8077C17.4231 14.6975 16.8824 15.506 16.2007 16.187C15.5191 16.868 14.7099 17.4082 13.8194 17.7768C12.9288 18.1453 11.9743 18.335 11.0103 18.335Z" fill="#977CDE"/>
<path d="M9.43306 18.9137L9.23807 19.8945L9.43306 18.9137ZM19.0837 11.0012H20.0837H19.0837ZM18.3507 11.0012H19.3507H18.3507ZM11.0105 1.93359C9.21581 1.93328 7.46125 2.4647 5.96872 3.46076L7.07891 5.12433C8.24255 4.34776 9.61064 3.93335 11.0102 3.93359L11.0105 1.93359ZM5.96872 3.46076C4.47617 4.45682 3.31265 5.87281 2.62545 7.52978L4.47286 8.29598C5.00842 7.00466 5.91529 5.90088 7.07891 5.12433L5.96872 3.46076ZM2.62545 7.52978C1.93823 9.18675 1.75825 11.0102 2.10829 12.7694L4.06984 12.3791C3.79707 11.0082 3.93731 9.58728 4.47286 8.29598L2.62545 7.52978ZM2.10829 12.7694C2.45834 14.5286 3.32264 16.1445 4.59178 17.4127L6.00549 15.998C5.01618 15.0094 4.34262 13.75 4.06984 12.3791L2.10829 12.7694ZM4.59178 17.4127C5.86091 18.6809 7.47786 19.5446 9.23807 19.8945L9.62805 17.9329C8.25546 17.66 6.99482 16.9866 6.00549 15.998L4.59178 17.4127ZM9.23807 19.8945C10.9983 20.2444 12.8228 20.065 14.481 19.3789L13.7163 17.5308C12.4234 18.0658 11.0006 18.2058 9.62805 17.9329L9.23807 19.8945ZM14.481 19.3789C16.1392 18.6927 17.5567 17.5306 18.554 16.0394L16.8916 14.9275C16.1142 16.0898 15.0093 16.9958 13.7163 17.5308L14.481 19.3789ZM18.554 16.0394C19.5513 14.5482 20.0837 12.7949 20.0837 11.0012H18.0837C18.0837 12.3989 17.6689 13.7653 16.8916 14.9275L18.554 16.0394ZM20.0837 11.0012C20.0837 8.59632 19.1276 6.29008 17.426 4.58969L16.0123 6.00441C17.3387 7.32987 18.0837 9.12727 18.0837 11.0012H20.0837ZM17.426 4.58969C15.7244 2.88932 13.4167 1.93402 11.0105 1.93359L11.0102 3.93359C12.8866 3.93392 14.6859 4.67891 16.0123 6.00441L17.426 4.58969ZM11.0103 17.335C9.75613 17.335 8.53017 16.9634 7.48748 16.2673L6.37702 17.9307C7.74857 18.8464 9.36097 19.335 11.0103 19.335V17.335ZM7.48748 16.2673C6.4448 15.5713 5.63226 14.582 5.15248 13.4248L3.30497 14.1907C3.93634 15.7136 5.00547 17.0151 6.37702 17.9307L7.48748 16.2673ZM5.15248 13.4248C4.67271 12.2675 4.54719 10.9942 4.79177 9.76571L2.83027 9.37519C2.50838 10.992 2.67359 12.6678 3.30497 14.1907L5.15248 13.4248ZM4.79177 9.76571C5.03635 8.53724 5.64006 7.4087 6.52671 6.52285L5.11313 5.108C3.94664 6.27345 3.15215 7.75842 2.83027 9.37519L4.79177 9.76571ZM6.52671 6.52285C7.41337 5.63698 8.54314 5.0336 9.77322 4.78914L9.38337 2.8275C7.76567 3.149 6.2796 3.94257 5.11313 5.108L6.52671 6.52285ZM9.77322 4.78914C11.0033 4.54468 12.2783 4.67015 13.437 5.14965L14.2018 3.30165C12.6779 2.671 11.0011 2.50601 9.38337 2.8275L9.77322 4.78914ZM13.437 5.14965C14.5956 5.62915 15.5858 6.4411 16.2824 7.48268L17.9449 6.37085C17.0283 5.00035 15.7257 3.93231 14.2018 3.30165L13.437 5.14965ZM16.2824 7.48268C16.979 8.52425 17.3507 9.7487 17.3507 11.0012H19.3507C19.3507 9.35274 18.8614 7.74137 17.9449 6.37085L16.2824 7.48268ZM17.3507 11.0012C17.3507 11.8329 17.1867 12.6564 16.8682 13.4248L18.7157 14.1907C19.1349 13.1795 19.3507 12.0957 19.3507 11.0012H17.3507ZM16.8682 13.4248C16.5496 14.1931 16.0827 14.8914 15.494 15.4796L16.9075 16.8944C17.6821 16.1206 18.2965 15.2019 18.7157 14.1907L16.8682 13.4248ZM15.494 15.4796C14.9052 16.0678 14.2063 16.5344 13.437 16.8528L14.2018 18.7008C15.2136 18.282 16.133 17.6682 16.9075 16.8944L15.494 15.4796ZM13.437 16.8528C12.6677 17.1711 11.8431 17.335 11.0103 17.335V19.335C12.1055 19.335 13.1899 19.1195 14.2018 18.7008L13.437 16.8528Z" fill="#977CDE" mask="url(#path-3-inside-2)"/>
<mask id="path-5-inside-3" fill="white">
<path d="M11.0094 4.76953C9.77537 4.76953 8.56905 5.13514 7.54299 5.82012C6.51693 6.5051 5.71722 7.47868 5.24497 8.61776C4.77273 9.75684 4.64916 11.0103 4.88991 12.2195C5.13066 13.4287 5.72491 14.5395 6.5975 15.4113C7.47009 16.2831 8.58184 16.8768 9.79216 17.1174C11.0025 17.3579 12.257 17.2344 13.3971 16.7626C14.5372 16.2908 15.5117 15.4918 16.1973 14.4667C16.8828 13.4415 17.2488 12.2363 17.2488 11.0033C17.2488 9.35003 16.5914 7.76444 15.4213 6.59537C14.2512 5.42631 12.6642 4.76953 11.0094 4.76953ZM15.7285 8.18922C16.1549 8.89683 16.4148 9.69196 16.4886 10.5146L14.1897 10.3294C14.1177 10.3233 14.0491 10.2962 13.9926 10.2513C13.936 10.2065 13.8939 10.1459 13.8717 10.0772C13.8494 10.0086 13.848 9.9349 13.8675 9.86543C13.8871 9.79595 13.9267 9.73379 13.9815 9.68675L15.7285 8.18922ZM12.2345 5.64867L11.3474 7.77601C11.3197 7.84298 11.2727 7.90022 11.2124 7.9405C11.1521 7.98077 11.0812 8.00227 11.0087 8.00227C10.9362 8.00227 10.8653 7.98077 10.805 7.9405C10.7447 7.90022 10.6977 7.84298 10.67 7.77601L9.78292 5.64867C10.5888 5.45792 11.4281 5.45695 12.2345 5.64582V5.64867ZM6.2903 8.18922L8.03732 9.68675C8.09264 9.73377 8.13272 9.79616 8.15249 9.86598C8.17226 9.9358 8.17083 10.0099 8.14837 10.0789C8.12591 10.1479 8.08343 10.2087 8.02633 10.2536C7.96923 10.2984 7.90009 10.3253 7.82767 10.3308L5.52873 10.516C5.60279 9.69278 5.86322 8.89713 6.2903 8.18922ZM9.38075 13.8203L8.84737 16.0631C8.08832 15.7357 7.41239 15.2425 6.86931 14.6197L8.83311 13.4228C8.8949 13.385 8.9665 13.3664 9.03886 13.3693C9.11122 13.3722 9.18111 13.3964 9.2397 13.439C9.29829 13.4815 9.34295 13.5404 9.36805 13.6083C9.39315 13.6761 9.39758 13.7499 9.38075 13.8203ZM13.1714 16.0631L12.6381 13.8203C12.6212 13.7499 12.6257 13.6761 12.6508 13.6083C12.6759 13.5404 12.7205 13.4815 12.7791 13.439C12.8377 13.3964 12.9076 13.3722 12.9799 13.3693C13.0523 13.3664 13.1239 13.385 13.1857 13.4228L15.1495 14.6197C14.6057 15.2416 13.9293 15.7338 13.17 16.0602L13.1714 16.0631ZM13.5679 12.7958C13.3823 12.6827 13.1673 12.627 12.9501 12.6358C12.7329 12.6446 12.5231 12.7174 12.3473 12.8451C12.1714 12.9728 12.0373 13.1496 11.9619 13.3534C11.8865 13.5571 11.8732 13.7786 11.9236 13.9899L12.4741 16.3024C11.5165 16.5739 10.5023 16.5739 9.54475 16.3024L10.0952 13.9899C10.1456 13.7786 10.1323 13.5571 10.0569 13.3534C9.98148 13.1496 9.84739 12.9728 9.67153 12.8451C9.49567 12.7174 9.28591 12.6446 9.06868 12.6358C8.85146 12.627 8.6365 12.6827 8.4509 12.7958L6.42007 14.034C5.87137 13.2052 5.55927 12.2426 5.51733 11.2498L7.88757 11.0589C8.10402 11.0412 8.31039 10.9599 8.48072 10.8253C8.65104 10.6906 8.77771 10.5087 8.84478 10.3023C8.91186 10.0959 8.91634 9.87435 8.85767 9.66543C8.79901 9.45652 8.67981 9.2696 8.51508 9.12821L6.70958 7.5808C7.32995 6.80504 8.14832 6.21089 9.07841 5.86098L9.99257 8.05528C10.0762 8.25564 10.2173 8.4268 10.3982 8.54719C10.579 8.66758 10.7914 8.73181 11.0087 8.73181C11.226 8.73181 11.4384 8.66758 11.6192 8.54719C11.8 8.4268 11.9412 8.25564 12.0248 8.05528L12.9404 5.86098C13.8704 6.21101 14.6888 6.80515 15.3092 7.5808L13.5052 9.12821C13.3404 9.2696 13.2212 9.45652 13.1626 9.66543C13.1039 9.87435 13.1084 10.0959 13.1754 10.3023C13.2425 10.5087 13.3692 10.6906 13.5395 10.8253C13.7098 10.9599 13.9162 11.0412 14.1327 11.0589L16.5029 11.2498C16.461 12.2426 16.1489 13.2052 15.6002 14.034L13.5679 12.7958Z"/>
</mask>
<path d="M11.0094 4.76953C9.77537 4.76953 8.56905 5.13514 7.54299 5.82012C6.51693 6.5051 5.71722 7.47868 5.24497 8.61776C4.77273 9.75684 4.64916 11.0103 4.88991 12.2195C5.13066 13.4287 5.72491 14.5395 6.5975 15.4113C7.47009 16.2831 8.58184 16.8768 9.79216 17.1174C11.0025 17.3579 12.257 17.2344 13.3971 16.7626C14.5372 16.2908 15.5117 15.4918 16.1973 14.4667C16.8828 13.4415 17.2488 12.2363 17.2488 11.0033C17.2488 9.35003 16.5914 7.76444 15.4213 6.59537C14.2512 5.42631 12.6642 4.76953 11.0094 4.76953ZM15.7285 8.18922C16.1549 8.89683 16.4148 9.69196 16.4886 10.5146L14.1897 10.3294C14.1177 10.3233 14.0491 10.2962 13.9926 10.2513C13.936 10.2065 13.8939 10.1459 13.8717 10.0772C13.8494 10.0086 13.848 9.9349 13.8675 9.86543C13.8871 9.79595 13.9267 9.73379 13.9815 9.68675L15.7285 8.18922ZM12.2345 5.64867L11.3474 7.77601C11.3197 7.84298 11.2727 7.90022 11.2124 7.9405C11.1521 7.98077 11.0812 8.00227 11.0087 8.00227C10.9362 8.00227 10.8653 7.98077 10.805 7.9405C10.7447 7.90022 10.6977 7.84298 10.67 7.77601L9.78292 5.64867C10.5888 5.45792 11.4281 5.45695 12.2345 5.64582V5.64867ZM6.2903 8.18922L8.03732 9.68675C8.09264 9.73377 8.13272 9.79616 8.15249 9.86598C8.17226 9.9358 8.17083 10.0099 8.14837 10.0789C8.12591 10.1479 8.08343 10.2087 8.02633 10.2536C7.96923 10.2984 7.90009 10.3253 7.82767 10.3308L5.52873 10.516C5.60279 9.69278 5.86322 8.89713 6.2903 8.18922ZM9.38075 13.8203L8.84737 16.0631C8.08832 15.7357 7.41239 15.2425 6.86931 14.6197L8.83311 13.4228C8.8949 13.385 8.9665 13.3664 9.03886 13.3693C9.11122 13.3722 9.18111 13.3964 9.2397 13.439C9.29829 13.4815 9.34295 13.5404 9.36805 13.6083C9.39315 13.6761 9.39758 13.7499 9.38075 13.8203ZM13.1714 16.0631L12.6381 13.8203C12.6212 13.7499 12.6257 13.6761 12.6508 13.6083C12.6759 13.5404 12.7205 13.4815 12.7791 13.439C12.8377 13.3964 12.9076 13.3722 12.9799 13.3693C13.0523 13.3664 13.1239 13.385 13.1857 13.4228L15.1495 14.6197C14.6057 15.2416 13.9293 15.7338 13.17 16.0602L13.1714 16.0631ZM13.5679 12.7958C13.3823 12.6827 13.1673 12.627 12.9501 12.6358C12.7329 12.6446 12.5231 12.7174 12.3473 12.8451C12.1714 12.9728 12.0373 13.1496 11.9619 13.3534C11.8865 13.5571 11.8732 13.7786 11.9236 13.9899L12.4741 16.3024C11.5165 16.5739 10.5023 16.5739 9.54475 16.3024L10.0952 13.9899C10.1456 13.7786 10.1323 13.5571 10.0569 13.3534C9.98148 13.1496 9.84739 12.9728 9.67153 12.8451C9.49567 12.7174 9.28591 12.6446 9.06868 12.6358C8.85146 12.627 8.6365 12.6827 8.4509 12.7958L6.42007 14.034C5.87137 13.2052 5.55927 12.2426 5.51733 11.2498L7.88757 11.0589C8.10402 11.0412 8.31039 10.9599 8.48072 10.8253C8.65104 10.6906 8.77771 10.5087 8.84478 10.3023C8.91186 10.0959 8.91634 9.87435 8.85767 9.66543C8.79901 9.45652 8.67981 9.2696 8.51508 9.12821L6.70958 7.5808C7.32995 6.80504 8.14832 6.21089 9.07841 5.86098L9.99257 8.05528C10.0762 8.25564 10.2173 8.4268 10.3982 8.54719C10.579 8.66758 10.7914 8.73181 11.0087 8.73181C11.226 8.73181 11.4384 8.66758 11.6192 8.54719C11.8 8.4268 11.9412 8.25564 12.0248 8.05528L12.9404 5.86098C13.8704 6.21101 14.6888 6.80515 15.3092 7.5808L13.5052 9.12821C13.3404 9.2696 13.2212 9.45652 13.1626 9.66543C13.1039 9.87435 13.1084 10.0959 13.1754 10.3023C13.2425 10.5087 13.3692 10.6906 13.5395 10.8253C13.7098 10.9599 13.9162 11.0412 14.1327 11.0589L16.5029 11.2498C16.461 12.2426 16.1489 13.2052 15.6002 14.034L13.5679 12.7958Z" fill="#977CDE"/>
<path d="M15.7285 8.18922L16.585 7.67312L15.975 6.66078L15.0777 7.42998L15.7285 8.18922ZM16.4886 10.5146L16.4083 11.5114L17.5907 11.6066L17.4846 10.4252L16.4886 10.5146ZM14.1897 10.3294L14.1061 11.3259L14.1094 11.3261L14.1897 10.3294ZM13.9815 9.68675L13.3307 8.92751L13.33 8.92809L13.9815 9.68675ZM12.2345 5.64867L13.1574 6.03354L13.2345 5.84881V5.64867H12.2345ZM11.3474 7.77601L10.4244 7.39114L10.4234 7.39362L11.3474 7.77601ZM10.67 7.77601L11.594 7.39362L11.593 7.39114L10.67 7.77601ZM9.78292 5.64867L9.5526 4.67556L8.40678 4.94675L8.85994 6.03354L9.78292 5.64867ZM12.2345 5.64582H13.2345V4.85299L12.4625 4.67218L12.2345 5.64582ZM8.03732 9.68675L7.3865 10.446L7.38966 10.4487L8.03732 9.68675ZM7.82767 10.3308L7.75173 9.33368L7.74736 9.33403L7.82767 10.3308ZM5.52873 10.516L4.53275 10.4264L4.42644 11.6081L5.60904 11.5128L5.52873 10.516ZM8.84737 16.0631L8.45134 16.9813L9.54473 17.4529L9.82024 16.2944L8.84737 16.0631ZM8.83311 13.4228L9.35354 14.2767L9.3543 14.2762L8.83311 13.4228ZM13.1714 16.0631L12.2772 16.5106L14.1443 15.8317L13.1714 16.0631ZM12.6381 13.8203L13.6109 13.5889L13.6106 13.5877L12.6381 13.8203ZM12.7791 13.439L13.3666 14.2482L12.7791 13.439ZM13.1857 13.4228L12.6645 14.2762L12.6653 14.2767L13.1857 13.4228ZM15.1495 14.6197L15.9023 15.2779L16.684 14.3838L15.6699 13.7658L15.1495 14.6197ZM13.17 16.0602L12.7751 15.1415L11.8014 15.56L12.2757 16.5077L13.17 16.0602ZM13.5679 12.7958L13.0475 13.6497L13.0476 13.6498L13.5679 12.7958ZM11.9236 13.9899L12.8964 13.7583L12.8963 13.7579L11.9236 13.9899ZM12.4741 16.3024L12.7468 17.2645L13.6688 17.0031L13.4469 16.0709L12.4741 16.3024ZM9.54475 16.3024L8.57194 16.0709L8.35002 17.0031L9.27199 17.2645L9.54475 16.3024ZM10.0952 13.9899L9.12253 13.7579L9.12243 13.7583L10.0952 13.9899ZM8.4509 12.7958L7.93049 11.9419L7.93033 11.942L8.4509 12.7958ZM6.42007 14.034L5.58624 14.5861L6.11807 15.3894L6.94064 14.8879L6.42007 14.034ZM5.51733 11.2498L5.43704 10.2531L4.47759 10.3303L4.51822 11.292L5.51733 11.2498ZM7.88757 11.0589L7.96786 12.0557L7.96919 12.0556L7.88757 11.0589ZM8.51508 9.12821L9.16639 8.36939L9.16583 8.36892L8.51508 9.12821ZM6.70958 7.5808L5.92859 6.95625L5.32494 7.71111L6.05883 8.34009L6.70958 7.5808ZM9.07841 5.86098L10.0015 5.47641L9.63014 4.58499L8.72629 4.92502L9.07841 5.86098ZM9.99257 8.05528L9.06947 8.43985L9.06976 8.44055L9.99257 8.05528ZM11.0087 8.73181V7.73181V8.73181ZM12.0248 8.05528L12.9476 8.44055L12.9477 8.44036L12.0248 8.05528ZM12.9404 5.86098L13.2926 4.92507L12.3892 4.58505L12.0175 5.4759L12.9404 5.86098ZM15.3092 7.5808L15.9603 8.33984L16.6937 7.71072L16.0901 6.95614L15.3092 7.5808ZM13.5052 9.12821L12.8541 8.36917L12.8538 8.36939L13.5052 9.12821ZM14.1327 11.0589L14.051 12.0556L14.0524 12.0557L14.1327 11.0589ZM16.5029 11.2498L17.502 11.292L17.5426 10.3303L16.5832 10.2531L16.5029 11.2498ZM15.6002 14.034L15.0799 14.888L15.9023 15.3891L16.434 14.5861L15.6002 14.034ZM11.0094 3.76953C9.57779 3.76953 8.17825 4.19367 6.98777 4.98842L8.09822 6.65182C8.95985 6.0766 9.97295 5.76953 11.0094 5.76953V3.76953ZM6.98777 4.98842C5.79727 5.78317 4.86926 6.91288 4.32122 8.23479L6.16873 9.00074C6.56518 8.04449 7.2366 7.22702 8.09822 6.65182L6.98777 4.98842ZM4.32122 8.23479C3.77317 9.5567 3.62975 11.0114 3.90916 12.4148L5.87066 12.0242C5.66857 11.0092 5.77229 9.95699 6.16873 9.00074L4.32122 8.23479ZM3.90916 12.4148C4.18856 13.8182 4.8782 15.1071 5.89071 16.1187L7.30429 14.7039C6.57161 13.9719 6.07275 13.0393 5.87066 12.0242L3.90916 12.4148ZM5.89071 16.1187C6.90321 17.1303 8.1931 17.8191 9.59723 18.0982L9.98708 16.1365C8.97057 15.9345 8.03698 15.4359 7.30429 14.7039L5.89071 16.1187ZM9.59723 18.0982C11.0014 18.3772 12.4568 18.234 13.7795 17.6866L13.0147 15.8386C12.0572 16.2349 11.0036 16.3386 9.98708 16.1365L9.59723 18.0982ZM13.7795 17.6866C15.1022 17.1392 16.2329 16.2122 17.0285 15.0226L15.366 13.9107C14.7904 14.7714 13.9722 15.4424 13.0147 15.8386L13.7795 17.6866ZM17.0285 15.0226C17.8241 13.8329 18.2488 12.4342 18.2488 11.0033H16.2488C16.2488 12.0383 15.9416 13.0501 15.366 13.9107L17.0285 15.0226ZM18.2488 11.0033C18.2488 9.08452 17.4858 7.24448 16.1281 5.88795L14.7145 7.3028C15.697 8.2844 16.2488 9.61554 16.2488 11.0033H18.2488ZM16.1281 5.88795C14.7704 4.53145 12.9291 3.76953 11.0094 3.76953V5.76953C12.3993 5.76953 13.732 6.32117 14.7145 7.3028L16.1281 5.88795ZM14.872 8.70533C15.2202 9.28315 15.4324 9.93237 15.4927 10.604L17.4846 10.4252C17.3972 9.45155 17.0896 8.51052 16.585 7.67312L14.872 8.70533ZM16.569 9.51783L14.27 9.3326L14.1094 11.3261L16.4083 11.5114L16.569 9.51783ZM14.2734 9.33288C14.3975 9.3433 14.516 9.39016 14.6138 9.46771L13.3713 11.0349C13.5823 11.2022 13.8379 11.3034 14.1061 11.3259L14.2734 9.33288ZM14.6138 9.46771C14.7117 9.5453 14.7845 9.65011 14.823 9.76901L12.9204 10.3855C13.0034 10.6417 13.1603 10.8676 13.3713 11.0349L14.6138 9.46771ZM14.823 9.76901C14.8615 9.88798 14.8641 10.0157 14.8302 10.1361L12.9049 9.59474C12.8319 9.85409 12.8373 10.1292 12.9204 10.3855L14.823 9.76901ZM14.8302 10.1361C14.7964 10.2565 14.7277 10.3641 14.633 10.4454L13.33 8.92809C13.1257 9.10352 12.9778 9.33544 12.9049 9.59474L14.8302 10.1361ZM14.6323 10.446L16.3793 8.94846L15.0777 7.42998L13.3307 8.92751L14.6323 10.446ZM11.3115 5.26381L10.4244 7.39114L12.2704 8.16087L13.1574 6.03354L11.3115 5.26381ZM10.4234 7.39362C10.4714 7.27758 10.5528 7.17856 10.6569 7.10897L11.7679 8.77202C11.9927 8.62187 12.168 8.40837 12.2714 8.15839L10.4234 7.39362ZM10.6569 7.10897C10.7611 7.03936 10.8835 7.00227 11.0087 7.00227V9.00227C11.2789 9.00227 11.5431 8.92218 11.7679 8.77202L10.6569 7.10897ZM11.0087 7.00227C11.1339 7.00227 11.2563 7.03938 11.3605 7.10897L10.2495 8.77202C10.4742 8.92217 10.7384 9.00227 11.0087 9.00227V7.00227ZM11.3605 7.10897C11.4646 7.17856 11.546 7.27758 11.594 7.39362L9.74598 8.15839C9.84943 8.40837 10.0247 8.62187 10.2495 8.77202L11.3605 7.10897ZM11.593 7.39114L10.7059 5.26381L8.85994 6.03354L9.74701 8.16087L11.593 7.39114ZM10.0132 6.62179C10.6685 6.4667 11.3508 6.46591 12.0064 6.61947L12.4625 4.67218C11.5054 4.44799 10.5092 4.44914 9.5526 4.67556L10.0132 6.62179ZM11.2345 5.64582V5.64867H13.2345V5.64582H11.2345ZM5.63948 8.94846L7.38651 10.446L8.68813 8.92751L6.94111 7.42998L5.63948 8.94846ZM7.38966 10.4487C7.29396 10.3673 7.22457 10.2594 7.19032 10.1384L9.11466 9.59353C9.04087 9.33296 8.89131 9.10021 8.68498 8.92482L7.38966 10.4487ZM7.19032 10.1384C7.15607 10.0175 7.15854 9.889 7.19748 9.76939L9.09926 10.3884C9.18311 10.1308 9.18846 9.85414 9.11466 9.59353L7.19032 10.1384ZM7.19748 9.76939C7.23641 9.64979 7.30998 9.54462 7.40865 9.46712L8.64401 11.04C8.85688 10.8728 9.0154 10.6461 9.09926 10.3884L7.19748 9.76939ZM7.40865 9.46712C7.50733 9.38962 7.62674 9.34321 7.75173 9.33369L7.90361 11.3279C8.17343 11.3074 8.43114 11.2072 8.64401 11.04L7.40865 9.46712ZM7.74736 9.33403L5.44842 9.51926L5.60904 11.5128L7.90798 11.3276L7.74736 9.33403ZM6.52471 10.6056C6.58518 9.93351 6.7978 9.28386 7.14654 8.70579L5.43405 7.67265C4.92864 8.51041 4.62041 9.45206 4.53275 10.4264L6.52471 10.6056ZM8.40788 13.5889L7.8745 15.8317L9.82024 16.2944L10.3536 14.0517L8.40788 13.5889ZM9.2434 15.1448C8.62153 14.8766 8.06783 14.4726 7.623 13.9624L6.11562 15.2769C6.75696 16.0124 7.55512 16.5948 8.45134 16.9813L9.2434 15.1448ZM7.38974 15.4736L9.35354 14.2767L8.31267 12.5689L6.34887 13.7658L7.38974 15.4736ZM9.3543 14.2762C9.24752 14.3414 9.1239 14.3735 8.99906 14.3685L9.07865 12.3701C8.80909 12.3594 8.54228 12.4286 8.31191 12.5693L9.3543 14.2762ZM8.99906 14.3685C8.8742 14.3635 8.75351 14.3217 8.65225 14.2482L9.82716 12.6297C9.60871 12.4711 9.34825 12.3808 9.07865 12.3701L8.99906 14.3685ZM8.65225 14.2482C8.55095 14.1747 8.47363 14.0727 8.43015 13.9552L10.306 13.2614C10.2123 13.0081 10.0456 12.7883 9.82716 12.6297L8.65225 14.2482ZM8.43015 13.9552C8.38668 13.8376 8.37899 13.7098 8.40817 13.5877L10.3533 14.0529C10.4162 13.7901 10.3996 13.5146 10.306 13.2614L8.43015 13.9552ZM14.1443 15.8317L13.6109 13.5889L11.6652 14.0517L12.1986 16.2944L14.1443 15.8317ZM13.6106 13.5877C13.6398 13.7098 13.6321 13.8376 13.5887 13.9552L11.7129 13.2614C11.6192 13.5146 11.6026 13.7901 11.6655 14.0529L13.6106 13.5877ZM13.5887 13.9552C13.5452 14.0727 13.4679 14.1747 13.3666 14.2482L12.1916 12.6297C11.9732 12.7883 11.8065 13.0081 11.7129 13.2614L13.5887 13.9552ZM13.3666 14.2482C13.2653 14.3217 13.1446 14.3635 13.0197 14.3685L12.9402 12.3701C12.6706 12.3808 12.4101 12.4711 12.1916 12.6297L13.3666 14.2482ZM13.0197 14.3685C12.8949 14.3735 12.7713 14.3414 12.6645 14.2762L13.7069 12.5693C13.4765 12.4286 13.2097 12.3594 12.9402 12.3701L13.0197 14.3685ZM12.6653 14.2767L14.6291 15.4736L15.6699 13.7658L13.7061 12.5689L12.6653 14.2767ZM14.3967 13.9614C13.9513 14.4708 13.3972 14.8741 12.7751 15.1415L13.5649 16.9789C14.4614 16.5936 15.2601 16.0124 15.9023 15.2779L14.3967 13.9614ZM12.2757 16.5077L12.2772 16.5106L14.0657 15.6155L14.0643 15.6127L12.2757 16.5077ZM14.0883 11.9419C13.7342 11.7261 13.3241 11.6199 12.9098 11.6366L12.9904 13.635C13.0106 13.6342 13.0304 13.6393 13.0475 13.6497L14.0883 11.9419ZM12.9098 11.6366C12.4955 11.6533 12.0953 11.7922 11.7597 12.0359L12.9348 13.6543C12.951 13.6425 12.9703 13.6358 12.9904 13.635L12.9098 11.6366ZM11.7597 12.0359C11.4241 12.2796 11.1681 12.6172 11.0241 13.0063L12.8997 13.7005C12.9066 13.6821 12.9187 13.666 12.9348 13.6543L11.7597 12.0359ZM11.0241 13.0063C10.8801 13.3953 10.8546 13.8183 10.9508 14.2218L12.8963 13.7579C12.8917 13.7389 12.8929 13.7189 12.8997 13.7005L11.0241 13.0063ZM10.9507 14.2214L11.5012 16.534L13.4469 16.0709L12.8964 13.7583L10.9507 14.2214ZM12.2013 15.3404C11.4221 15.5613 10.5967 15.5613 9.81752 15.3404L9.27199 17.2645C10.4078 17.5865 11.611 17.5865 12.7468 17.2645L12.2013 15.3404ZM10.5176 16.534L11.0681 14.2214L9.12243 13.7583L8.57194 16.0709L10.5176 16.534ZM11.068 14.2218C11.1642 13.8183 11.1387 13.3953 10.9947 13.0063L9.11906 13.7005C9.12587 13.7189 9.12706 13.7389 9.12253 13.7579L11.068 14.2218ZM10.9947 13.0063C10.8507 12.6172 10.5947 12.2796 10.2591 12.0359L9.08396 13.6543C9.10008 13.666 9.11224 13.6821 9.11906 13.7005L10.9947 13.0063ZM10.2591 12.0359C9.92351 11.7922 9.52332 11.6533 9.10901 11.6366L9.02835 13.635C9.0485 13.6358 9.06784 13.6425 9.08396 13.6543L10.2591 12.0359ZM9.10901 11.6366C8.69467 11.6199 8.28461 11.7261 7.93049 11.9419L8.97132 13.6497C8.9884 13.6393 9.00824 13.6342 9.02835 13.635L9.10901 11.6366ZM7.93033 11.942L5.8995 13.1802L6.94064 14.8879L8.97148 13.6496L7.93033 11.942ZM7.25389 13.482C6.80563 12.8049 6.55069 12.0186 6.51644 11.2076L4.51822 11.292C4.56784 12.4667 4.93712 13.6056 5.58624 14.5861L7.25389 13.482ZM5.59762 12.2466L7.96786 12.0557L7.80728 10.0621L5.43704 10.2531L5.59762 12.2466ZM7.96919 12.0556C8.38207 12.0218 8.77579 11.8667 9.10081 11.6098L7.86062 10.0407C7.84499 10.0531 7.82597 10.0606 7.80595 10.0622L7.96919 12.0556ZM9.10081 11.6098C9.42585 11.3529 9.66771 11.0055 9.79581 10.6114L7.89375 9.99322C7.8877 10.0118 7.87622 10.0284 7.86062 10.0407L9.10081 11.6098ZM9.79581 10.6114C9.92391 10.2173 9.93248 9.79407 9.82043 9.39508L7.89491 9.93579C7.90021 9.95463 7.8998 9.9746 7.89375 9.99322L9.79581 10.6114ZM9.82043 9.39508C9.7084 8.9961 9.48079 8.63926 9.16639 8.36939L7.86377 9.88702C7.87883 9.89995 7.88962 9.91694 7.89491 9.93579L9.82043 9.39508ZM9.16583 8.36892L7.36033 6.82151L6.05883 8.34009L7.86432 9.8875L9.16583 8.36892ZM7.49057 8.20535C7.99853 7.57014 8.66872 7.08354 9.43053 6.79694L8.72629 4.92502C7.62792 5.33824 6.66136 6.03994 5.92859 6.95625L7.49057 8.20535ZM8.15531 6.24555L9.06947 8.43985L10.9157 7.67071L10.0015 5.47641L8.15531 6.24555ZM9.06976 8.44055C9.22949 8.82314 9.4989 9.14984 9.84396 9.37958L10.9523 7.7148C10.9358 7.70376 10.9229 7.68815 10.9154 7.67001L9.06976 8.44055ZM9.84396 9.37958C10.189 9.6093 10.5942 9.73181 11.0087 9.73181V7.73181C10.9885 7.73181 10.9689 7.72585 10.9523 7.7148L9.84396 9.37958ZM11.0087 9.73181C11.4231 9.73181 11.8284 9.60931 12.1734 9.37958L11.065 7.7148C11.0484 7.72585 11.0288 7.73181 11.0087 7.73181V9.73181ZM12.1734 9.37958C12.5185 9.14984 12.7879 8.82314 12.9476 8.44055L11.102 7.67001C11.0944 7.68815 11.0816 7.70376 11.065 7.7148L12.1734 9.37958ZM12.9477 8.44036L13.8633 6.24606L12.0175 5.4759L11.1019 7.6702L12.9477 8.44036ZM12.5881 6.79689C13.35 7.08362 14.0202 7.57027 14.5283 8.20546L16.0901 6.95614C15.3573 6.04003 14.3909 5.33841 13.2926 4.92507L12.5881 6.79689ZM14.6582 6.82176L12.8541 8.36917L14.1562 9.88724L15.9603 8.33984L14.6582 6.82176ZM12.8538 8.36939C12.5394 8.63926 12.3118 8.9961 12.1998 9.39508L14.1253 9.93579C14.1306 9.91694 14.1414 9.89995 14.1565 9.88702L12.8538 8.36939ZM12.1998 9.39508C12.0878 9.79407 12.0963 10.2173 12.2244 10.6114L14.1265 9.99322C14.1204 9.9746 14.12 9.95463 14.1253 9.93579L12.1998 9.39508ZM12.2244 10.6114C12.3525 11.0055 12.5944 11.3529 12.9194 11.6098L14.1596 10.0407C14.144 10.0284 14.1325 10.0118 14.1265 9.99322L12.2244 10.6114ZM12.9194 11.6098C13.2444 11.8667 13.6382 12.0218 14.051 12.0556L14.2143 10.0622C14.1943 10.0606 14.1752 10.0531 14.1596 10.0407L12.9194 11.6098ZM14.0524 12.0557L16.4226 12.2466L16.5832 10.2531L14.213 10.0621L14.0524 12.0557ZM15.5038 11.2076C15.4695 12.0186 15.2146 12.8049 14.7663 13.482L16.434 14.5861C17.0831 13.6056 17.4524 12.4667 17.502 11.292L15.5038 11.2076ZM16.1205 13.1801L14.0882 11.9419L13.0476 13.6498L15.0799 14.888L16.1205 13.1801Z" fill="#977CDE" mask="url(#path-5-inside-3)"/>
<mask id="path-7-inside-4" fill="white">
<path d="M11.0115 9.53516C10.7212 9.53516 10.4375 9.62114 10.1961 9.78225C9.95482 9.94336 9.76672 10.1724 9.65564 10.4403C9.54457 10.7082 9.51552 11.003 9.57215 11.2874C9.62877 11.5718 9.76854 11.833 9.97377 12.0381C10.179 12.2431 10.4405 12.3828 10.7251 12.4394C11.0098 12.4959 11.3049 12.4669 11.573 12.3559C11.8412 12.245 12.0704 12.057 12.2316 11.8159C12.3929 11.5748 12.4789 11.2913 12.4789 11.0014C12.4789 10.6125 12.3243 10.2396 12.0491 9.9646C11.7739 9.68964 11.4007 9.53516 11.0115 9.53516ZM11.0115 11.7352C10.8662 11.7352 10.7242 11.6921 10.6034 11.6115C10.4826 11.5309 10.3885 11.4163 10.3329 11.2822C10.2773 11.1481 10.2628 11.0005 10.2911 10.8582C10.3194 10.7158 10.3894 10.5851 10.4921 10.4825C10.5948 10.3798 10.7257 10.31 10.8682 10.2816C11.0106 10.2533 11.1583 10.2679 11.2925 10.3234C11.4267 10.3789 11.5414 10.473 11.6221 10.5937C11.7028 10.7143 11.7459 10.8562 11.7459 11.0014C11.7459 11.196 11.6685 11.3826 11.5308 11.5202C11.393 11.6578 11.2062 11.7352 11.0115 11.7352Z"/>
</mask>
<path d="M11.0115 9.53516C10.7212 9.53516 10.4375 9.62114 10.1961 9.78225C9.95482 9.94336 9.76672 10.1724 9.65564 10.4403C9.54457 10.7082 9.51552 11.003 9.57215 11.2874C9.62877 11.5718 9.76854 11.833 9.97377 12.0381C10.179 12.2431 10.4405 12.3828 10.7251 12.4394C11.0098 12.4959 11.3049 12.4669 11.573 12.3559C11.8412 12.245 12.0704 12.057 12.2316 11.8159C12.3929 11.5748 12.4789 11.2913 12.4789 11.0014C12.4789 10.6125 12.3243 10.2396 12.0491 9.9646C11.7739 9.68964 11.4007 9.53516 11.0115 9.53516ZM11.0115 11.7352C10.8662 11.7352 10.7242 11.6921 10.6034 11.6115C10.4826 11.5309 10.3885 11.4163 10.3329 11.2822C10.2773 11.1481 10.2628 11.0005 10.2911 10.8582C10.3194 10.7158 10.3894 10.5851 10.4921 10.4825C10.5948 10.3798 10.7257 10.31 10.8682 10.2816C11.0106 10.2533 11.1583 10.2679 11.2925 10.3234C11.4267 10.3789 11.5414 10.473 11.6221 10.5937C11.7028 10.7143 11.7459 10.8562 11.7459 11.0014C11.7459 11.196 11.6685 11.3826 11.5308 11.5202C11.393 11.6578 11.2062 11.7352 11.0115 11.7352Z" fill="#977CDE"/>
<path d="M11.0115 11.7352V12.7352V11.7352ZM11.7459 11.0014H10.7459H11.7459ZM11.0115 8.53516C10.5236 8.53516 10.0467 8.67967 9.64092 8.95055L10.7514 10.614C10.8283 10.5626 10.9188 10.5352 11.0115 10.5352V8.53516ZM9.64092 8.95055C9.23516 9.22143 8.91876 9.60655 8.73189 10.0573L10.5794 10.8232C10.6147 10.7382 10.6745 10.6653 10.7514 10.614L9.64092 8.95055ZM8.73189 10.0573C8.545 10.5081 8.49612 11.0041 8.59139 11.4827L10.5529 11.0921C10.5349 11.0019 10.5441 10.9083 10.5794 10.8232L8.73189 10.0573ZM8.59139 11.4827C8.68668 11.9612 8.92184 12.4007 9.26698 12.7455L10.6806 11.3307C10.6152 11.2654 10.5709 11.1824 10.5529 11.0921L8.59139 11.4827ZM9.26698 12.7455C9.61211 13.0903 10.0517 13.3251 10.5302 13.4202L10.9201 11.4585C10.8292 11.4405 10.7459 11.3959 10.6806 11.3307L9.26698 12.7455ZM10.5302 13.4202C11.0087 13.5153 11.5046 13.4665 11.9554 13.2799L11.1906 11.4319C11.1051 11.4673 11.011 11.4766 10.9201 11.4585L10.5302 13.4202ZM11.9554 13.2799C12.4062 13.0934 12.7916 12.7774 13.0629 12.3718L11.4004 11.26C11.3491 11.3367 11.2762 11.3965 11.1906 11.4319L11.9554 13.2799ZM13.0629 12.3718C13.3341 11.9662 13.4789 11.4893 13.4789 11.0014H11.4789C11.4789 11.0934 11.4516 11.1834 11.4004 11.26L13.0629 12.3718ZM13.4789 11.0014C13.4789 10.347 13.2187 9.7196 12.7559 9.25718L11.3423 10.672C11.4299 10.7595 11.4789 10.878 11.4789 11.0014H13.4789ZM12.7559 9.25718C12.2931 8.79479 11.6656 8.53516 11.0115 8.53516V10.5352C11.1357 10.5352 11.2547 10.5845 11.3423 10.672L12.7559 9.25718ZM11.0115 10.7352C11.0637 10.7352 11.1149 10.7506 11.1586 10.7798L10.0482 12.4432C10.3334 12.6336 10.6686 12.7352 11.0115 12.7352V10.7352ZM11.1586 10.7798C11.2023 10.809 11.2365 10.8505 11.2567 10.8992L9.40914 11.6651C9.5405 11.982 9.76289 12.2528 10.0482 12.4432L11.1586 10.7798ZM11.2567 10.8992C11.2769 10.9479 11.2822 11.0016 11.2718 11.0534L9.31034 10.6629C9.24334 10.9995 9.27776 11.3483 9.40914 11.6651L11.2567 10.8992ZM11.2718 11.0534C11.2615 11.1053 11.2361 11.1527 11.1989 11.1899L9.78531 9.77505C9.54268 10.0175 9.37734 10.3264 9.31034 10.6629L11.2718 11.0534ZM11.1989 11.1899C11.1617 11.227 11.1144 11.2523 11.0631 11.2625L10.6732 9.30082C10.3369 9.36765 10.0279 9.53264 9.78531 9.77505L11.1989 11.1899ZM11.0631 11.2625C11.0117 11.2727 10.9585 11.2674 10.9101 11.2474L11.6749 9.3994C11.3581 9.2683 11.0095 9.23398 10.6732 9.30082L11.0631 11.2625ZM10.9101 11.2474C10.8618 11.2274 10.8202 11.1934 10.7909 11.1496L12.4534 10.0377C12.2627 9.75255 11.9917 9.5305 11.6749 9.3994L10.9101 11.2474ZM10.7909 11.1496C10.7616 11.1057 10.7459 11.0542 10.7459 11.0014H12.7459C12.7459 10.6583 12.6441 10.3229 12.4534 10.0377L10.7909 11.1496ZM10.7459 11.0014C10.7459 10.9304 10.7741 10.8626 10.824 10.8128L12.2376 12.2276C12.5629 11.9026 12.7459 11.4615 12.7459 11.0014H10.7459ZM10.824 10.8128C10.8738 10.763 10.9413 10.7352 11.0115 10.7352V12.7352C11.4712 12.7352 11.9123 12.5527 12.2376 12.2276L10.824 10.8128Z" fill="#977CDE" mask="url(#path-7-inside-4)"/>
</svg>
